ply
format ascii 1.0
comment created by MATLAB nix_write_ply
element vertex 818
property float x
property float y
property float z
element face 1632
property list uchar int vertex_index
end_header
0.017441 -0.017441 0.000000
0.024665 0.000000 0.000000
0.017441 0.017441 0.000000
0.000000 0.024665 0.000000
-0.017441 0.017441 0.000000
-0.024665 0.000000 0.000000
-0.017441 -0.017441 0.000000
-0.000000 -0.024665 0.000000
0.035184 -0.035184 0.002528
0.049758 0.000000 0.002528
0.035184 0.035184 0.002528
0.000000 0.049758 0.002528
-0.035184 0.035184 0.002528
-0.049758 0.000000 0.002528
-0.035184 -0.035184 0.002528
-0.000000 -0.049758 0.002528
0.070223 -0.070223 0.006557
0.099310 0.000000 0.006557
0.070223 0.070223 0.006557
0.000000 0.099310 0.006557
-0.070223 0.070223 0.006557
-0.099310 0.000000 0.006557
-0.070223 -0.070223 0.006557
-0.000000 -0.099310 0.006557
0.079801 -0.079801 0.012968
0.112856 0.000000 0.012968
0.079801 0.079801 0.012968
0.000000 0.112856 0.012968
-0.079801 0.079801 0.012968
-0.112856 0.000000 0.012968
-0.079801 -0.079801 0.012968
-0.000000 -0.112856 0.012968
0.088396 -0.088396 0.024406
0.125011 0.000000 0.024406
0.088396 0.088396 0.024406
0.000000 0.125011 0.024406
-0.088396 0.088396 0.024406
-0.125011 0.000000 0.024406
-0.088396 -0.088396 0.024406
-0.000000 -0.125011 0.024406
0.093704 -0.093704 0.035795
0.132518 0.000000 0.035795
0.093704 0.093704 0.035795
0.000000 0.132518 0.035795
-0.093704 0.093704 0.035795
-0.132518 0.000000 0.035795
-0.093704 -0.093704 0.035795
-0.000000 -0.132518 0.035795
0.099484 -0.099484 0.055174
0.140692 0.000000 0.055174
0.099484 0.099484 0.055174
0.000000 0.140692 0.055174
-0.099484 0.099484 0.055174
-0.140692 0.000000 0.055174
-0.099484 -0.099484 0.055174
-0.000000 -0.140692 0.055174
0.099156 -0.099156 0.079987
0.140228 0.000000 0.079987
0.099156 0.099156 0.079987
0.000000 0.140228 0.079987
-0.099156 0.099156 0.079987
-0.140228 0.000000 0.079987
-0.099156 -0.099156 0.079987
-0.000000 -0.140228 0.079987
0.098544 -0.098544 0.085224
0.139362 0.000000 0.085224
0.098544 0.098544 0.085224
0.000000 0.139362 0.085224
-0.098544 0.098544 0.085224
-0.139362 0.000000 0.085224
-0.098544 -0.098544 0.085224
-0.000000 -0.139362 0.085224
0.096400 -0.096400 0.088248
0.136329 0.000000 0.088248
0.096400 0.096400 0.088248
0.000000 0.136329 0.088248
-0.096400 0.096400 0.088248
-0.136329 0.000000 0.088248
-0.096400 -0.096400 0.088248
-0.000000 -0.136329 0.088248
0.094705 -0.094705 0.090541
0.133932 0.000000 0.090541
0.094705 0.094705 0.090541
0.000000 0.133932 0.090541
-0.094705 0.094705 0.090541
-0.133932 0.000000 0.090541
-0.094705 -0.094705 0.090541
-0.000000 -0.133932 0.090541
0.094929 -0.094929 0.101432
0.134250 0.000000 0.101432
0.094929 0.094929 0.101432
0.000000 0.134250 0.101432
-0.094929 0.094929 0.101432
-0.134250 0.000000 0.101432
-0.094929 -0.094929 0.101432
-0.000000 -0.134250 0.101432
0.095297 -0.095297 0.162410
0.134771 0.000000 0.162410
0.095297 0.095297 0.162410
0.000000 0.134771 0.162410
-0.095297 0.095297 0.162410
-0.134771 0.000000 0.162410
-0.095297 -0.095297 0.162410
-0.000000 -0.134771 0.162410
0.096096 -0.096096 0.165719
0.135901 0.000000 0.165719
0.096096 0.096096 0.165719
0.000000 0.135901 0.165719
-0.096096 0.096096 0.165719
-0.135901 0.000000 0.165719
-0.096096 -0.096096 0.165719
-0.000000 -0.135901 0.165719
0.099707 -0.099707 0.169055
0.141007 0.000000 0.169055
0.099707 0.099707 0.169055
0.000000 0.141007 0.169055
-0.099707 0.099707 0.169055
-0.141007 0.000000 0.169055
-0.099707 -0.099707 0.169055
-0.000000 -0.141007 0.169055
0.100850 -0.100850 0.177962
0.142623 0.000000 0.177962
0.100850 0.100850 0.177962
0.000000 0.142623 0.177962
-0.100850 0.100850 0.177962
-0.142623 0.000000 0.177962
-0.100850 -0.100850 0.177962
-0.000000 -0.142623 0.177962
0.100850 -0.100850 0.195811
0.142623 0.000000 0.195811
0.100850 0.100850 0.195811
0.000000 0.142623 0.195811
-0.100850 0.100850 0.195811
-0.142623 0.000000 0.195811
-0.100850 -0.100850 0.195811
-0.000000 -0.142623 0.195811
0.100176 -0.100176 0.201360
0.141670 0.000000 0.201360
0.100176 0.100176 0.201360
0.000000 0.141670 0.201360
-0.100176 0.100176 0.201360
-0.141670 0.000000 0.201360
-0.100176 -0.100176 0.201360
-0.000000 -0.141670 0.201360
0.097339 -0.097339 0.204749
0.137658 0.000000 0.204749
0.097339 0.097339 0.204749
0.000000 0.137658 0.204749
-0.097339 0.097339 0.204749
-0.137658 0.000000 0.204749
-0.097339 -0.097339 0.204749
-0.000000 -0.137658 0.204749
0.096155 -0.096155 0.207697
0.135983 0.000000 0.207697
0.096155 0.096155 0.207697
0.000000 0.135983 0.207697
-0.096155 0.096155 0.207697
-0.135983 0.000000 0.207697
-0.096155 -0.096155 0.207697
-0.000000 -0.135983 0.207697
0.096174 -0.096174 0.224214
0.136011 0.000000 0.224214
0.096174 0.096174 0.224214
0.000000 0.136011 0.224214
-0.096174 0.096174 0.224214
-0.136011 0.000000 0.224214
-0.096174 -0.096174 0.224214
-0.000000 -0.136011 0.224214
0.096951 -0.096951 0.266243
0.137109 0.000000 0.266243
0.096951 0.096951 0.266243
0.000000 0.137109 0.266243
-0.096951 0.096951 0.266243
-0.137109 0.000000 0.266243
-0.096951 -0.096951 0.266243
-0.000000 -0.137109 0.266243
0.097197 -0.097197 0.284224
0.137457 0.000000 0.284224
0.097197 0.097197 0.284224
0.000000 0.137457 0.284224
-0.097197 0.097197 0.284224
-0.137457 0.000000 0.284224
-0.097197 -0.097197 0.284224
-0.000000 -0.137457 0.284224
0.098115 -0.098115 0.287143
0.138755 0.000000 0.287143
0.098115 0.098115 0.287143
0.000000 0.138755 0.287143
-0.098115 0.098115 0.287143
-0.138755 0.000000 0.287143
-0.098115 -0.098115 0.287143
-0.000000 -0.138755 0.287143
0.101279 -0.101279 0.289906
0.143230 0.000000 0.289906
0.101279 0.101279 0.289906
0.000000 0.143230 0.289906
-0.101279 0.101279 0.289906
-0.143230 0.000000 0.289906
-0.101279 -0.101279 0.289906
-0.000000 -0.143230 0.289906
0.102483 -0.102483 0.295843
0.144933 0.000000 0.295843
0.102483 0.102483 0.295843
0.000000 0.144933 0.295843
-0.102483 0.102483 0.295843
-0.144933 0.000000 0.295843
-0.102483 -0.102483 0.295843
-0.000000 -0.144933 0.295843
0.102483 -0.102483 0.319059
0.144933 0.000000 0.319059
0.102483 0.102483 0.319059
0.000000 0.144933 0.319059
-0.102483 0.102483 0.319059
-0.144933 0.000000 0.319059
-0.102483 -0.102483 0.319059
-0.000000 -0.144933 0.319059
0.101543 -0.101543 0.324088
0.143604 0.000000 0.324088
0.101543 0.101543 0.324088
0.000000 0.143604 0.324088
-0.101543 0.101543 0.324088
-0.143604 0.000000 0.324088
-0.101543 -0.101543 0.324088
-0.000000 -0.143604 0.324088
0.098809 -0.098809 0.330184
0.139736 0.000000 0.330184
0.098809 0.098809 0.330184
0.000000 0.139736 0.330184
-0.098809 0.098809 0.330184
-0.139736 0.000000 0.330184
-0.098809 -0.098809 0.330184
-0.000000 -0.139736 0.330184
0.093847 -0.093847 0.334067
0.132720 0.000000 0.334067
0.093847 0.093847 0.334067
0.000000 0.132720 0.334067
-0.093847 0.093847 0.334067
-0.132720 0.000000 0.334067
-0.093847 -0.093847 0.334067
-0.000000 -0.132720 0.334067
0.090417 -0.090417 0.337953
0.127869 0.000000 0.337953
0.090417 0.090417 0.337953
0.000000 0.127869 0.337953
-0.090417 0.090417 0.337953
-0.127869 0.000000 0.337953
-0.090417 -0.090417 0.337953
-0.000000 -0.127869 0.337953
0.088415 -0.088415 0.346786
0.125038 0.000000 0.346786
0.088415 0.088415 0.346786
0.000000 0.125038 0.346786
-0.088415 0.088415 0.346786
-0.125038 0.000000 0.346786
-0.088415 -0.088415 0.346786
-0.000000 -0.125038 0.346786
0.086169 -0.086169 0.355098
0.121862 0.000000 0.355098
0.086169 0.086169 0.355098
0.000000 0.121862 0.355098
-0.086169 0.086169 0.355098
-0.121862 0.000000 0.355098
-0.086169 -0.086169 0.355098
-0.000000 -0.121862 0.355098
0.081902 -0.081902 0.361689
0.115827 0.000000 0.361689
0.081902 0.081902 0.361689
0.000000 0.115827 0.361689
-0.081902 0.081902 0.361689
-0.115827 0.000000 0.361689
-0.081902 -0.081902 0.361689
-0.000000 -0.115827 0.361689
0.068201 -0.068201 0.371148
0.096451 0.000000 0.371148
0.068201 0.068201 0.371148
0.000000 0.096451 0.371148
-0.068201 0.068201 0.371148
-0.096451 0.000000 0.371148
-0.068201 -0.068201 0.371148
-0.000000 -0.096451 0.371148
0.054950 -0.054950 0.380035
0.077710 0.000000 0.380035
0.054950 0.054950 0.380035
0.000000 0.077710 0.380035
-0.054950 0.054950 0.380035
-0.077710 0.000000 0.380035
-0.054950 -0.054950 0.380035
-0.000000 -0.077710 0.380035
0.036757 -0.036757 0.391500
0.051982 0.000000 0.391500
0.036757 0.036757 0.391500
0.000000 0.051982 0.391500
-0.036757 0.036757 0.391500
-0.051982 0.000000 0.391500
-0.036757 -0.036757 0.391500
-0.000000 -0.051982 0.391500
0.024853 -0.024853 0.399523
0.035147 0.000000 0.399523
0.024853 0.024853 0.399523
0.000000 0.035147 0.399523
-0.024853 0.024853 0.399523
-0.035147 0.000000 0.399523
-0.024853 -0.024853 0.399523
-0.000000 -0.035147 0.399523
0.021976 -0.021976 0.404082
0.031078 0.000000 0.404082
0.021976 0.021976 0.404082
0.000000 0.031078 0.404082
-0.021976 0.021976 0.404082
-0.031078 0.000000 0.404082
-0.021976 -0.021976 0.404082
-0.000000 -0.031078 0.404082
0.022423 -0.022423 0.409556
0.031711 0.000000 0.409556
0.022423 0.022423 0.409556
0.000000 0.031711 0.409556
-0.022423 0.022423 0.409556
-0.031711 0.000000 0.409556
-0.022423 -0.022423 0.409556
-0.000000 -0.031711 0.409556
0.022648 -0.022648 0.417582
0.032029 0.000000 0.417582
0.022648 0.022648 0.417582
0.000000 0.032029 0.417582
-0.022648 0.022648 0.417582
-0.032029 0.000000 0.417582
-0.022648 -0.022648 0.417582
-0.000000 -0.032029 0.417582
0.022382 -0.022382 0.424459
0.031653 0.000000 0.424459
0.022382 0.022382 0.424459
0.000000 0.031653 0.424459
-0.022382 0.022382 0.424459
-0.031653 0.000000 0.424459
-0.022382 -0.022382 0.424459
-0.000000 -0.031653 0.424459
0.020361 -0.020361 0.430479
0.028794 0.000000 0.430479
0.020361 0.020361 0.430479
0.000000 0.028794 0.430479
-0.020361 0.020361 0.430479
-0.028794 0.000000 0.430479
-0.020361 -0.020361 0.430479
-0.000000 -0.028794 0.430479
0.021034 -0.021034 0.436499
0.029747 0.000000 0.436499
0.021034 0.021034 0.436499
0.000000 0.029747 0.436499
-0.021034 0.021034 0.436499
-0.029747 0.000000 0.436499
-0.021034 -0.021034 0.436499
-0.000000 -0.029747 0.436499
0.022831 -0.022831 0.443379
0.032288 0.000000 0.443379
0.022831 0.022831 0.443379
0.000000 0.032288 0.443379
-0.022831 0.022831 0.443379
-0.032288 0.000000 0.443379
-0.022831 -0.022831 0.443379
-0.000000 -0.032288 0.443379
0.022831 -0.022831 0.451116
0.032288 0.000000 0.451116
0.022831 0.022831 0.451116
0.000000 0.032288 0.451116
-0.022831 0.022831 0.451116
-0.032288 0.000000 0.451116
-0.022831 -0.022831 0.451116
-0.000000 -0.032288 0.451116
0.022157 -0.022157 0.457708
0.031335 0.000000 0.457708
0.022157 0.022157 0.457708
0.000000 0.031335 0.457708
-0.022157 0.022157 0.457708
-0.031335 0.000000 0.457708
-0.022157 -0.022157 0.457708
-0.000000 -0.031335 0.457708
0.021484 -0.021484 0.462010
0.030382 0.000000 0.462010
0.021484 0.021484 0.462010
0.000000 0.030382 0.462010
-0.021484 0.021484 0.462010
-0.030382 0.000000 0.462010
-0.021484 -0.021484 0.462010
-0.000000 -0.030382 0.462010
0.023954 -0.023954 0.467169
0.033876 0.000000 0.467169
0.023954 0.023954 0.467169
0.000000 0.033876 0.467169
-0.023954 0.023954 0.467169
-0.033876 0.000000 0.467169
-0.023954 -0.023954 0.467169
-0.000000 -0.033876 0.467169
0.023953 -0.023953 0.472329
0.033874 0.000000 0.472329
0.023953 0.023953 0.472329
0.000000 0.033874 0.472329
-0.023953 0.023953 0.472329
-0.033874 0.000000 0.472329
-0.023953 -0.023953 0.472329
-0.000000 -0.033874 0.472329
0.022237 -0.022237 0.472043
0.031448 0.000000 0.472043
0.022237 0.022237 0.472043
0.000000 0.031448 0.472043
-0.022237 0.022237 0.472043
-0.031448 0.000000 0.472043
-0.022237 -0.022237 0.472043
-0.000000 -0.031448 0.472043
0.020911 -0.020911 0.471548
0.029573 0.000000 0.471548
0.020911 0.020911 0.471548
0.000000 0.029573 0.471548
-0.020911 0.020911 0.471548
-0.029573 0.000000 0.471548
-0.020911 -0.020911 0.471548
-0.000000 -0.029573 0.471548
0.021630 -0.021630 0.467268
0.030589 0.000000 0.467268
0.021630 0.021630 0.467268
0.000000 0.030589 0.467268
-0.021630 0.021630 0.467268
-0.030589 0.000000 0.467268
-0.021630 -0.021630 0.467268
-0.000000 -0.030589 0.467268
0.019395 -0.019395 0.462378
0.027428 0.000000 0.462378
0.019395 0.019395 0.462378
0.000000 0.027428 0.462378
-0.019395 0.019395 0.462378
-0.027428 0.000000 0.462378
-0.019395 -0.019395 0.462378
-0.000000 -0.027428 0.462378
0.020113 -0.020113 0.457489
0.028444 0.000000 0.457489
0.020113 0.020113 0.457489
0.000000 0.028444 0.457489
-0.020113 0.020113 0.457489
-0.028444 0.000000 0.457489
-0.020113 -0.020113 0.457489
-0.000000 -0.028444 0.457489
0.020831 -0.020831 0.450764
0.029460 0.000000 0.450764
0.020831 0.020831 0.450764
0.000000 0.029460 0.450764
-0.020831 0.020831 0.450764
-0.029460 0.000000 0.450764
-0.020831 -0.020831 0.450764
-0.000000 -0.029460 0.450764
0.020831 -0.020831 0.443227
0.029460 0.000000 0.443227
0.020831 0.020831 0.443227
0.000000 0.029460 0.443227
-0.020831 0.020831 0.443227
-0.029460 0.000000 0.443227
-0.020831 -0.020831 0.443227
-0.000000 -0.029460 0.443227
0.019235 -0.019235 0.437626
0.027202 0.000000 0.437626
0.019235 0.019235 0.437626
0.000000 0.027202 0.437626
-0.019235 0.019235 0.437626
-0.027202 0.000000 0.437626
-0.019235 -0.019235 0.437626
-0.000000 -0.027202 0.437626
0.018197 -0.018197 0.430698
0.025735 0.000000 0.430698
0.018197 0.018197 0.430698
0.000000 0.025735 0.430698
-0.018197 0.018197 0.430698
-0.025735 0.000000 0.430698
-0.018197 -0.018197 0.430698
-0.000000 -0.025735 0.430698
0.019953 -0.019953 0.423059
0.028218 0.000000 0.423059
0.019953 0.019953 0.423059
0.000000 0.028218 0.423059
-0.019953 0.019953 0.423059
-0.028218 0.000000 0.423059
-0.019953 -0.019953 0.423059
-0.000000 -0.028218 0.423059
0.020512 -0.020512 0.417760
0.029009 0.000000 0.417760
0.020512 0.020512 0.417760
0.000000 0.029009 0.417760
-0.020512 0.020512 0.417760
-0.029009 0.000000 0.417760
-0.020512 -0.020512 0.417760
-0.000000 -0.029009 0.417760
0.020432 -0.020432 0.409816
0.028896 0.000000 0.409816
0.020432 0.020432 0.409816
0.000000 0.028896 0.409816
-0.020432 0.020432 0.409816
-0.028896 0.000000 0.409816
-0.020432 -0.020432 0.409816
-0.000000 -0.028896 0.409816
0.019943 -0.019943 0.403193
0.028204 0.000000 0.403193
0.019943 0.019943 0.403193
0.000000 0.028204 0.403193
-0.019943 0.019943 0.403193
-0.028204 0.000000 0.403193
-0.019943 -0.019943 0.403193
-0.000000 -0.028204 0.403193
0.023945 -0.023945 0.397694
0.033863 0.000000 0.397694
0.023945 0.023945 0.397694
0.000000 0.033863 0.397694
-0.023945 0.023945 0.397694
-0.033863 0.000000 0.397694
-0.023945 -0.023945 0.397694
-0.000000 -0.033863 0.397694
0.036477 -0.036477 0.389747
0.051586 0.000000 0.389747
0.036477 0.036477 0.389747
0.000000 0.051586 0.389747
-0.036477 0.036477 0.389747
-0.051586 0.000000 0.389747
-0.036477 -0.036477 0.389747
-0.000000 -0.051586 0.389747
0.054118 -0.054118 0.378441
0.076535 0.000000 0.378441
0.054118 0.054118 0.378441
0.000000 0.076535 0.378441
-0.054118 0.054118 0.378441
-0.076535 0.000000 0.378441
-0.054118 -0.054118 0.378441
-0.000000 -0.076535 0.378441
0.067688 -0.067688 0.369678
0.095726 0.000000 0.369678
0.067688 0.067688 0.369678
0.000000 0.095726 0.369678
-0.067688 0.067688 0.369678
-0.095726 0.000000 0.369678
-0.067688 -0.067688 0.369678
-0.000000 -0.095726 0.369678
0.080719 -0.080719 0.360207
0.114153 0.000000 0.360207
0.080719 0.080719 0.360207
0.000000 0.114153 0.360207
-0.080719 0.080719 0.360207
-0.114153 0.000000 0.360207
-0.080719 -0.080719 0.360207
-0.000000 -0.114153 0.360207
0.084827 -0.084827 0.354298
0.119964 0.000000 0.354298
0.084827 0.084827 0.354298
0.000000 0.119964 0.354298
-0.084827 0.084827 0.354298
-0.119964 0.000000 0.354298
-0.084827 -0.084827 0.354298
-0.000000 -0.119964 0.354298
0.086766 -0.086766 0.346757
0.122706 0.000000 0.346757
0.086766 0.086766 0.346757
0.000000 0.122706 0.346757
-0.086766 0.086766 0.346757
-0.122706 0.000000 0.346757
-0.086766 -0.086766 0.346757
-0.000000 -0.122706 0.346757
0.088555 -0.088555 0.336817
0.125236 0.000000 0.336817
0.088555 0.088555 0.336817
0.000000 0.125236 0.336817
-0.088555 0.088555 0.336817
-0.125236 0.000000 0.336817
-0.088555 -0.088555 0.336817
-0.000000 -0.125236 0.336817
0.092833 -0.092833 0.331987
0.131286 0.000000 0.331987
0.092833 0.092833 0.331987
0.000000 0.131286 0.331987
-0.092833 0.092833 0.331987
-0.131286 0.000000 0.331987
-0.092833 -0.092833 0.331987
-0.000000 -0.131286 0.331987
0.096435 -0.096435 0.328196
0.136380 0.000000 0.328196
0.096435 0.096435 0.328196
0.000000 0.136380 0.328196
-0.096435 0.096435 0.328196
-0.136380 0.000000 0.328196
-0.096435 -0.096435 0.328196
-0.000000 -0.136380 0.328196
0.098449 -0.098449 0.324072
0.139229 0.000000 0.324072
0.098449 0.098449 0.324072
0.000000 0.139229 0.324072
-0.098449 0.098449 0.324072
-0.139229 0.000000 0.324072
-0.098449 -0.098449 0.324072
-0.000000 -0.139229 0.324072
0.099822 -0.099822 0.319021
0.141169 0.000000 0.319021
0.099822 0.099822 0.319021
0.000000 0.141169 0.319021
-0.099822 0.099822 0.319021
-0.141169 0.000000 0.319021
-0.099822 -0.099822 0.319021
-0.000000 -0.141169 0.319021
0.099351 -0.099351 0.296796
0.140504 0.000000 0.296796
0.099351 0.099351 0.296796
0.000000 0.140504 0.296796
-0.099351 0.099351 0.296796
-0.140504 0.000000 0.296796
-0.099351 -0.099351 0.296796
-0.000000 -0.140504 0.296796
0.099127 -0.099127 0.292811
0.140187 0.000000 0.292811
0.099127 0.099127 0.292811
0.000000 0.140187 0.292811
-0.099127 0.099127 0.292811
-0.140187 0.000000 0.292811
-0.099127 -0.099127 0.292811
-0.000000 -0.140187 0.292811
0.096999 -0.096999 0.290485
0.137177 0.000000 0.290485
0.096999 0.096999 0.290485
0.000000 0.137177 0.290485
-0.096999 0.096999 0.290485
-0.137177 0.000000 0.290485
-0.096999 -0.096999 0.290485
-0.000000 -0.137177 0.290485
0.094909 -0.094909 0.286963
0.134221 0.000000 0.286963
0.094909 0.094909 0.286963
0.000000 0.134221 0.286963
-0.094909 0.094909 0.286963
-0.134221 0.000000 0.286963
-0.094909 -0.094909 0.286963
-0.000000 -0.134221 0.286963
0.094430 -0.094430 0.266997
0.133544 0.000000 0.266997
0.094430 0.094430 0.266997
0.000000 0.133544 0.266997
-0.094430 0.094430 0.266997
-0.133544 0.000000 0.266997
-0.094430 -0.094430 0.266997
-0.000000 -0.133544 0.266997
0.094110 -0.094110 0.225537
0.133092 0.000000 0.225537
0.094110 0.094110 0.225537
0.000000 0.133092 0.225537
-0.094110 0.094110 0.225537
-0.133092 0.000000 0.225537
-0.094110 -0.094110 0.225537
-0.000000 -0.133092 0.225537
0.093791 -0.093791 0.210053
0.132641 0.000000 0.210053
0.093791 0.093791 0.210053
0.000000 0.132641 0.210053
-0.093791 0.093791 0.210053
-0.132641 0.000000 0.210053
-0.093791 -0.093791 0.210053
-0.000000 -0.132641 0.210053
0.094744 -0.094744 0.203904
0.133988 0.000000 0.203904
0.094744 0.094744 0.203904
0.000000 0.133988 0.203904
-0.094744 0.094744 0.203904
-0.133988 0.000000 0.203904
-0.094744 -0.094744 0.203904
-0.000000 -0.133988 0.203904
0.097646 -0.097646 0.200484
0.138093 0.000000 0.200484
0.097646 0.097646 0.200484
0.000000 0.138093 0.200484
-0.097646 0.097646 0.200484
-0.138093 0.000000 0.200484
-0.097646 -0.097646 0.200484
-0.000000 -0.138093 0.200484
0.098022 -0.098022 0.196301
0.138624 0.000000 0.196301
0.098022 0.098022 0.196301
0.000000 0.138624 0.196301
-0.098022 0.098022 0.196301
-0.138624 0.000000 0.196301
-0.098022 -0.098022 0.196301
-0.000000 -0.138624 0.196301
0.097909 -0.097909 0.178983
0.138465 0.000000 0.178983
0.097909 0.097909 0.178983
0.000000 0.138465 0.178983
-0.097909 0.097909 0.178983
-0.138465 0.000000 0.178983
-0.097909 -0.097909 0.178983
-0.000000 -0.138465 0.178983
0.097417 -0.097417 0.174059
0.137768 0.000000 0.174059
0.097417 0.097417 0.174059
0.000000 0.137768 0.174059
-0.097417 0.097417 0.174059
-0.137768 0.000000 0.174059
-0.097417 -0.097417 0.174059
-0.000000 -0.137768 0.174059
0.096709 -0.096709 0.170329
0.136766 0.000000 0.170329
0.096709 0.096709 0.170329
0.000000 0.136766 0.170329
-0.096709 0.096709 0.170329
-0.136766 0.000000 0.170329
-0.096709 -0.096709 0.170329
-0.000000 -0.136766 0.170329
0.093519 -0.093519 0.167267
0.132256 0.000000 0.167267
0.093519 0.093519 0.167267
0.000000 0.132256 0.167267
-0.093519 0.093519 0.167267
-0.132256 0.000000 0.167267
-0.093519 -0.093519 0.167267
-0.000000 -0.132256 0.167267
0.093205 -0.093205 0.164407
0.131812 0.000000 0.164407
0.093205 0.093205 0.164407
0.000000 0.131812 0.164407
-0.093205 0.093205 0.164407
-0.131812 0.000000 0.164407
-0.093205 -0.093205 0.164407
-0.000000 -0.131812 0.164407
0.092753 -0.092753 0.101972
0.131173 0.000000 0.101972
0.092753 0.092753 0.101972
0.000000 0.131173 0.101972
-0.092753 0.092753 0.101972
-0.131173 0.000000 0.101972
-0.092753 -0.092753 0.101972
-0.000000 -0.131173 0.101972
0.092434 -0.092434 0.090868
0.130721 0.000000 0.090868
0.092434 0.092434 0.090868
0.000000 0.130721 0.090868
-0.092434 0.092434 0.090868
-0.130721 0.000000 0.090868
-0.092434 -0.092434 0.090868
-0.000000 -0.130721 0.090868
0.094313 -0.094313 0.087099
0.133379 0.000000 0.087099
0.094313 0.094313 0.087099
0.000000 0.133379 0.087099
-0.094313 0.094313 0.087099
-0.133379 0.000000 0.087099
-0.094313 -0.094313 0.087099
-0.000000 -0.133379 0.087099
0.095952 -0.095952 0.084192
0.135697 0.000000 0.084192
0.095952 0.095952 0.084192
0.000000 0.135697 0.084192
-0.095952 0.095952 0.084192
-0.135697 0.000000 0.084192
-0.095952 -0.095952 0.084192
-0.000000 -0.135697 0.084192
0.096530 -0.096530 0.079631
0.136514 0.000000 0.079631
0.096530 0.096530 0.079631
0.000000 0.136514 0.079631
-0.096530 0.096530 0.079631
-0.136514 0.000000 0.079631
-0.096530 -0.096530 0.079631
-0.000000 -0.136514 0.079631
0.096603 -0.096603 0.055395
0.136618 0.000000 0.055395
0.096603 0.096603 0.055395
0.000000 0.136618 0.055395
-0.096603 0.096603 0.055395
-0.136618 0.000000 0.055395
-0.096603 -0.096603 0.055395
-0.000000 -0.136618 0.055395
0.090322 -0.090322 0.036063
0.127734 0.000000 0.036063
0.090322 0.090322 0.036063
0.000000 0.127734 0.036063
-0.090322 0.090322 0.036063
-0.127734 0.000000 0.036063
-0.090322 -0.090322 0.036063
-0.000000 -0.127734 0.036063
0.086877 -0.086877 0.027538
0.122863 0.000000 0.027538
0.086877 0.086877 0.027538
0.000000 0.122863 0.027538
-0.086877 0.086877 0.027538
-0.122863 0.000000 0.027538
-0.086877 -0.086877 0.027538
-0.000000 -0.122863 0.027538
0.078311 -0.078311 0.017359
0.110749 0.000000 0.017359
0.078311 0.078311 0.017359
0.000000 0.110749 0.017359
-0.078311 0.078311 0.017359
-0.110749 0.000000 0.017359
-0.078311 -0.078311 0.017359
-0.000000 -0.110749 0.017359
0.069684 -0.069684 0.010753
0.098548 0.000000 0.010753
0.069684 0.069684 0.010753
0.000000 0.098548 0.010753
-0.069684 0.069684 0.010753
-0.098548 0.000000 0.010753
-0.069684 -0.069684 0.010753
-0.000000 -0.098548 0.010753
0.034881 -0.034881 0.005969
0.049329 0.000000 0.005969
0.034881 0.034881 0.005969
0.000000 0.049329 0.005969
-0.034881 0.034881 0.005969
-0.049329 0.000000 0.005969
-0.034881 -0.034881 0.005969
-0.000000 -0.049329 0.005969
0.017638 -0.017638 0.003900
0.024945 0.000000 0.003900
0.017638 0.017638 0.003900
0.000000 0.024945 0.003900
-0.017638 0.017638 0.003900
-0.024945 0.000000 0.003900
-0.017638 -0.017638 0.003900
-0.000000 -0.024945 0.003900
0.000000 0.000000 0.000000
0.000000 0.000000 0.003900
3 0 8 9
3 0 9 1
3 1 9 10
3 1 10 2
3 2 10 11
3 2 11 3
3 3 11 12
3 3 12 4
3 4 12 13
3 4 13 5
3 5 13 14
3 5 14 6
3 6 14 15
3 6 15 7
3 7 15 8
3 7 8 0
3 9 8 16
3 9 16 17
3 10 9 17
3 10 17 18
3 11 10 18
3 11 18 19
3 12 11 19
3 12 19 20
3 13 12 20
3 13 20 21
3 14 13 21
3 14 21 22
3 15 14 22
3 15 22 23
3 8 15 23
3 8 23 16
3 16 24 25
3 16 25 17
3 17 25 26
3 17 26 18
3 18 26 27
3 18 27 19
3 19 27 28
3 19 28 20
3 20 28 29
3 20 29 21
3 21 29 30
3 21 30 22
3 22 30 31
3 22 31 23
3 23 31 24
3 23 24 16
3 24 32 33
3 24 33 25
3 25 33 34
3 25 34 26
3 26 34 35
3 26 35 27
3 27 35 36
3 27 36 28
3 28 36 37
3 28 37 29
3 29 37 38
3 29 38 30
3 30 38 39
3 30 39 31
3 31 39 32
3 31 32 24
3 32 40 41
3 32 41 33
3 33 41 42
3 33 42 34
3 34 42 43
3 34 43 35
3 35 43 44
3 35 44 36
3 36 44 45
3 36 45 37
3 37 45 46
3 37 46 38
3 38 46 47
3 38 47 39
3 39 47 40
3 39 40 32
3 40 48 49
3 40 49 41
3 41 49 50
3 41 50 42
3 42 50 51
3 42 51 43
3 43 51 52
3 43 52 44
3 44 52 53
3 44 53 45
3 45 53 54
3 45 54 46
3 46 54 55
3 46 55 47
3 47 55 48
3 47 48 40
3 48 56 57
3 48 57 49
3 49 57 58
3 49 58 50
3 50 58 59
3 50 59 51
3 51 59 60
3 51 60 52
3 52 60 61
3 52 61 53
3 53 61 62
3 53 62 54
3 54 62 63
3 54 63 55
3 55 63 56
3 55 56 48
3 56 64 65
3 56 65 57
3 57 65 66
3 57 66 58
3 58 66 67
3 58 67 59
3 59 67 68
3 59 68 60
3 60 68 69
3 60 69 61
3 61 69 70
3 61 70 62
3 62 70 71
3 62 71 63
3 63 71 64
3 63 64 56
3 64 72 73
3 64 73 65
3 65 73 74
3 65 74 66
3 66 74 75
3 66 75 67
3 67 75 76
3 67 76 68
3 68 76 77
3 68 77 69
3 69 77 78
3 69 78 70
3 70 78 79
3 70 79 71
3 71 79 72
3 71 72 64
3 72 80 81
3 72 81 73
3 73 81 82
3 73 82 74
3 74 82 83
3 74 83 75
3 75 83 84
3 75 84 76
3 76 84 85
3 76 85 77
3 77 85 86
3 77 86 78
3 78 86 87
3 78 87 79
3 79 87 80
3 79 80 72
3 80 88 89
3 80 89 81
3 81 89 90
3 81 90 82
3 82 90 91
3 82 91 83
3 83 91 92
3 83 92 84
3 84 92 93
3 84 93 85
3 85 93 94
3 85 94 86
3 86 94 95
3 86 95 87
3 87 95 88
3 87 88 80
3 88 96 97
3 88 97 89
3 89 97 98
3 89 98 90
3 90 98 99
3 90 99 91
3 91 99 100
3 91 100 92
3 92 100 101
3 92 101 93
3 93 101 102
3 93 102 94
3 94 102 103
3 94 103 95
3 95 103 96
3 95 96 88
3 96 104 105
3 96 105 97
3 97 105 106
3 97 106 98
3 98 106 107
3 98 107 99
3 99 107 108
3 99 108 100
3 100 108 109
3 100 109 101
3 101 109 110
3 101 110 102
3 102 110 111
3 102 111 103
3 103 111 104
3 103 104 96
3 104 112 113
3 104 113 105
3 105 113 114
3 105 114 106
3 106 114 115
3 106 115 107
3 107 115 116
3 107 116 108
3 108 116 117
3 108 117 109
3 109 117 118
3 109 118 110
3 110 118 119
3 110 119 111
3 111 119 112
3 111 112 104
3 112 120 121
3 112 121 113
3 113 121 122
3 113 122 114
3 114 122 123
3 114 123 115
3 115 123 124
3 115 124 116
3 116 124 125
3 116 125 117
3 117 125 126
3 117 126 118
3 118 126 127
3 118 127 119
3 119 127 120
3 119 120 112
3 121 120 128
3 121 128 129
3 122 121 129
3 122 129 130
3 123 122 130
3 123 130 131
3 124 123 131
3 124 131 132
3 125 124 132
3 125 132 133
3 126 125 133
3 126 133 134
3 127 126 134
3 127 134 135
3 120 127 135
3 120 135 128
3 128 136 137
3 128 137 129
3 129 137 138
3 129 138 130
3 130 138 139
3 130 139 131
3 131 139 140
3 131 140 132
3 132 140 141
3 132 141 133
3 133 141 142
3 133 142 134
3 134 142 143
3 134 143 135
3 135 143 136
3 135 136 128
3 136 144 145
3 136 145 137
3 137 145 146
3 137 146 138
3 138 146 147
3 138 147 139
3 139 147 148
3 139 148 140
3 140 148 149
3 140 149 141
3 141 149 150
3 141 150 142
3 142 150 151
3 142 151 143
3 143 151 144
3 143 144 136
3 144 152 153
3 144 153 145
3 145 153 154
3 145 154 146
3 146 154 155
3 146 155 147
3 147 155 156
3 147 156 148
3 148 156 157
3 148 157 149
3 149 157 158
3 149 158 150
3 150 158 159
3 150 159 151
3 151 159 152
3 151 152 144
3 152 160 161
3 152 161 153
3 153 161 162
3 153 162 154
3 154 162 163
3 154 163 155
3 155 163 164
3 155 164 156
3 156 164 165
3 156 165 157
3 157 165 166
3 157 166 158
3 158 166 167
3 158 167 159
3 159 167 160
3 159 160 152
3 160 168 169
3 160 169 161
3 161 169 170
3 161 170 162
3 162 170 171
3 162 171 163
3 163 171 172
3 163 172 164
3 164 172 173
3 164 173 165
3 165 173 174
3 165 174 166
3 166 174 175
3 166 175 167
3 167 175 168
3 167 168 160
3 168 176 177
3 168 177 169
3 169 177 178
3 169 178 170
3 170 178 179
3 170 179 171
3 171 179 180
3 171 180 172
3 172 180 181
3 172 181 173
3 173 181 182
3 173 182 174
3 174 182 183
3 174 183 175
3 175 183 176
3 175 176 168
3 176 184 185
3 176 185 177
3 177 185 186
3 177 186 178
3 178 186 187
3 178 187 179
3 179 187 188
3 179 188 180
3 180 188 189
3 180 189 181
3 181 189 190
3 181 190 182
3 182 190 191
3 182 191 183
3 183 191 184
3 183 184 176
3 184 192 193
3 184 193 185
3 185 193 194
3 185 194 186
3 186 194 195
3 186 195 187
3 187 195 196
3 187 196 188
3 188 196 197
3 188 197 189
3 189 197 198
3 189 198 190
3 190 198 199
3 190 199 191
3 191 199 192
3 191 192 184
3 192 200 201
3 192 201 193
3 193 201 202
3 193 202 194
3 194 202 203
3 194 203 195
3 195 203 204
3 195 204 196
3 196 204 205
3 196 205 197
3 197 205 206
3 197 206 198
3 198 206 207
3 198 207 199
3 199 207 200
3 199 200 192
3 200 208 209
3 200 209 201
3 201 209 210
3 201 210 202
3 202 210 211
3 202 211 203
3 203 211 212
3 203 212 204
3 204 212 213
3 204 213 205
3 205 213 214
3 205 214 206
3 206 214 215
3 206 215 207
3 207 215 208
3 207 208 200
3 208 216 217
3 208 217 209
3 209 217 218
3 209 218 210
3 210 218 219
3 210 219 211
3 211 219 220
3 211 220 212
3 212 220 221
3 212 221 213
3 213 221 222
3 213 222 214
3 214 222 223
3 214 223 215
3 215 223 216
3 215 216 208
3 216 224 225
3 216 225 217
3 217 225 226
3 217 226 218
3 218 226 227
3 218 227 219
3 219 227 228
3 219 228 220
3 220 228 229
3 220 229 221
3 221 229 230
3 221 230 222
3 222 230 231
3 222 231 223
3 223 231 224
3 223 224 216
3 224 232 233
3 224 233 225
3 225 233 234
3 225 234 226
3 226 234 235
3 226 235 227
3 227 235 236
3 227 236 228
3 228 236 237
3 228 237 229
3 229 237 238
3 229 238 230
3 230 238 239
3 230 239 231
3 231 239 232
3 231 232 224
3 232 240 241
3 232 241 233
3 233 241 242
3 233 242 234
3 234 242 243
3 234 243 235
3 235 243 244
3 235 244 236
3 236 244 245
3 236 245 237
3 237 245 246
3 237 246 238
3 238 246 247
3 238 247 239
3 239 247 240
3 239 240 232
3 240 248 249
3 240 249 241
3 241 249 250
3 241 250 242
3 242 250 251
3 242 251 243
3 243 251 252
3 243 252 244
3 244 252 253
3 244 253 245
3 245 253 254
3 245 254 246
3 246 254 255
3 246 255 247
3 247 255 248
3 247 248 240
3 248 256 257
3 248 257 249
3 249 257 258
3 249 258 250
3 250 258 259
3 250 259 251
3 251 259 260
3 251 260 252
3 252 260 261
3 252 261 253
3 253 261 262
3 253 262 254
3 254 262 263
3 254 263 255
3 255 263 256
3 255 256 248
3 256 264 265
3 256 265 257
3 257 265 266
3 257 266 258
3 258 266 267
3 258 267 259
3 259 267 268
3 259 268 260
3 260 268 269
3 260 269 261
3 261 269 270
3 261 270 262
3 262 270 271
3 262 271 263
3 263 271 264
3 263 264 256
3 265 264 272
3 265 272 273
3 266 265 273
3 266 273 274
3 267 266 274
3 267 274 275
3 268 267 275
3 268 275 276
3 269 268 276
3 269 276 277
3 270 269 277
3 270 277 278
3 271 270 278
3 271 278 279
3 264 271 279
3 264 279 272
3 272 280 281
3 272 281 273
3 273 281 282
3 273 282 274
3 274 282 283
3 274 283 275
3 275 283 284
3 275 284 276
3 276 284 285
3 276 285 277
3 277 285 286
3 277 286 278
3 278 286 287
3 278 287 279
3 279 287 280
3 279 280 272
3 280 288 289
3 280 289 281
3 281 289 290
3 281 290 282
3 282 290 291
3 282 291 283
3 283 291 292
3 283 292 284
3 284 292 293
3 284 293 285
3 285 293 294
3 285 294 286
3 286 294 295
3 286 295 287
3 287 295 288
3 287 288 280
3 288 296 297
3 288 297 289
3 289 297 298
3 289 298 290
3 290 298 299
3 290 299 291
3 291 299 300
3 291 300 292
3 292 300 301
3 292 301 293
3 293 301 302
3 293 302 294
3 294 302 303
3 294 303 295
3 295 303 296
3 295 296 288
3 296 304 305
3 296 305 297
3 297 305 306
3 297 306 298
3 298 306 307
3 298 307 299
3 299 307 308
3 299 308 300
3 300 308 309
3 300 309 301
3 301 309 310
3 301 310 302
3 302 310 311
3 302 311 303
3 303 311 304
3 303 304 296
3 304 312 313
3 304 313 305
3 305 313 314
3 305 314 306
3 306 314 315
3 306 315 307
3 307 315 316
3 307 316 308
3 308 316 317
3 308 317 309
3 309 317 318
3 309 318 310
3 310 318 319
3 310 319 311
3 311 319 312
3 311 312 304
3 312 320 321
3 312 321 313
3 313 321 322
3 313 322 314
3 314 322 323
3 314 323 315
3 315 323 324
3 315 324 316
3 316 324 325
3 316 325 317
3 317 325 326
3 317 326 318
3 318 326 327
3 318 327 319
3 319 327 320
3 319 320 312
3 320 328 329
3 320 329 321
3 321 329 330
3 321 330 322
3 322 330 331
3 322 331 323
3 323 331 332
3 323 332 324
3 324 332 333
3 324 333 325
3 325 333 334
3 325 334 326
3 326 334 335
3 326 335 327
3 327 335 328
3 327 328 320
3 328 336 337
3 328 337 329
3 329 337 338
3 329 338 330
3 330 338 339
3 330 339 331
3 331 339 340
3 331 340 332
3 332 340 341
3 332 341 333
3 333 341 342
3 333 342 334
3 334 342 343
3 334 343 335
3 335 343 336
3 335 336 328
3 336 344 345
3 336 345 337
3 337 345 346
3 337 346 338
3 338 346 347
3 338 347 339
3 339 347 348
3 339 348 340
3 340 348 349
3 340 349 341
3 341 349 350
3 341 350 342
3 342 350 351
3 342 351 343
3 343 351 344
3 343 344 336
3 344 352 353
3 344 353 345
3 345 353 354
3 345 354 346
3 346 354 355
3 346 355 347
3 347 355 356
3 347 356 348
3 348 356 357
3 348 357 349
3 349 357 358
3 349 358 350
3 350 358 359
3 350 359 351
3 351 359 352
3 351 352 344
3 352 360 361
3 352 361 353
3 353 361 362
3 353 362 354
3 354 362 363
3 354 363 355
3 355 363 364
3 355 364 356
3 356 364 365
3 356 365 357
3 357 365 366
3 357 366 358
3 358 366 367
3 358 367 359
3 359 367 360
3 359 360 352
3 360 368 369
3 360 369 361
3 361 369 370
3 361 370 362
3 362 370 371
3 362 371 363
3 363 371 372
3 363 372 364
3 364 372 373
3 364 373 365
3 365 373 374
3 365 374 366
3 366 374 375
3 366 375 367
3 367 375 368
3 367 368 360
3 368 376 377
3 368 377 369
3 369 377 378
3 369 378 370
3 370 378 379
3 370 379 371
3 371 379 380
3 371 380 372
3 372 380 381
3 372 381 373
3 373 381 382
3 373 382 374
3 374 382 383
3 374 383 375
3 375 383 376
3 375 376 368
3 376 384 385
3 376 385 377
3 377 385 386
3 377 386 378
3 378 386 387
3 378 387 379
3 379 387 388
3 379 388 380
3 380 388 389
3 380 389 381
3 381 389 390
3 381 390 382
3 382 390 391
3 382 391 383
3 383 391 384
3 383 384 376
3 384 392 393
3 384 393 385
3 385 393 394
3 385 394 386
3 386 394 395
3 386 395 387
3 387 395 396
3 387 396 388
3 388 396 397
3 388 397 389
3 389 397 398
3 389 398 390
3 390 398 399
3 390 399 391
3 391 399 392
3 391 392 384
3 392 400 401
3 392 401 393
3 393 401 402
3 393 402 394
3 394 402 403
3 394 403 395
3 395 403 404
3 395 404 396
3 396 404 405
3 396 405 397
3 397 405 406
3 397 406 398
3 398 406 407
3 398 407 399
3 399 407 400
3 399 400 392
3 400 408 409
3 400 409 401
3 401 409 410
3 401 410 402
3 402 410 411
3 402 411 403
3 403 411 412
3 403 412 404
3 404 412 413
3 404 413 405
3 405 413 414
3 405 414 406
3 406 414 415
3 406 415 407
3 407 415 408
3 407 408 400
3 408 416 417
3 408 417 409
3 409 417 418
3 409 418 410
3 410 418 419
3 410 419 411
3 411 419 420
3 411 420 412
3 412 420 421
3 412 421 413
3 413 421 422
3 413 422 414
3 414 422 423
3 414 423 415
3 415 423 416
3 415 416 408
3 416 424 425
3 416 425 417
3 417 425 426
3 417 426 418
3 418 426 427
3 418 427 419
3 419 427 428
3 419 428 420
3 420 428 429
3 420 429 421
3 421 429 430
3 421 430 422
3 422 430 431
3 422 431 423
3 423 431 424
3 423 424 416
3 424 432 433
3 424 433 425
3 425 433 434
3 425 434 426
3 426 434 435
3 426 435 427
3 427 435 436
3 427 436 428
3 428 436 437
3 428 437 429
3 429 437 438
3 429 438 430
3 430 438 439
3 430 439 431
3 431 439 432
3 431 432 424
3 432 440 441
3 432 441 433
3 433 441 442
3 433 442 434
3 434 442 443
3 434 443 435
3 435 443 444
3 435 444 436
3 436 444 445
3 436 445 437
3 437 445 446
3 437 446 438
3 438 446 447
3 438 447 439
3 439 447 440
3 439 440 432
3 440 448 449
3 440 449 441
3 441 449 450
3 441 450 442
3 442 450 451
3 442 451 443
3 443 451 452
3 443 452 444
3 444 452 453
3 444 453 445
3 445 453 454
3 445 454 446
3 446 454 455
3 446 455 447
3 447 455 448
3 447 448 440
3 448 456 457
3 448 457 449
3 449 457 458
3 449 458 450
3 450 458 459
3 450 459 451
3 451 459 460
3 451 460 452
3 452 460 461
3 452 461 453
3 453 461 462
3 453 462 454
3 454 462 463
3 454 463 455
3 455 463 456
3 455 456 448
3 456 464 465
3 456 465 457
3 457 465 466
3 457 466 458
3 458 466 467
3 458 467 459
3 459 467 468
3 459 468 460
3 460 468 469
3 460 469 461
3 461 469 470
3 461 470 462
3 462 470 471
3 462 471 463
3 463 471 464
3 463 464 456
3 464 472 473
3 464 473 465
3 465 473 474
3 465 474 466
3 466 474 475
3 466 475 467
3 467 475 476
3 467 476 468
3 468 476 477
3 468 477 469
3 469 477 478
3 469 478 470
3 470 478 479
3 470 479 471
3 471 479 472
3 471 472 464
3 472 480 481
3 472 481 473
3 473 481 482
3 473 482 474
3 474 482 483
3 474 483 475
3 475 483 484
3 475 484 476
3 476 484 485
3 476 485 477
3 477 485 486
3 477 486 478
3 478 486 487
3 478 487 479
3 479 487 480
3 479 480 472
3 480 488 489
3 480 489 481
3 481 489 490
3 481 490 482
3 482 490 491
3 482 491 483
3 483 491 492
3 483 492 484
3 484 492 493
3 484 493 485
3 485 493 494
3 485 494 486
3 486 494 495
3 486 495 487
3 487 495 488
3 487 488 480
3 488 496 497
3 488 497 489
3 489 497 498
3 489 498 490
3 490 498 499
3 490 499 491
3 491 499 500
3 491 500 492
3 492 500 501
3 492 501 493
3 493 501 502
3 493 502 494
3 494 502 503
3 494 503 495
3 495 503 496
3 495 496 488
3 496 504 505
3 496 505 497
3 497 505 506
3 497 506 498
3 498 506 507
3 498 507 499
3 499 507 508
3 499 508 500
3 500 508 509
3 500 509 501
3 501 509 510
3 501 510 502
3 502 510 511
3 502 511 503
3 503 511 504
3 503 504 496
3 504 512 513
3 504 513 505
3 505 513 514
3 505 514 506
3 506 514 515
3 506 515 507
3 507 515 516
3 507 516 508
3 508 516 517
3 508 517 509
3 509 517 518
3 509 518 510
3 510 518 519
3 510 519 511
3 511 519 512
3 511 512 504
3 512 520 521
3 512 521 513
3 513 521 522
3 513 522 514
3 514 522 523
3 514 523 515
3 515 523 524
3 515 524 516
3 516 524 525
3 516 525 517
3 517 525 526
3 517 526 518
3 518 526 527
3 518 527 519
3 519 527 520
3 519 520 512
3 520 528 529
3 520 529 521
3 521 529 530
3 521 530 522
3 522 530 531
3 522 531 523
3 523 531 532
3 523 532 524
3 524 532 533
3 524 533 525
3 525 533 534
3 525 534 526
3 526 534 535
3 526 535 527
3 527 535 528
3 527 528 520
3 529 528 536
3 529 536 537
3 530 529 537
3 530 537 538
3 531 530 538
3 531 538 539
3 532 531 539
3 532 539 540
3 533 532 540
3 533 540 541
3 534 533 541
3 534 541 542
3 535 534 542
3 535 542 543
3 528 535 543
3 528 543 536
3 536 544 545
3 536 545 537
3 537 545 546
3 537 546 538
3 538 546 547
3 538 547 539
3 539 547 548
3 539 548 540
3 540 548 549
3 540 549 541
3 541 549 550
3 541 550 542
3 542 550 551
3 542 551 543
3 543 551 544
3 543 544 536
3 544 552 553
3 544 553 545
3 545 553 554
3 545 554 546
3 546 554 555
3 546 555 547
3 547 555 556
3 547 556 548
3 548 556 557
3 548 557 549
3 549 557 558
3 549 558 550
3 550 558 559
3 550 559 551
3 551 559 552
3 551 552 544
3 552 560 561
3 552 561 553
3 553 561 562
3 553 562 554
3 554 562 563
3 554 563 555
3 555 563 564
3 555 564 556
3 556 564 565
3 556 565 557
3 557 565 566
3 557 566 558
3 558 566 567
3 558 567 559
3 559 567 560
3 559 560 552
3 560 568 569
3 560 569 561
3 561 569 570
3 561 570 562
3 562 570 571
3 562 571 563
3 563 571 572
3 563 572 564
3 564 572 573
3 564 573 565
3 565 573 574
3 565 574 566
3 566 574 575
3 566 575 567
3 567 575 568
3 567 568 560
3 568 576 577
3 568 577 569
3 569 577 578
3 569 578 570
3 570 578 579
3 570 579 571
3 571 579 580
3 571 580 572
3 572 580 581
3 572 581 573
3 573 581 582
3 573 582 574
3 574 582 583
3 574 583 575
3 575 583 576
3 575 576 568
3 576 584 585
3 576 585 577
3 577 585 586
3 577 586 578
3 578 586 587
3 578 587 579
3 579 587 588
3 579 588 580
3 580 588 589
3 580 589 581
3 581 589 590
3 581 590 582
3 582 590 591
3 582 591 583
3 583 591 584
3 583 584 576
3 584 592 593
3 584 593 585
3 585 593 594
3 585 594 586
3 586 594 595
3 586 595 587
3 587 595 596
3 587 596 588
3 588 596 597
3 588 597 589
3 589 597 598
3 589 598 590
3 590 598 599
3 590 599 591
3 591 599 592
3 591 592 584
3 592 600 601
3 592 601 593
3 593 601 602
3 593 602 594
3 594 602 603
3 594 603 595
3 595 603 604
3 595 604 596
3 596 604 605
3 596 605 597
3 597 605 606
3 597 606 598
3 598 606 607
3 598 607 599
3 599 607 600
3 599 600 592
3 600 608 609
3 600 609 601
3 601 609 610
3 601 610 602
3 602 610 611
3 602 611 603
3 603 611 612
3 603 612 604
3 604 612 613
3 604 613 605
3 605 613 614
3 605 614 606
3 606 614 615
3 606 615 607
3 607 615 608
3 607 608 600
3 608 616 617
3 608 617 609
3 609 617 618
3 609 618 610
3 610 618 619
3 610 619 611
3 611 619 620
3 611 620 612
3 612 620 621
3 612 621 613
3 613 621 622
3 613 622 614
3 614 622 623
3 614 623 615
3 615 623 616
3 615 616 608
3 616 624 625
3 616 625 617
3 617 625 626
3 617 626 618
3 618 626 627
3 618 627 619
3 619 627 628
3 619 628 620
3 620 628 629
3 620 629 621
3 621 629 630
3 621 630 622
3 622 630 631
3 622 631 623
3 623 631 624
3 623 624 616
3 624 632 633
3 624 633 625
3 625 633 634
3 625 634 626
3 626 634 635
3 626 635 627
3 627 635 636
3 627 636 628
3 628 636 637
3 628 637 629
3 629 637 638
3 629 638 630
3 630 638 639
3 630 639 631
3 631 639 632
3 631 632 624
3 632 640 641
3 632 641 633
3 633 641 642
3 633 642 634
3 634 642 643
3 634 643 635
3 635 643 644
3 635 644 636
3 636 644 645
3 636 645 637
3 637 645 646
3 637 646 638
3 638 646 647
3 638 647 639
3 639 647 640
3 639 640 632
3 640 648 649
3 640 649 641
3 641 649 650
3 641 650 642
3 642 650 651
3 642 651 643
3 643 651 652
3 643 652 644
3 644 652 653
3 644 653 645
3 645 653 654
3 645 654 646
3 646 654 655
3 646 655 647
3 647 655 648
3 647 648 640
3 648 656 657
3 648 657 649
3 649 657 658
3 649 658 650
3 650 658 659
3 650 659 651
3 651 659 660
3 651 660 652
3 652 660 661
3 652 661 653
3 653 661 662
3 653 662 654
3 654 662 663
3 654 663 655
3 655 663 656
3 655 656 648
3 656 664 665
3 656 665 657
3 657 665 666
3 657 666 658
3 658 666 667
3 658 667 659
3 659 667 668
3 659 668 660
3 660 668 669
3 660 669 661
3 661 669 670
3 661 670 662
3 662 670 671
3 662 671 663
3 663 671 664
3 663 664 656
3 664 672 673
3 664 673 665
3 665 673 674
3 665 674 666
3 666 674 675
3 666 675 667
3 667 675 676
3 667 676 668
3 668 676 677
3 668 677 669
3 669 677 678
3 669 678 670
3 670 678 679
3 670 679 671
3 671 679 672
3 671 672 664
3 673 672 680
3 673 680 681
3 674 673 681
3 674 681 682
3 675 674 682
3 675 682 683
3 676 675 683
3 676 683 684
3 677 676 684
3 677 684 685
3 678 677 685
3 678 685 686
3 679 678 686
3 679 686 687
3 672 679 687
3 672 687 680
3 680 688 689
3 680 689 681
3 681 689 690
3 681 690 682
3 682 690 691
3 682 691 683
3 683 691 692
3 683 692 684
3 684 692 693
3 684 693 685
3 685 693 694
3 685 694 686
3 686 694 695
3 686 695 687
3 687 695 688
3 687 688 680
3 688 696 697
3 688 697 689
3 689 697 698
3 689 698 690
3 690 698 699
3 690 699 691
3 691 699 700
3 691 700 692
3 692 700 701
3 692 701 693
3 693 701 702
3 693 702 694
3 694 702 703
3 694 703 695
3 695 703 696
3 695 696 688
3 696 704 705
3 696 705 697
3 697 705 706
3 697 706 698
3 698 706 707
3 698 707 699
3 699 707 708
3 699 708 700
3 700 708 709
3 700 709 701
3 701 709 710
3 701 710 702
3 702 710 711
3 702 711 703
3 703 711 704
3 703 704 696
3 704 712 713
3 704 713 705
3 705 713 714
3 705 714 706
3 706 714 715
3 706 715 707
3 707 715 716
3 707 716 708
3 708 716 717
3 708 717 709
3 709 717 718
3 709 718 710
3 710 718 719
3 710 719 711
3 711 719 712
3 711 712 704
3 712 720 721
3 712 721 713
3 713 721 722
3 713 722 714
3 714 722 723
3 714 723 715
3 715 723 724
3 715 724 716
3 716 724 725
3 716 725 717
3 717 725 726
3 717 726 718
3 718 726 727
3 718 727 719
3 719 727 720
3 719 720 712
3 720 728 729
3 720 729 721
3 721 729 730
3 721 730 722
3 722 730 731
3 722 731 723
3 723 731 732
3 723 732 724
3 724 732 733
3 724 733 725
3 725 733 734
3 725 734 726
3 726 734 735
3 726 735 727
3 727 735 728
3 727 728 720
3 728 736 737
3 728 737 729
3 729 737 738
3 729 738 730
3 730 738 739
3 730 739 731
3 731 739 740
3 731 740 732
3 732 740 741
3 732 741 733
3 733 741 742
3 733 742 734
3 734 742 743
3 734 743 735
3 735 743 736
3 735 736 728
3 736 744 745
3 736 745 737
3 737 745 746
3 737 746 738
3 738 746 747
3 738 747 739
3 739 747 748
3 739 748 740
3 740 748 749
3 740 749 741
3 741 749 750
3 741 750 742
3 742 750 751
3 742 751 743
3 743 751 744
3 743 744 736
3 744 752 753
3 744 753 745
3 745 753 754
3 745 754 746
3 746 754 755
3 746 755 747
3 747 755 756
3 747 756 748
3 748 756 757
3 748 757 749
3 749 757 758
3 749 758 750
3 750 758 759
3 750 759 751
3 751 759 752
3 751 752 744
3 752 760 761
3 752 761 753
3 753 761 762
3 753 762 754
3 754 762 763
3 754 763 755
3 755 763 764
3 755 764 756
3 756 764 765
3 756 765 757
3 757 765 766
3 757 766 758
3 758 766 767
3 758 767 759
3 759 767 760
3 759 760 752
3 760 768 769
3 760 769 761
3 761 769 770
3 761 770 762
3 762 770 771
3 762 771 763
3 763 771 772
3 763 772 764
3 764 772 773
3 764 773 765
3 765 773 774
3 765 774 766
3 766 774 775
3 766 775 767
3 767 775 768
3 767 768 760
3 768 776 777
3 768 777 769
3 769 777 778
3 769 778 770
3 770 778 779
3 770 779 771
3 771 779 780
3 771 780 772
3 772 780 781
3 772 781 773
3 773 781 782
3 773 782 774
3 774 782 783
3 774 783 775
3 775 783 776
3 775 776 768
3 776 784 785
3 776 785 777
3 777 785 786
3 777 786 778
3 778 786 787
3 778 787 779
3 779 787 788
3 779 788 780
3 780 788 789
3 780 789 781
3 781 789 790
3 781 790 782
3 782 790 791
3 782 791 783
3 783 791 784
3 783 784 776
3 784 792 793
3 784 793 785
3 785 793 794
3 785 794 786
3 786 794 795
3 786 795 787
3 787 795 796
3 787 796 788
3 788 796 797
3 788 797 789
3 789 797 798
3 789 798 790
3 790 798 799
3 790 799 791
3 791 799 792
3 791 792 784
3 793 792 800
3 793 800 801
3 794 793 801
3 794 801 802
3 795 794 802
3 795 802 803
3 796 795 803
3 796 803 804
3 797 796 804
3 797 804 805
3 798 797 805
3 798 805 806
3 799 798 806
3 799 806 807
3 792 799 807
3 792 807 800
3 800 808 809
3 800 809 801
3 801 809 810
3 801 810 802
3 802 810 811
3 802 811 803
3 803 811 812
3 803 812 804
3 804 812 813
3 804 813 805
3 805 813 814
3 805 814 806
3 806 814 815
3 806 815 807
3 807 815 808
3 807 808 800
3 1 816 0
3 817 815 814
3 7 816 6
3 816 3 4
3 6 816 5
3 0 816 7
3 816 2 3
3 1 2 816
3 5 816 4
3 809 808 817
3 813 817 814
3 811 817 812
3 810 817 811
3 817 808 815
3 812 817 813
3 809 817 810
