ply
format ascii 1.0
comment created by MATLAB nix_write_ply
element vertex 24
property float x
property float y
property float z
element face 44
property list uchar int vertex_index
end_header
-0.025400 0.011020 0.000408
-0.025400 -0.011020 0.000408
-0.025254 0.011020 0.000000
-0.025254 -0.011020 0.000000
-0.024093 0.011665 0.000645
-0.024093 -0.011665 0.000645
-0.016766 0.011020 0.007475
-0.016766 -0.011020 0.007475
-0.016036 0.011665 0.007238
-0.016036 -0.011665 0.007238
-0.015622 0.011020 0.007883
-0.015622 -0.011020 0.007883
0.015622 0.011020 0.000000
0.015622 -0.011020 0.000000
0.016036 0.011665 0.000645
0.016036 -0.011665 0.000645
0.016766 0.011020 0.000408
0.016766 -0.011020 0.000408
0.024093 0.011665 0.007238
0.024093 -0.011665 0.007238
0.025254 0.011020 0.007883
0.025254 -0.011020 0.007883
0.025400 0.011020 0.007475
0.025400 -0.011020 0.007475
3 3 13 12
3 3 12 2
3 14 18 8
3 14 8 4
3 17 23 22
3 17 22 16
3 9 19 15
3 9 15 5
3 6 7 1
3 6 1 0
3 20 21 11
3 20 11 10
3 12 14 4
3 12 4 2
3 13 17 16
3 13 16 12
3 3 5 15
3 3 15 13
3 2 0 1
3 2 1 3
3 8 6 0
3 8 0 4
3 18 20 10
3 18 10 8
3 14 16 22
3 14 22 18
3 23 21 20
3 23 20 22
3 17 15 19
3 17 19 23
3 9 11 21
3 9 21 19
3 5 1 7
3 5 7 9
3 6 10 11
3 6 11 7
3 2 4 0
3 12 16 14
3 13 15 17
3 3 1 5
3 8 10 6
3 18 22 20
3 23 19 21
3 9 7 11
