ply
format ascii 1.0
comment created by MATLAB nix_write_ply
element vertex 595
property float x
property float y
property float z
element face 834
property list uchar int vertex_index
end_header
0.002379 0.000098 0.229767
0.009598 0.000098 0.227717
0.004610 -0.006767 0.227717
0.014661 0.000098 0.222177
0.011829 -0.006767 0.223255
0.006174 -0.011582 0.222177
-0.003462 -0.004145 0.227717
-0.001231 -0.011010 0.223255
-0.007557 -0.007121 0.222177
-0.003462 0.004342 0.227717
-0.009301 0.000098 0.223255
-0.007557 0.007317 0.222177
0.004610 0.006963 0.227717
-0.001231 0.011207 0.223255
0.006174 0.011778 0.222177
0.011829 0.006963 0.223255
0.015438 0.004342 0.216036
0.015438 -0.004145 0.216036
0.012314 0.007317 0.209896
0.014059 0.000098 0.208817
0.012314 -0.007121 0.209896
0.010449 -0.011010 0.216036
0.002379 -0.013633 0.216036
0.005988 -0.011010 0.208817
-0.001417 -0.011582 0.209896
-0.005692 -0.011010 0.216036
-0.010681 -0.004145 0.216036
-0.007071 -0.006767 0.208817
-0.009903 0.000098 0.209896
-0.010681 0.004342 0.216036
-0.005692 0.011207 0.216036
-0.007071 0.006963 0.208817
-0.001417 0.011778 0.209896
0.002379 0.013829 0.216036
0.010449 0.011207 0.216036
0.005988 0.011207 0.208817
0.002379 0.000098 0.202305
0.000148 -0.006767 0.204356
0.008219 -0.004145 0.204356
-0.004840 0.000098 0.204356
0.000148 0.006963 0.204356
0.008219 0.004342 0.204356
0.023438 0.000098 0.138119
0.030608 0.000098 0.136082
0.025653 -0.006767 0.136082
0.035637 0.000098 0.130579
0.032824 -0.006767 0.131651
0.027208 -0.011582 0.130579
0.017637 -0.004145 0.136082
0.019853 -0.011010 0.131651
0.013569 -0.007121 0.130579
0.017637 0.004342 0.136082
0.011836 0.000098 0.131651
0.013569 0.007317 0.130579
0.025653 0.006963 0.136082
0.019853 0.011207 0.131651
0.027208 0.011778 0.130579
0.032824 0.006963 0.131651
0.036409 0.004342 0.124480
0.036409 -0.004145 0.124480
0.033308 0.007317 0.118381
0.035041 0.000098 0.117310
0.033308 -0.007121 0.118381
0.031456 -0.011010 0.124480
0.023438 -0.013633 0.124480
0.027023 -0.011010 0.117310
0.019668 -0.011582 0.118381
0.015421 -0.011010 0.124480
0.010466 -0.004145 0.124480
0.014052 -0.006767 0.117310
0.011238 0.000098 0.118381
0.010466 0.004342 0.124480
0.015421 0.011207 0.124480
0.014052 0.006963 0.117310
0.019668 0.011778 0.118381
0.023438 0.013829 0.124480
0.031456 0.011207 0.124480
0.027023 0.011207 0.117310
0.023438 0.000098 0.110842
0.021222 -0.006767 0.112878
0.029239 -0.004145 0.112878
0.016267 0.000098 0.112878
0.021222 0.006963 0.112878
0.029239 0.004342 0.112878
0.006965 0.016821 0.126790
0.015022 0.016821 0.124500
0.009456 0.009158 0.124500
0.020673 0.016821 0.118317
0.017512 0.009158 0.119521
0.011202 0.003784 0.118317
0.000447 0.012084 0.124500
0.002937 0.004421 0.119521
-0.004123 0.008763 0.118317
0.000447 0.021556 0.124500
-0.006071 0.016821 0.119521
-0.004123 0.024877 0.118317
0.009456 0.024482 0.124500
0.002937 0.029219 0.119521
0.011202 0.029856 0.118317
0.017512 0.024482 0.119521
0.021540 0.021556 0.111463
0.021540 0.012084 0.111463
0.018054 0.024877 0.104611
0.020002 0.016821 0.103407
0.018054 0.008763 0.104611
0.015973 0.004421 0.111463
0.006965 0.001495 0.111463
0.010994 0.004421 0.103407
0.002729 0.003784 0.104611
-0.002042 0.004421 0.111463
-0.007609 0.012084 0.111463
-0.003581 0.009158 0.103407
-0.006742 0.016821 0.104611
-0.007609 0.021556 0.111463
-0.002042 0.029219 0.111463
-0.003581 0.024482 0.103407
0.002729 0.029856 0.104611
0.006965 0.032146 0.111463
0.015973 0.029219 0.111463
0.010994 0.029219 0.103407
0.006965 0.016821 0.096139
0.004475 0.009158 0.098428
0.013484 0.012084 0.098428
-0.001091 0.016821 0.098428
0.004475 0.024482 0.098428
0.013484 0.021556 0.098428
-0.011617 0.000098 0.150987
-0.005951 0.000098 0.149519
-0.009444 -0.004836 0.148709
-0.000752 0.000098 0.143209
-0.003057 -0.004836 0.144137
-0.006694 -0.008296 0.141830
-0.015095 -0.002951 0.147399
-0.012201 -0.007886 0.142016
-0.016308 -0.005090 0.139601
-0.015095 0.003148 0.147399
-0.017851 0.000098 0.140705
-0.016308 0.005287 0.139601
-0.009444 0.005033 0.148709
-0.012201 0.008082 0.142016
-0.006694 0.008493 0.141830
-0.003057 0.005033 0.144137
0.001625 0.003148 0.135428
0.001625 -0.002951 0.135428
0.001273 0.005287 0.127014
0.002816 0.000098 0.125910
0.001273 -0.005090 0.127014
-0.001866 -0.007886 0.134619
-0.007517 -0.009771 0.133307
-0.002834 -0.007886 0.124599
-0.008342 -0.008296 0.124784
-0.013169 -0.007886 0.131997
-0.016660 -0.002951 0.131187
-0.011978 -0.004836 0.122479
-0.014283 0.000098 0.123407
-0.016660 0.003148 0.131187
-0.013169 0.008082 0.131997
-0.011978 0.005033 0.122479
-0.008342 0.008493 0.124784
-0.007517 0.009967 0.133307
-0.001866 0.008082 0.134619
-0.002834 0.008082 0.124599
-0.003418 0.000098 0.115628
-0.005591 -0.004836 0.117906
0.000060 -0.002951 0.119216
-0.009084 0.000098 0.117095
-0.005591 0.005033 0.117906
0.000060 0.003148 0.119216
-0.035505 0.015447 0.103959
-0.030780 0.018286 0.101991
-0.031948 0.017816 0.107959
-0.022634 0.017939 0.101373
-0.024383 0.019281 0.106439
-0.024622 0.017140 0.111526
-0.034693 0.012456 0.108926
-0.028296 0.013451 0.113374
-0.029294 0.008021 0.113171
-0.035223 0.009613 0.103555
-0.031572 0.005249 0.108970
-0.030193 0.003185 0.104033
-0.032803 0.013217 0.099270
-0.029682 0.006010 0.099314
-0.026078 0.009315 0.096742
-0.025238 0.014682 0.097750
-0.015416 0.013450 0.099575
-0.014888 0.016291 0.104946
-0.009368 0.007219 0.099849
-0.007090 0.009991 0.104050
-0.008468 0.012055 0.108985
-0.016056 0.015822 0.110914
-0.018474 0.012219 0.115199
-0.008980 0.009230 0.113706
-0.012584 0.005924 0.116276
-0.021221 0.006860 0.116166
-0.023245 0.001790 0.113443
-0.013423 0.000558 0.115270
-0.016027 -0.002700 0.111646
-0.023773 -0.001052 0.108074
-0.022605 -0.000582 0.102106
-0.014279 -0.004041 0.106581
-0.014039 -0.001901 0.101494
-0.020186 0.003020 0.097821
-0.017440 0.008380 0.096854
-0.010364 0.001788 0.099646
-0.003155 -0.000207 0.109060
-0.005858 0.002023 0.113750
-0.003438 0.005626 0.109463
-0.007882 -0.003046 0.111028
-0.006714 -0.002576 0.105061
-0.003967 0.002783 0.104094
-0.043405 0.003026 0.108111
-0.039897 0.003089 0.107674
-0.041367 0.000715 0.109842
-0.044410 -0.000351 0.108395
-0.044822 0.001364 0.105330
-0.042033 0.003490 0.104886
-0.039146 0.001465 0.104625
-0.038736 -0.000250 0.107689
-0.041525 -0.002376 0.108134
-0.043659 -0.001974 0.105345
-0.042190 0.000399 0.103176
-0.040152 -0.001912 0.104909
-0.045435 -0.001434 0.117443
-0.043228 0.001294 0.117007
-0.042355 -0.001358 0.119176
-0.043495 -0.004374 0.117727
-0.045073 -0.003587 0.114664
-0.044908 -0.000084 0.114218
-0.041502 0.000826 0.113959
-0.039924 0.000038 0.117022
-0.040088 -0.003465 0.117467
-0.041769 -0.004843 0.114678
-0.042642 -0.002191 0.112509
-0.039562 -0.002115 0.114242
-0.037394 0.001516 0.111815
-0.034265 -0.000099 0.112118
-0.036842 -0.000795 0.114433
-0.039912 -0.000810 0.112678
-0.039230 -0.000125 0.109279
-0.035739 0.000315 0.108931
-0.034165 -0.002738 0.109767
-0.034847 -0.003423 0.113167
-0.038338 -0.003863 0.113514
-0.039813 -0.003449 0.110328
-0.037234 -0.002754 0.108011
-0.036683 -0.005064 0.110630
-0.049063 -0.000389 0.105777
-0.045933 -0.002004 0.106080
-0.048511 -0.002701 0.108395
-0.051581 -0.002717 0.106640
-0.050898 -0.002030 0.103240
-0.047408 -0.001590 0.102893
-0.045834 -0.004644 0.103729
-0.046515 -0.005330 0.107129
-0.050007 -0.005770 0.107476
-0.051481 -0.005355 0.104290
-0.048902 -0.004660 0.101974
-0.048352 -0.006970 0.104592
-0.051057 -0.001478 0.099986
-0.047669 -0.000667 0.100593
-0.049310 -0.003043 0.102632
-0.051474 -0.004938 0.100575
-0.051171 -0.003733 0.097267
-0.048819 -0.001093 0.097277
-0.045689 -0.002423 0.098246
-0.045994 -0.003628 0.101556
-0.048346 -0.006266 0.101546
-0.049496 -0.006692 0.098231
-0.047854 -0.004316 0.096191
-0.046108 -0.005883 0.098837
-0.056479 -0.000461 0.104653
-0.053349 -0.002086 0.104910
-0.055219 -0.001381 0.107827
-0.058639 -0.001862 0.107075
-0.058885 -0.002866 0.103694
-0.055616 -0.003005 0.102355
-0.053822 -0.005497 0.104108
-0.053578 -0.004494 0.107489
-0.056847 -0.004355 0.108828
-0.059112 -0.005273 0.106274
-0.057243 -0.005980 0.103357
-0.055984 -0.006899 0.106530
-0.057411 -0.004993 0.095927
-0.053876 -0.005005 0.095968
-0.055669 -0.007731 0.097328
-0.058507 -0.008295 0.095297
-0.058469 -0.005914 0.092682
-0.055607 -0.003881 0.093098
-0.052749 -0.005933 0.092749
-0.052787 -0.008313 0.095362
-0.055649 -0.010346 0.094948
-0.057380 -0.009223 0.092076
-0.055588 -0.006495 0.090718
-0.053845 -0.009234 0.092118
-0.050674 0.000632 0.129055
-0.047138 0.000620 0.129095
-0.048931 -0.002106 0.130454
-0.051770 -0.002670 0.128423
-0.051731 -0.000290 0.125809
-0.048870 0.001744 0.126225
-0.046011 -0.000308 0.125875
-0.046050 -0.002688 0.128490
-0.048912 -0.004721 0.128074
-0.050643 -0.003598 0.125204
-0.048850 -0.000870 0.123844
-0.047107 -0.003609 0.125244
-0.064647 -0.003212 0.134901
-0.061257 -0.002258 0.135206
-0.062691 -0.004462 0.137568
-0.064917 -0.006606 0.135852
-0.064857 -0.005729 0.132427
-0.062595 -0.003042 0.132028
-0.059370 -0.004186 0.132920
-0.059431 -0.005064 0.136343
-0.061694 -0.007751 0.136742
-0.063032 -0.008535 0.133566
-0.061596 -0.006330 0.131202
-0.059641 -0.007581 0.133869
-0.036169 0.000739 0.119779
-0.033219 -0.001047 0.119004
-0.035998 -0.002741 0.120384
-0.038931 -0.001327 0.119006
-0.037963 0.001241 0.116776
-0.034434 0.001412 0.116775
-0.033190 -0.001651 0.115521
-0.034157 -0.004217 0.117751
-0.037688 -0.004390 0.117753
-0.038903 -0.001930 0.115523
-0.036123 -0.000237 0.114143
-0.035952 -0.003716 0.114748
-0.027364 -0.004353 0.116394
-0.024413 -0.003280 0.114770
-0.027193 -0.004343 0.112863
-0.030126 -0.003233 0.114494
-0.029159 -0.001482 0.117409
-0.025628 -0.001510 0.117579
-0.024385 0.000255 0.114780
-0.025351 -0.001495 0.111866
-0.028882 -0.001466 0.111695
-0.030097 0.000302 0.114505
-0.027317 0.001367 0.116411
-0.027147 0.001377 0.112881
-0.057524 -0.004004 0.149946
-0.055972 -0.002641 0.147076
-0.054133 -0.004728 0.149259
-0.056289 -0.007286 0.150402
-0.059462 -0.006779 0.148927
-0.059267 -0.003909 0.146872
-0.056952 -0.004575 0.144283
-0.053779 -0.005081 0.145759
-0.053975 -0.007951 0.147814
-0.057270 -0.009219 0.147609
-0.059109 -0.007132 0.145427
-0.055717 -0.007856 0.144739
-0.062442 -0.006136 0.089611
-0.059051 -0.005183 0.089915
-0.060486 -0.007386 0.092278
-0.062711 -0.009531 0.090561
-0.062652 -0.008652 0.087137
-0.060389 -0.005966 0.086738
-0.057165 -0.007111 0.087630
-0.057226 -0.007990 0.091053
-0.059488 -0.010676 0.091452
-0.060826 -0.011458 0.088275
-0.059390 -0.009256 0.085912
-0.057436 -0.010506 0.088579
0.058391 0.031642 0.055654
0.056652 0.031165 0.058696
0.057086 0.028457 0.056465
0.060301 0.028736 0.055021
0.061854 0.031616 0.056361
0.059599 0.033116 0.058632
0.059041 0.030844 0.061282
0.057488 0.027964 0.059942
0.059745 0.026462 0.057671
0.062691 0.028415 0.057607
0.062257 0.031122 0.059839
0.060953 0.027939 0.060648
0.051016 0.033307 0.059129
0.048664 0.033514 0.061760
0.048366 0.030975 0.059319
0.051621 0.029885 0.058472
0.053930 0.031752 0.060389
0.052103 0.033995 0.062422
0.050125 0.032089 0.064646
0.047814 0.030221 0.062728
0.049642 0.027978 0.060696
0.053081 0.028459 0.061359
0.053379 0.031000 0.063800
0.050729 0.028668 0.063989
0.044928 0.032800 0.057959
0.043581 0.030767 0.060520
0.043069 0.029910 0.057129
0.046024 0.030685 0.055348
0.048362 0.032022 0.057639
0.046851 0.032073 0.060835
0.046183 0.028732 0.061782
0.043845 0.027396 0.059491
0.045354 0.027345 0.056293
0.048626 0.028650 0.056610
0.049137 0.029508 0.060000
0.047279 0.026617 0.059169
0.049467 0.033944 0.052100
0.048163 0.031910 0.054681
0.046443 0.032180 0.051603
0.048849 0.032326 0.049017
0.052055 0.032146 0.050495
0.051630 0.031889 0.053997
0.049944 0.028857 0.054672
0.046738 0.029037 0.053195
0.047162 0.029294 0.049694
0.050630 0.029273 0.049009
0.052350 0.029002 0.052086
0.049325 0.027239 0.051591
0.000057 0.001438 0.179115
0.004179 0.001438 0.086043
0.006427 0.001438 0.086142
0.002309 0.001438 0.179140
0.000057 -0.000813 0.179115
0.004179 -0.000813 0.086043
0.002309 -0.000813 0.179140
0.006427 -0.000813 0.086142
0.000402 0.001438 0.194662
0.002650 0.001438 0.194491
0.000402 -0.000813 0.194662
0.002650 -0.000813 0.194491
0.001783 0.001438 0.205364
0.004015 0.001438 0.205075
0.001783 -0.000813 0.205364
0.004015 -0.000813 0.205075
-0.000412 -0.015914 0.195669
0.005455 -0.010882 0.088826
0.007697 -0.010848 0.089028
0.001834 -0.015880 0.195837
-0.000378 -0.018165 0.195678
0.005489 -0.013133 0.088835
0.001868 -0.018131 0.195847
0.007730 -0.013099 0.089036
-0.004969 -0.016114 0.279316
-0.003675 -0.016095 0.279394
-0.004951 -0.017411 0.279322
-0.003655 -0.017391 0.279400
0.014898 0.015092 0.259569
0.007278 -0.003570 0.091096
0.009528 -0.003581 0.090996
0.016474 0.015083 0.259499
0.014898 0.013524 0.259752
0.007278 -0.005805 0.091355
0.016474 0.013515 0.259682
0.009528 -0.005818 0.091256
0.016325 -0.010938 0.159754
0.007744 -0.004731 0.100915
0.009968 -0.004691 0.100566
0.018552 -0.010899 0.159425
0.016325 -0.013174 0.159496
0.007744 -0.006968 0.100656
0.018552 -0.013136 0.159166
0.009968 -0.006926 0.100307
0.020437 -0.014310 0.189027
0.022680 -0.014284 0.188813
0.020437 -0.016545 0.188769
0.022680 -0.016521 0.188554
0.025519 -0.024951 0.278969
0.027210 -0.024941 0.278881
0.025519 -0.026634 0.278775
0.027210 -0.026624 0.278686
-0.004583 0.002349 0.118131
0.003158 0.005145 0.086043
0.005406 0.005145 0.086142
-0.002331 0.002349 0.118156
-0.004583 0.000098 0.118131
0.003158 0.002893 0.086043
-0.002331 0.000098 0.118156
0.005406 0.002893 0.086142
0.020063 0.000613 0.118131
0.006102 -0.004440 0.086043
0.008351 -0.004440 0.086142
0.022314 0.000613 0.118156
0.020063 -0.001638 0.118131
0.006102 -0.006691 0.086043
0.022314 -0.001638 0.118156
0.008351 -0.006691 0.086142
0.009126 0.005135 0.000000
0.050714 0.029145 0.000000
0.050714 0.029145 0.100468
0.009126 0.005135 0.100468
0.093717 0.023426 0.000000
0.093717 0.023426 0.100468
0.049267 -0.000361 0.144140
0.018401 -0.000361 0.180925
-0.020081 -0.000361 0.148635
0.010786 -0.000361 0.111849
0.087749 -0.014172 0.176429
0.056882 -0.014172 0.213215
-0.012466 -0.017550 0.217712
-0.050949 -0.017550 0.185422
0.026015 -0.025607 0.244133
-0.023675 -0.000361 0.145535
-0.046569 -0.000361 0.118252
-0.018027 -0.000361 0.094303
0.004866 -0.000361 0.121586
-0.052217 -0.010604 0.169484
-0.075109 -0.010604 0.142201
-0.069462 -0.013109 0.090969
-0.040921 -0.013109 0.067021
-0.093717 -0.019085 0.115673
0.015746 0.019373 0.145799
0.013732 0.042383 0.118271
0.016243 0.013695 0.094107
0.018256 -0.009315 0.121636
0.002939 0.047159 0.169963
0.000925 0.070170 0.142435
-0.001096 0.064273 0.090742
0.001414 0.035586 0.066579
-0.009234 0.088128 0.115669
0.014103 -0.003733 0.000000
0.018288 -0.051571 0.000000
0.018288 -0.051571 0.100468
0.014103 -0.003733 0.100468
-0.005069 -0.088128 0.000000
-0.005069 -0.088128 0.100468
0.021022 -0.040937 0.138820
0.019109 -0.019072 0.164977
0.016724 0.008187 0.142018
0.018638 -0.013678 0.115861
0.013623 -0.069052 0.161781
0.011710 -0.047186 0.187937
0.005020 0.001727 0.191135
0.002634 0.028986 0.168174
0.001698 -0.026030 0.209923
-0.009865 -0.000143 0.015955
-0.008495 0.006741 0.015955
-0.006745 0.006015 0.089442
-0.007971 -0.000143 0.089442
-0.008306 0.006662 0.095017
-0.009660 -0.000143 0.095017
-0.007369 0.006275 0.096200
-0.008647 -0.000143 0.096200
0.008126 -0.000143 0.053003
-0.004594 0.012577 0.015955
-0.003256 0.011237 0.089442
-0.004451 0.012432 0.095017
-0.003734 0.011715 0.096200
0.001241 0.016476 0.015955
0.001966 0.014727 0.089442
0.001319 0.016287 0.095017
0.001707 0.015352 0.096200
0.008126 0.017846 0.015955
0.008126 0.015952 0.089442
0.008126 0.017641 0.095017
0.008126 0.016628 0.096200
0.015010 0.016476 0.015955
0.014284 0.014727 0.089442
0.014932 0.016287 0.095017
0.014543 0.015352 0.096200
0.020846 0.012577 0.015955
0.019506 0.011237 0.089442
0.020701 0.012432 0.095017
0.019985 0.011715 0.096200
0.024745 0.006741 0.015955
0.022995 0.006015 0.089442
0.024556 0.006662 0.095017
0.023619 0.006275 0.096200
0.026115 -0.000143 0.015955
0.024221 -0.000143 0.089442
0.025910 -0.000143 0.095017
0.024897 -0.000143 0.096200
0.024745 -0.007027 0.015955
0.022995 -0.006303 0.089442
0.024556 -0.006949 0.095017
0.023619 -0.006562 0.096200
0.020846 -0.012864 0.015955
0.019506 -0.011525 0.089442
0.020701 -0.012719 0.095017
0.019985 -0.012002 0.096200
0.015010 -0.016764 0.015955
0.014284 -0.015014 0.089442
0.014932 -0.016575 0.095017
0.014543 -0.015638 0.096200
0.008126 -0.018132 0.015955
0.008126 -0.016239 0.089442
0.008126 -0.017928 0.095017
0.008126 -0.016914 0.096200
0.001241 -0.016764 0.015955
0.001966 -0.015014 0.089442
0.001319 -0.016575 0.095017
0.001707 -0.015638 0.096200
-0.004594 -0.012864 0.015955
-0.003256 -0.011525 0.089442
-0.004451 -0.012719 0.095017
-0.003734 -0.012002 0.096200
-0.008495 -0.007027 0.015955
-0.006745 -0.006303 0.089442
-0.008306 -0.006949 0.095017
-0.007369 -0.006562 0.096200
3 0 1 2
3 1 3 4
3 1 4 2
3 2 4 5
3 0 2 6
3 2 5 7
3 2 7 6
3 6 7 8
3 0 6 9
3 6 8 10
3 6 10 9
3 9 10 11
3 0 9 12
3 9 11 13
3 9 13 12
3 12 13 14
3 0 12 1
3 12 14 15
3 12 15 1
3 1 15 3
3 3 16 17
3 16 18 19
3 16 19 17
3 17 19 20
3 5 21 22
3 21 20 23
3 21 23 22
3 22 23 24
3 8 25 26
3 25 24 27
3 25 27 26
3 26 27 28
3 11 29 30
3 29 28 31
3 29 31 30
3 30 31 32
3 14 33 34
3 33 32 35
3 33 35 34
3 34 35 18
3 20 21 17
3 21 5 4
3 21 4 17
3 17 4 3
3 24 25 22
3 25 8 7
3 25 7 22
3 22 7 5
3 28 29 26
3 29 11 10
3 29 10 26
3 26 10 8
3 32 33 30
3 33 14 13
3 33 13 30
3 30 13 11
3 18 16 34
3 16 3 15
3 16 15 34
3 34 15 14
3 36 37 38
3 37 24 23
3 37 23 38
3 38 23 20
3 36 39 37
3 39 28 27
3 39 27 37
3 37 27 24
3 36 40 39
3 40 32 31
3 40 31 39
3 39 31 28
3 36 41 40
3 41 18 35
3 41 35 40
3 40 35 32
3 36 38 41
3 38 20 19
3 38 19 41
3 41 19 18
3 42 43 44
3 43 45 46
3 43 46 44
3 44 46 47
3 42 44 48
3 44 47 49
3 44 49 48
3 48 49 50
3 42 48 51
3 48 50 52
3 48 52 51
3 51 52 53
3 42 51 54
3 51 53 55
3 51 55 54
3 54 55 56
3 42 54 43
3 54 56 57
3 54 57 43
3 43 57 45
3 45 58 59
3 58 60 61
3 58 61 59
3 59 61 62
3 47 63 64
3 63 62 65
3 63 65 64
3 64 65 66
3 50 67 68
3 67 66 69
3 67 69 68
3 68 69 70
3 53 71 72
3 71 70 73
3 71 73 72
3 72 73 74
3 56 75 76
3 75 74 77
3 75 77 76
3 76 77 60
3 62 63 59
3 63 47 46
3 63 46 59
3 59 46 45
3 66 67 64
3 67 50 49
3 67 49 64
3 64 49 47
3 70 71 68
3 71 53 52
3 71 52 68
3 68 52 50
3 74 75 72
3 75 56 55
3 75 55 72
3 72 55 53
3 60 58 76
3 58 45 57
3 58 57 76
3 76 57 56
3 78 79 80
3 79 66 65
3 79 65 80
3 80 65 62
3 78 81 79
3 81 70 69
3 81 69 79
3 79 69 66
3 78 82 81
3 82 74 73
3 82 73 81
3 81 73 70
3 78 83 82
3 83 60 77
3 83 77 82
3 82 77 74
3 78 80 83
3 80 62 61
3 80 61 83
3 83 61 60
3 84 85 86
3 85 87 88
3 85 88 86
3 86 88 89
3 84 86 90
3 86 89 91
3 86 91 90
3 90 91 92
3 84 90 93
3 90 92 94
3 90 94 93
3 93 94 95
3 84 93 96
3 93 95 97
3 93 97 96
3 96 97 98
3 84 96 85
3 96 98 99
3 96 99 85
3 85 99 87
3 87 100 101
3 100 102 103
3 100 103 101
3 101 103 104
3 89 105 106
3 105 104 107
3 105 107 106
3 106 107 108
3 92 109 110
3 109 108 111
3 109 111 110
3 110 111 112
3 95 113 114
3 113 112 115
3 113 115 114
3 114 115 116
3 98 117 118
3 117 116 119
3 117 119 118
3 118 119 102
3 104 105 101
3 105 89 88
3 105 88 101
3 101 88 87
3 108 109 106
3 109 92 91
3 109 91 106
3 106 91 89
3 112 113 110
3 113 95 94
3 113 94 110
3 110 94 92
3 116 117 114
3 117 98 97
3 117 97 114
3 114 97 95
3 102 100 118
3 100 87 99
3 100 99 118
3 118 99 98
3 120 121 122
3 121 108 107
3 121 107 122
3 122 107 104
3 120 123 121
3 123 112 111
3 123 111 121
3 121 111 108
3 120 124 123
3 124 116 115
3 124 115 123
3 123 115 112
3 120 125 124
3 125 102 119
3 125 119 124
3 124 119 116
3 120 122 125
3 122 104 103
3 122 103 125
3 125 103 102
3 126 127 128
3 127 129 130
3 127 130 128
3 128 130 131
3 126 128 132
3 128 131 133
3 128 133 132
3 132 133 134
3 126 132 135
3 132 134 136
3 132 136 135
3 135 136 137
3 126 135 138
3 135 137 139
3 135 139 138
3 138 139 140
3 126 138 127
3 138 140 141
3 138 141 127
3 127 141 129
3 129 142 143
3 142 144 145
3 142 145 143
3 143 145 146
3 131 147 148
3 147 146 149
3 147 149 148
3 148 149 150
3 134 151 152
3 151 150 153
3 151 153 152
3 152 153 154
3 137 155 156
3 155 154 157
3 155 157 156
3 156 157 158
3 140 159 160
3 159 158 161
3 159 161 160
3 160 161 144
3 146 147 143
3 147 131 130
3 147 130 143
3 143 130 129
3 150 151 148
3 151 134 133
3 151 133 148
3 148 133 131
3 154 155 152
3 155 137 136
3 155 136 152
3 152 136 134
3 158 159 156
3 159 140 139
3 159 139 156
3 156 139 137
3 144 142 160
3 142 129 141
3 142 141 160
3 160 141 140
3 162 163 164
3 163 150 149
3 163 149 164
3 164 149 146
3 162 165 163
3 165 154 153
3 165 153 163
3 163 153 150
3 162 166 165
3 166 158 157
3 166 157 165
3 165 157 154
3 162 167 166
3 167 144 161
3 167 161 166
3 166 161 158
3 162 164 167
3 164 146 145
3 164 145 167
3 167 145 144
3 168 169 170
3 169 171 172
3 169 172 170
3 170 172 173
3 168 170 174
3 170 173 175
3 170 175 174
3 174 175 176
3 168 174 177
3 174 176 178
3 174 178 177
3 177 178 179
3 168 177 180
3 177 179 181
3 177 181 180
3 180 181 182
3 168 180 169
3 180 182 183
3 180 183 169
3 169 183 171
3 171 184 185
3 184 186 187
3 184 187 185
3 185 187 188
3 173 189 190
3 189 188 191
3 189 191 190
3 190 191 192
3 176 193 194
3 193 192 195
3 193 195 194
3 194 195 196
3 179 197 198
3 197 196 199
3 197 199 198
3 198 199 200
3 182 201 202
3 201 200 203
3 201 203 202
3 202 203 186
3 188 189 185
3 189 173 172
3 189 172 185
3 185 172 171
3 192 193 190
3 193 176 175
3 193 175 190
3 190 175 173
3 196 197 194
3 197 179 178
3 197 178 194
3 194 178 176
3 200 201 198
3 201 182 181
3 201 181 198
3 198 181 179
3 186 184 202
3 184 171 183
3 184 183 202
3 202 183 182
3 204 205 206
3 205 192 191
3 205 191 206
3 206 191 188
3 204 207 205
3 207 196 195
3 207 195 205
3 205 195 192
3 204 208 207
3 208 200 199
3 208 199 207
3 207 199 196
3 204 209 208
3 209 186 203
3 209 203 208
3 208 203 200
3 204 206 209
3 206 188 187
3 206 187 209
3 209 187 186
3 210 211 212
3 210 212 213
3 210 213 214
3 210 214 215
3 210 215 211
3 211 216 217
3 212 217 218
3 213 218 219
3 214 219 220
3 215 220 216
3 217 212 211
3 218 213 212
3 219 214 213
3 220 215 214
3 216 211 215
3 221 218 217
3 221 219 218
3 221 220 219
3 221 216 220
3 221 217 216
3 222 223 224
3 222 224 225
3 222 225 226
3 222 226 227
3 222 227 223
3 223 228 229
3 224 229 230
3 225 230 231
3 226 231 232
3 227 232 228
3 229 224 223
3 230 225 224
3 231 226 225
3 232 227 226
3 228 223 227
3 233 230 229
3 233 231 230
3 233 232 231
3 233 228 232
3 233 229 228
3 234 235 236
3 234 236 237
3 234 237 238
3 234 238 239
3 234 239 235
3 235 240 241
3 236 241 242
3 237 242 243
3 238 243 244
3 239 244 240
3 241 236 235
3 242 237 236
3 243 238 237
3 244 239 238
3 240 235 239
3 245 242 241
3 245 243 242
3 245 244 243
3 245 240 244
3 245 241 240
3 246 247 248
3 246 248 249
3 246 249 250
3 246 250 251
3 246 251 247
3 247 252 253
3 248 253 254
3 249 254 255
3 250 255 256
3 251 256 252
3 253 248 247
3 254 249 248
3 255 250 249
3 256 251 250
3 252 247 251
3 257 254 253
3 257 255 254
3 257 256 255
3 257 252 256
3 257 253 252
3 258 259 260
3 258 260 261
3 258 261 262
3 258 262 263
3 258 263 259
3 259 264 265
3 260 265 266
3 261 266 267
3 262 267 268
3 263 268 264
3 265 260 259
3 266 261 260
3 267 262 261
3 268 263 262
3 264 259 263
3 269 266 265
3 269 267 266
3 269 268 267
3 269 264 268
3 269 265 264
3 270 271 272
3 270 272 273
3 270 273 274
3 270 274 275
3 270 275 271
3 271 276 277
3 272 277 278
3 273 278 279
3 274 279 280
3 275 280 276
3 277 272 271
3 278 273 272
3 279 274 273
3 280 275 274
3 276 271 275
3 281 278 277
3 281 279 278
3 281 280 279
3 281 276 280
3 281 277 276
3 282 283 284
3 282 284 285
3 282 285 286
3 282 286 287
3 282 287 283
3 283 288 289
3 284 289 290
3 285 290 291
3 286 291 292
3 287 292 288
3 289 284 283
3 290 285 284
3 291 286 285
3 292 287 286
3 288 283 287
3 293 290 289
3 293 291 290
3 293 292 291
3 293 288 292
3 293 289 288
3 318 319 320
3 318 320 321
3 318 321 322
3 318 322 323
3 318 323 319
3 319 324 325
3 320 325 326
3 321 326 327
3 322 327 328
3 323 328 324
3 325 320 319
3 326 321 320
3 327 322 321
3 328 323 322
3 324 319 323
3 329 326 325
3 329 327 326
3 329 328 327
3 329 324 328
3 329 325 324
3 330 331 332
3 330 332 333
3 330 333 334
3 330 334 335
3 330 335 331
3 331 336 337
3 332 337 338
3 333 338 339
3 334 339 340
3 335 340 336
3 337 332 331
3 338 333 332
3 339 334 333
3 340 335 334
3 336 331 335
3 341 338 337
3 341 339 338
3 341 340 339
3 341 336 340
3 341 337 336
3 354 355 356
3 354 356 357
3 354 357 358
3 354 358 359
3 354 359 355
3 355 360 361
3 356 361 362
3 357 362 363
3 358 363 364
3 359 364 360
3 361 356 355
3 362 357 356
3 363 358 357
3 364 359 358
3 360 355 359
3 365 362 361
3 365 363 362
3 365 364 363
3 365 360 364
3 365 361 360
3 414 415 416
3 414 416 417
3 418 419 415
3 418 415 414
3 420 421 419
3 420 419 418
3 417 416 421
3 417 421 420
3 422 414 417
3 422 417 423
3 424 418 414
3 424 414 422
3 425 420 418
3 425 418 424
3 423 417 420
3 423 420 425
3 426 422 423
3 426 423 427
3 428 424 422
3 428 422 426
3 429 425 424
3 429 424 428
3 427 423 425
3 427 425 429
3 419 421 416
3 419 416 415
3 428 426 427
3 429 428 427
3 430 431 432
3 430 432 433
3 434 435 431
3 434 431 430
3 436 437 435
3 436 435 434
3 433 432 437
3 433 437 436
3 438 430 433
3 438 433 439
3 440 434 430
3 440 430 438
3 441 436 434
3 441 434 440
3 439 433 436
3 439 436 441
3 435 437 432
3 435 432 431
3 440 438 439
3 441 440 439
3 442 443 444
3 442 444 445
3 446 447 443
3 446 443 442
3 448 449 447
3 448 447 446
3 445 444 449
3 445 449 448
3 447 449 444
3 447 444 443
3 446 442 445
3 448 446 445
3 450 451 452
3 450 452 453
3 454 455 451
3 454 451 450
3 456 457 455
3 456 455 454
3 453 452 457
3 453 457 456
3 458 450 453
3 458 453 459
3 460 454 450
3 460 450 458
3 461 456 454
3 461 454 460
3 459 453 456
3 459 456 461
3 462 458 459
3 462 459 463
3 464 460 458
3 464 458 462
3 465 461 460
3 465 460 464
3 463 459 461
3 463 461 465
3 455 457 452
3 455 452 451
3 464 462 463
3 465 464 463
3 466 467 468
3 466 468 469
3 470 471 467
3 470 467 466
3 472 473 471
3 472 471 470
3 469 468 473
3 469 473 472
3 471 473 468
3 471 468 467
3 474 475 476
3 474 476 477
3 478 479 475
3 478 475 474
3 480 481 479
3 480 479 478
3 477 476 481
3 477 481 480
3 479 481 476
3 479 476 475
3 530 531 532
3 530 532 533
3 533 532 534
3 533 534 535
3 535 534 536
3 535 536 537
3 537 536 538
3 531 539 540
3 531 540 532
3 532 540 541
3 532 541 534
3 534 541 542
3 534 542 536
3 536 542 538
3 539 543 544
3 539 544 540
3 540 544 545
3 540 545 541
3 541 545 546
3 541 546 542
3 542 546 538
3 543 547 548
3 543 548 544
3 544 548 549
3 544 549 545
3 545 549 550
3 545 550 546
3 546 550 538
3 547 551 552
3 547 552 548
3 548 552 553
3 548 553 549
3 549 553 554
3 549 554 550
3 550 554 538
3 551 555 556
3 551 556 552
3 552 556 557
3 552 557 553
3 553 557 558
3 553 558 554
3 554 558 538
3 555 559 560
3 555 560 556
3 556 560 561
3 556 561 557
3 557 561 562
3 557 562 558
3 558 562 538
3 559 563 564
3 559 564 560
3 560 564 565
3 560 565 561
3 561 565 566
3 561 566 562
3 562 566 538
3 563 567 568
3 563 568 564
3 564 568 569
3 564 569 565
3 565 569 570
3 565 570 566
3 566 570 538
3 567 571 572
3 567 572 568
3 568 572 573
3 568 573 569
3 569 573 574
3 569 574 570
3 570 574 538
3 571 575 576
3 571 576 572
3 572 576 577
3 572 577 573
3 573 577 578
3 573 578 574
3 574 578 538
3 575 579 580
3 575 580 576
3 576 580 581
3 576 581 577
3 577 581 582
3 577 582 578
3 578 582 538
3 579 583 584
3 579 584 580
3 580 584 585
3 580 585 581
3 581 585 586
3 581 586 582
3 582 586 538
3 583 587 588
3 583 588 584
3 584 588 589
3 584 589 585
3 585 589 590
3 585 590 586
3 586 590 538
3 587 591 592
3 587 592 588
3 588 592 593
3 588 593 589
3 589 593 594
3 589 594 590
3 590 594 538
3 591 530 533
3 591 533 592
3 592 533 535
3 592 535 593
3 593 535 537
3 593 537 594
3 594 537 538
3 591 587 583
3 591 583 531
3 583 579 575
3 583 575 567
3 575 571 567
3 567 563 559
3 567 559 551
3 559 555 551
3 551 547 543
3 551 543 531
3 543 539 531
3 567 551 531
3 567 531 583
3 530 591 531
