ply
format ascii 1.0
comment created by MATLAB nix_write_ply
element vertex 502
property float x
property float y
property float z
element face 976
property list uchar int vertex_index
end_header
-0.008039 0.031715 0.004024
-0.012207 0.025887 0.000180
-0.000020 0.026798 0.000311
-0.013741 0.021703 0.000030
-0.020930 0.025688 0.000706
-0.000227 0.022435 0.000067
0.014084 0.021397 0.000505
0.009234 0.030255 0.006142
-0.030100 0.018538 0.000544
-0.025906 0.003756 0.000065
-0.016276 -0.002222 0.000066
0.013893 0.013455 0.000071
-0.032300 0.009750 0.000056
0.021422 0.006762 0.000435
0.017039 0.016386 0.002714
0.017748 0.003760 0.000073
-0.032677 0.001671 0.000788
-0.035566 0.007646 0.001967
-0.032336 -0.005920 0.000168
0.022389 -0.004778 0.000596
0.018308 -0.011002 0.000296
-0.036094 -0.000586 0.002678
-0.027204 -0.014923 0.000000
0.012246 -0.019808 0.000649
0.020395 -0.011970 0.001942
-0.001512 -0.021643 0.000072
-0.023721 -0.020486 0.000593
-0.033453 -0.017071 0.005369
-0.015819 -0.024287 0.000370
0.010228 -0.022700 0.000598
0.000883 -0.027294 0.000360
-0.012738 0.032029 0.004965
-0.034720 0.014136 0.002721
-0.039265 -0.005662 0.008405
-0.003276 -0.031413 0.004574
-0.004350 0.034431 0.008641
-0.022616 0.028683 0.005082
0.018137 0.022500 0.005415
-0.031666 0.021577 0.004803
0.023777 0.013443 0.004307
0.027381 -0.001928 0.006952
0.015023 -0.022306 0.004477
0.010552 -0.024808 0.002534
-0.018598 -0.027599 0.002924
-0.024351 -0.026049 0.005273
0.020919 0.020587 0.008307
-0.036592 0.020136 0.016059
0.020434 -0.015434 0.005120
-0.031492 -0.022450 0.011601
-0.023197 -0.028488 0.008523
-0.013603 -0.033890 0.016308
0.008007 -0.030676 0.011112
0.028772 0.000866 0.012585
0.011541 -0.029843 0.016186
-0.009482 0.035054 0.009444
-0.032183 0.024577 0.008996
-0.040176 0.009667 0.012049
-0.042155 0.003169 0.016551
0.023045 -0.016871 0.013729
0.011010 0.031428 0.010912
0.021309 0.022466 0.010807
0.023952 0.019586 0.013338
0.003504 0.036162 0.022497
-0.014516 0.035866 0.020541
-0.038168 -0.013854 0.014012
-0.006214 0.036734 0.015881
-0.039850 -0.009211 0.014818
0.020917 -0.020524 0.016702
-0.024585 -0.028640 0.013976
-0.029369 0.027446 0.014080
-0.005252 -0.034556 0.017467
0.025690 0.016403 0.017419
0.029026 0.002981 0.018463
-0.040855 0.010231 0.018039
-0.041864 0.000004 0.024000
0.027499 -0.006460 0.026588
0.026123 -0.013091 0.029627
-0.030095 -0.024659 0.019883
0.021154 0.024523 0.029020
-0.039707 -0.011926 0.029740
0.012782 0.030471 0.019632
-0.037798 -0.015048 0.027824
-0.000939 -0.033913 0.029689
-0.011804 -0.034763 0.022918
-0.010678 0.036026 0.021398
-0.034248 0.023577 0.031055
0.025018 0.017820 0.030802
0.028838 0.000736 0.027700
0.026840 0.012678 0.027184
-0.019582 -0.031103 0.024836
0.016738 -0.026089 0.029246
-0.007255 -0.034750 0.024139
-0.038212 0.017858 0.024607
0.022562 -0.018097 0.030595
0.004838 0.034910 0.026532
-0.028583 0.028166 0.035280
0.011594 0.031329 0.033269
-0.009066 0.035642 0.030604
-0.039861 0.013610 0.034368
-0.041570 0.005812 0.032605
0.029328 0.002587 0.039088
-0.015328 -0.033616 0.037893
-0.001506 0.036256 0.031922
-0.038432 0.018625 0.034039
-0.039399 -0.013336 0.037397
0.019984 -0.021628 0.040585
0.011134 -0.029967 0.037454
-0.027429 -0.026865 0.036774
0.025937 0.015113 0.041208
-0.018733 0.033900 0.041218
-0.030740 -0.024663 0.037774
-0.008485 -0.034150 0.038468
0.004889 0.035560 0.038616
0.025959 -0.013695 0.042926
-0.007162 0.036049 0.041304
0.023845 0.020190 0.041056
-0.013166 0.036042 0.040652
-0.042126 -0.001342 0.041245
0.000128 -0.033645 0.048294
-0.038678 0.018162 0.043386
-0.041839 0.004757 0.052267
0.027690 0.010429 0.045436
0.003628 0.036255 0.045324
0.025404 0.017523 0.050512
-0.036182 -0.018303 0.052832
0.016746 -0.026087 0.049375
-0.014303 -0.033924 0.045338
-0.023348 -0.029466 0.052964
-0.013710 0.036319 0.049815
0.012292 -0.029138 0.048337
-0.034879 0.022789 0.052316
0.020737 0.024774 0.054730
0.013570 0.029881 0.055641
-0.027070 0.029396 0.060273
-0.042696 -0.000362 0.057797
0.026334 -0.013334 0.058678
-0.013697 -0.033945 0.059915
-0.039440 -0.013067 0.053428
-0.017871 -0.032086 0.058028
-0.015748 0.035860 0.052989
0.029310 0.001137 0.062598
0.018408 -0.024291 0.056808
0.026670 0.015091 0.054734
0.000130 -0.033639 0.058348
0.005204 0.035840 0.054586
-0.006618 0.036271 0.055397
-0.038910 0.017023 0.057250
-0.030295 -0.025041 0.054213
-0.016721 0.035309 0.062500
-0.037479 -0.016803 0.061805
0.011386 -0.029622 0.064672
-0.009821 -0.033926 0.078904
-0.007202 0.035534 0.063242
0.007176 0.034441 0.065857
0.021166 0.024484 0.072220
0.022587 -0.018469 0.066342
-0.036842 0.020590 0.067974
-0.040011 -0.012926 0.066356
-0.027466 -0.026864 0.071401
-0.012422 0.035521 0.073271
0.026874 -0.012448 0.069005
0.026893 0.014722 0.065372
-0.038713 0.017352 0.071795
0.028873 -0.001595 0.076619
-0.042892 -0.000079 0.069734
-0.036823 -0.018295 0.075128
0.017704 -0.025026 0.075759
0.009477 -0.030583 0.077581
0.030091 0.006612 0.067699
0.015084 0.028686 0.077366
-0.038979 -0.014702 0.076994
0.020378 -0.021458 0.077037
0.005399 0.035339 0.079609
-0.024823 0.030691 0.081432
0.022712 0.022339 0.078009
-0.036196 0.021334 0.074629
0.027236 0.013616 0.080331
0.027549 -0.007763 0.082995
-0.040024 -0.011525 0.078496
-0.015812 -0.032827 0.074591
-0.000304 -0.033819 0.076492
-0.038897 0.016262 0.085149
0.028646 0.009006 0.080304
-0.032957 -0.023249 0.079915
-0.032191 0.024897 0.077007
-0.015659 0.035437 0.076613
-0.042218 -0.000018 0.077559
0.022360 -0.016215 0.086782
-0.036442 -0.017103 0.082577
0.009511 0.032627 0.088890
0.027496 -0.000805 0.084375
-0.041274 -0.002820 0.081466
0.016290 -0.025390 0.082175
0.004079 -0.031557 0.084467
-0.004986 -0.033723 0.083080
-0.028712 -0.024590 0.089321
-0.040571 -0.005931 0.083446
-0.011434 -0.033951 0.086223
-0.009222 0.034695 0.086679
0.022611 0.019531 0.088021
0.018440 -0.021532 0.088426
-0.016505 -0.031434 0.084308
-0.017041 0.034712 0.088706
0.028696 0.005920 0.091623
-0.031532 -0.020798 0.087042
0.020406 0.024020 0.088089
-0.025959 0.027872 0.087943
-0.032785 0.024310 0.087035
-0.037944 -0.009177 0.088696
0.026021 -0.012019 0.087849
-0.039481 0.005744 0.087543
-0.037648 0.014108 0.091152
0.015234 -0.025793 0.091322
0.008900 -0.030388 0.090157
0.000228 -0.031521 0.089774
-0.009221 0.035552 0.094443
0.028649 -0.000996 0.093080
-0.041827 0.002600 0.090578
-0.026197 0.029850 0.094256
-0.034699 -0.016456 0.091373
0.019360 0.025425 0.101465
-0.036808 0.017821 0.096439
-0.033053 -0.021583 0.093884
0.006055 0.034261 0.094773
-0.021440 0.031052 0.092057
-0.032752 0.023813 0.093470
0.021279 0.021719 0.100280
-0.039367 -0.003459 0.092729
-0.039064 -0.009219 0.092445
-0.022558 -0.030120 0.093398
0.004444 -0.032256 0.093650
-0.007658 -0.033132 0.092603
-0.041675 0.006610 0.094427
0.027117 -0.009714 0.097657
0.023728 -0.016847 0.092488
-0.014430 0.034764 0.095940
-0.041579 -0.001282 0.100588
0.000302 -0.033695 0.097038
-0.020060 0.033653 0.097986
-0.039373 0.016053 0.099244
0.020324 -0.022059 0.098094
0.010786 -0.029608 0.098255
-0.013572 0.035217 0.102356
0.026687 0.012207 0.107729
0.029051 0.000740 0.100100
-0.039721 -0.011082 0.099410
-0.025266 0.030312 0.101375
0.010969 0.031397 0.103806
-0.029657 -0.025637 0.104569
-0.040226 0.012789 0.109818
0.026448 -0.012800 0.105412
-0.010493 -0.033976 0.107919
0.004424 0.034225 0.109137
-0.034265 -0.020558 0.114333
-0.035580 0.020572 0.105519
0.005743 -0.031939 0.111668
-0.007929 0.035521 0.104552
0.028799 0.000983 0.111533
0.017627 -0.024863 0.109063
-0.014705 -0.033633 0.113874
-0.009184 0.035504 0.112423
-0.004684 -0.033993 0.120211
-0.030779 0.025495 0.107458
0.021901 0.021651 0.106973
-0.038041 -0.015127 0.107584
-0.041028 0.003809 0.111370
-0.041495 -0.000019 0.112965
0.000158 -0.033736 0.122454
0.019710 0.024144 0.115502
-0.022618 0.031860 0.117711
-0.039925 0.016010 0.118413
0.021194 -0.020031 0.116869
0.001538 0.035322 0.115358
-0.015425 0.034544 0.117232
0.028901 0.003717 0.115708
0.026430 -0.012684 0.121056
-0.023653 -0.029104 0.117246
0.013030 0.030078 0.122271
-0.040831 -0.005785 0.118363
0.028454 -0.001551 0.123365
-0.033655 0.022848 0.123763
0.027502 0.010974 0.116865
0.009117 -0.030778 0.125693
-0.014313 -0.033259 0.127902
0.004379 0.034192 0.118070
-0.040996 0.005257 0.121322
0.020859 0.023346 0.126539
0.017227 -0.025106 0.126761
-0.009221 0.035515 0.124660
-0.017964 0.034089 0.124544
-0.024842 0.030407 0.128135
-0.031440 -0.024782 0.138022
-0.005979 -0.033186 0.134808
-0.000221 0.035526 0.124717
-0.035533 0.021298 0.126071
0.028987 0.000020 0.125793
-0.030769 0.025470 0.131050
0.025244 0.018085 0.131713
0.015444 0.028336 0.128218
0.028661 0.007723 0.129063
-0.039429 -0.011846 0.132986
0.005192 0.035281 0.128762
-0.039172 0.014128 0.139022
-0.041667 -0.001502 0.134714
-0.015981 0.034377 0.133220
0.006463 0.034172 0.131514
0.027763 -0.006207 0.131969
-0.037693 -0.017049 0.133988
-0.011586 0.035417 0.136321
0.029223 0.000347 0.138050
0.022893 -0.018296 0.135008
0.026310 -0.013256 0.130230
0.021651 0.022125 0.131282
0.016196 0.027701 0.134031
-0.041078 0.006017 0.131395
0.018092 -0.024655 0.137779
-0.022805 -0.029090 0.137095
-0.034449 0.022189 0.135961
-0.001421 -0.033966 0.140403
-0.015236 -0.032828 0.141835
0.028145 -0.010187 0.146105
0.002161 0.035330 0.139932
-0.025921 0.029563 0.142735
-0.040968 0.011232 0.142496
-0.038693 -0.015773 0.143469
-0.034887 -0.020506 0.140031
-0.031388 -0.024666 0.147366
0.013404 -0.028925 0.141061
0.019600 0.025526 0.145457
0.026549 0.015339 0.147861
0.028689 0.007200 0.145590
-0.041679 -0.002248 0.149450
-0.001510 0.035509 0.143669
0.029618 -0.000044 0.144648
0.027429 -0.011657 0.146157
0.006739 0.034676 0.144347
-0.040020 0.015297 0.143132
-0.042054 -0.000105 0.150077
0.017409 -0.026105 0.151285
-0.011771 -0.033977 0.148102
-0.017752 0.034937 0.149153
0.014445 -0.028685 0.148368
0.022059 0.021815 0.150473
-0.041148 0.005586 0.153815
-0.027738 -0.026185 0.159550
-0.014366 0.035531 0.153729
-0.020576 0.033105 0.155263
0.003488 0.035287 0.156698
-0.036183 0.020592 0.155089
0.023855 -0.015129 0.160044
0.018504 0.025822 0.156761
-0.029686 0.026474 0.156166
-0.039334 0.014815 0.158669
0.001101 -0.033060 0.157997
0.028010 -0.009267 0.151166
-0.033330 -0.023197 0.152845
-0.037884 -0.012611 0.160019
-0.041483 -0.001475 0.156080
0.020955 0.021404 0.162339
0.025431 0.014309 0.159621
0.007504 0.032635 0.161813
-0.033588 -0.018733 0.165033
-0.013150 -0.033563 0.160477
-0.039062 -0.007854 0.162256
0.015088 -0.027677 0.159244
0.017474 -0.024683 0.161315
-0.015885 0.034359 0.159827
-0.021368 0.031193 0.162879
0.027116 -0.006179 0.162590
-0.028317 0.026250 0.163806
-0.039161 0.006941 0.165105
-0.030656 -0.022912 0.166346
-0.006825 0.033838 0.164463
-0.034141 0.021281 0.162905
-0.025216 -0.027208 0.167158
0.017294 0.026112 0.163902
0.023988 0.005918 0.171981
-0.039358 -0.002460 0.165353
0.015969 -0.025265 0.164421
0.005461 -0.030270 0.166025
-0.003114 -0.032857 0.164908
-0.014564 0.030672 0.168885
0.021755 -0.016650 0.167906
0.019516 0.020819 0.168655
-0.013926 -0.031783 0.166024
-0.007259 -0.031368 0.169414
0.009693 0.026892 0.174006
-0.023025 0.028524 0.167595
-0.035956 -0.008917 0.170467
0.020722 0.012361 0.174472
-0.037174 -0.003687 0.171540
-0.028846 -0.020942 0.171925
0.011007 -0.022058 0.177115
-0.031093 0.019630 0.171021
0.023817 -0.001421 0.173376
-0.006696 0.029838 0.174129
-0.023118 0.024178 0.173990
0.002913 0.027557 0.176366
0.017542 -0.015524 0.176191
-0.017801 -0.026264 0.176833
0.006183 -0.024950 0.175989
0.011417 0.023578 0.176613
-0.029857 -0.014609 0.176569
0.012912 0.019138 0.179266
-0.032302 0.011378 0.176634
0.021365 -0.006957 0.177233
0.018739 0.009194 0.179497
-0.023646 -0.022429 0.177780
-0.009253 -0.028109 0.176320
-0.017980 0.025112 0.177498
-0.004452 -0.026940 0.177951
-0.027722 0.014193 0.180894
-0.027725 -0.005168 0.186248
0.007829 -0.020140 0.181667
-0.009041 0.025076 0.181696
-0.021612 0.019311 0.183026
-0.030444 -0.000120 0.183436
0.017909 0.004153 0.182765
0.010277 0.020397 0.181312
0.014301 -0.015320 0.180483
-0.000049 -0.022962 0.181985
-0.025239 0.005861 0.188713
-0.021344 -0.012875 0.187567
-0.015536 -0.020780 0.185330
-0.009388 -0.019284 0.187461
0.002407 0.023364 0.182442
0.015647 -0.005891 0.185217
0.011390 0.010819 0.188343
0.006845 -0.013105 0.189966
-0.005808 0.019052 0.189485
-0.016083 0.018893 0.186815
-0.013314 0.014007 0.193543
-0.021363 0.011131 0.189818
0.014214 -0.004049 0.187262
-0.005479 -0.018401 0.189561
-0.003312 0.015796 0.193162
0.006003 0.013372 0.191517
-0.023443 -0.003924 0.192362
-0.020105 -0.008270 0.192341
-0.011118 -0.015588 0.193303
0.001701 -0.013803 0.195082
0.009224 0.003766 0.195004
0.003618 0.012825 0.197254
-0.019196 0.009237 0.194909
-0.020981 -0.002159 0.197656
0.009024 -0.005257 0.193922
-0.005355 -0.016814 0.192676
0.006839 -0.009426 0.197197
-0.018233 -0.011477 0.198198
-0.011435 -0.015654 0.197355
-0.006695 0.015900 0.197412
-0.014818 0.012850 0.197894
0.010984 -0.000674 0.201809
-0.003266 -0.015828 0.196163
0.000598 0.015607 0.199420
-0.022857 0.003126 0.202038
0.009958 0.005087 0.199013
-0.016870 0.013341 0.202531
-0.021605 -0.005463 0.200963
-0.012605 -0.015449 0.202537
-0.001445 -0.016569 0.204000
-0.009841 0.016616 0.201141
0.006380 0.012730 0.203707
-0.022751 -0.001236 0.210713
0.010373 -0.004507 0.208127
-0.019156 -0.011048 0.205599
0.007458 -0.010453 0.204749
0.004791 -0.012443 0.208889
-0.000717 0.016104 0.208311
-0.011070 0.016216 0.210842
-0.020286 0.009658 0.210734
-0.022046 -0.006422 0.211564
-0.021378 0.004865 0.212231
-0.001611 -0.017186 0.211100
-0.010377 -0.016150 0.211999
-0.008149 0.016375 0.211723
0.005537 0.011936 0.211370
-0.002126 0.014297 0.212525
0.009503 0.003000 0.212554
0.003015 -0.011229 0.212514
-0.012469 0.012074 0.212537
-0.010498 0.005250 0.212406
0.006843 0.003731 0.212412
-0.020783 0.000014 0.212475
-0.017881 0.034391 0.112382
-0.017560 0.034017 0.112382
-0.017560 0.034764 0.112382
0.022567 0.022435 0.128028
0.022888 0.022062 0.128028
0.023209 0.022435 0.128028
0.006837 0.034764 0.131381
0.006837 0.034017 0.131381
0.007158 0.034391 0.131381
-0.042599 0.005250 0.144233
-0.042599 0.005250 0.145350
-0.042599 0.005624 0.144791
-0.042599 0.003756 0.145350
-0.042920 0.003756 0.144791
-0.042278 0.003756 0.144791
-0.004398 -0.017166 0.192847
-0.004077 -0.017539 0.192847
-0.004077 -0.016792 0.192847
3 1 2 0
3 1 4 3
3 2 1 5
3 7 2 6
3 3 4 8
3 3 5 1
3 6 2 5
3 9 3 8
3 10 11 5
3 10 5 3
3 5 11 6
3 12 9 8
3 10 3 9
3 13 14 11
3 15 13 11
3 10 15 11
3 16 9 12
3 12 17 16
3 18 9 16
3 15 19 13
3 18 10 9
3 20 19 15
3 21 18 16
3 10 20 15
3 22 10 18
3 23 20 10
3 24 20 23
3 25 23 10
3 22 27 26
3 26 10 22
3 26 28 10
3 28 25 10
3 29 23 25
3 30 29 25
3 28 30 25
3 0 31 1
3 11 14 6
3 12 8 32
3 12 32 17
3 21 33 18
3 24 19 20
3 18 27 22
3 30 28 34
3 0 2 35
3 4 1 31
3 2 7 35
3 4 36 8
3 37 7 6
3 32 8 38
3 14 13 39
3 16 17 21
3 13 19 40
3 19 24 40
3 29 42 41
3 26 44 43
3 28 26 43
3 29 30 42
3 6 14 37
3 14 39 45
3 40 39 13
3 41 23 29
3 44 26 27
3 34 28 43
3 4 31 36
3 36 38 8
3 46 17 32
3 27 18 33
3 47 40 24
3 24 23 47
3 23 41 47
3 44 27 48
3 43 44 49
3 50 43 49
3 42 30 51
3 46 32 38
3 14 45 37
3 52 39 40
3 42 53 41
3 51 30 34
3 50 34 43
3 31 0 54
3 55 38 36
3 56 57 17
3 57 21 17
3 58 52 40
3 53 42 51
3 7 37 59
3 59 37 60
3 38 55 46
3 17 46 56
3 0 35 54
3 45 60 37
3 39 52 61
3 58 40 47
3 62 35 59
3 35 7 59
3 63 31 54
3 61 45 39
3 21 57 33
3 27 33 64
3 58 47 41
3 48 49 44
3 65 54 35
3 63 36 31
3 61 60 45
3 57 66 33
3 48 27 64
3 58 41 67
3 67 41 53
3 49 48 68
3 36 69 55
3 64 33 66
3 70 34 50
3 52 71 61
3 72 71 52
3 56 73 57
3 66 57 74
3 75 52 58
3 76 75 58
3 68 48 77
3 46 55 69
3 61 78 60
3 66 74 79
3 77 48 64
3 68 50 49
3 51 34 70
3 65 35 62
3 62 59 80
3 63 69 36
3 78 61 71
3 81 64 66
3 81 77 64
3 51 70 53
3 59 60 80
3 53 70 82
3 70 50 83
3 84 54 65
3 63 54 84
3 60 78 80
3 85 46 69
3 78 71 86
3 73 56 46
3 87 88 71
3 89 68 77
3 67 53 90
3 68 83 50
3 72 87 71
3 74 57 73
3 72 52 75
3 58 67 76
3 70 83 91
3 85 92 46
3 73 46 92
3 76 67 93
3 81 66 79
3 86 71 88
3 87 72 75
3 82 70 91
3 84 65 62
3 80 94 62
3 69 63 95
3 96 80 78
3 67 90 93
3 85 69 95
3 63 84 97
3 73 92 98
3 74 73 99
3 75 100 87
3 89 83 68
3 62 94 84
3 80 96 94
3 83 89 101
3 102 84 94
3 98 92 103
3 99 73 98
3 97 84 102
3 100 88 87
3 79 104 81
3 105 93 90
3 53 106 90
3 101 89 107
3 108 86 88
3 109 63 97
3 103 92 85
3 110 77 81
3 106 53 82
3 111 82 91
3 91 83 101
3 94 112 102
3 95 63 109
3 113 93 105
3 107 89 77
3 100 108 88
3 97 102 114
3 93 113 76
3 104 110 81
3 111 91 101
3 96 112 94
3 115 86 108
3 74 99 79
3 107 77 110
3 116 109 97
3 104 79 117
3 106 105 90
3 118 82 111
3 114 102 112
3 85 119 103
3 78 86 115
3 98 120 99
3 113 100 75
3 76 113 75
3 116 97 114
3 108 100 121
3 79 99 117
3 118 106 82
3 114 112 122
3 123 115 108
3 98 103 119
3 99 120 117
3 104 124 110
3 125 105 106
3 101 107 126
3 115 96 78
3 126 107 127
3 116 114 128
3 125 106 129
3 111 101 126
3 85 95 130
3 96 115 131
3 98 119 120
3 118 111 126
3 128 114 122
3 132 112 96
3 85 130 119
3 121 123 108
3 128 109 116
3 112 132 122
3 95 109 133
3 117 120 134
3 135 100 113
3 125 113 105
3 136 118 126
3 131 115 123
3 124 104 137
3 126 127 138
3 109 128 139
3 96 131 132
3 140 121 100
3 104 117 137
3 141 113 125
3 107 110 127
3 118 129 106
3 142 123 121
3 143 129 118
3 143 118 136
3 144 122 132
3 109 139 133
3 133 130 95
3 128 122 145
3 145 122 144
3 130 146 119
3 117 134 137
3 110 147 127
3 119 146 120
3 140 100 135
3 124 147 110
3 136 126 138
3 145 139 128
3 148 133 139
3 124 137 149
3 150 129 143
3 142 131 123
3 143 136 151
3 139 145 152
3 132 153 144
3 131 154 132
3 154 131 142
3 135 141 155
3 141 135 113
3 141 125 150
3 125 129 150
3 145 144 152
3 148 139 152
3 146 130 156
3 140 142 121
3 149 137 157
3 158 127 147
3 148 152 159
3 120 146 134
3 135 160 140
3 124 149 147
3 153 152 144
3 161 154 142
3 137 134 157
3 162 146 156
3 134 146 162
3 163 140 160
3 157 134 164
3 149 157 165
3 158 147 149
3 150 166 141
3 143 167 150
3 168 142 140
3 166 155 141
3 158 149 165
3 138 127 158
3 169 153 132
3 161 142 168
3 164 134 162
3 168 140 163
3 160 135 155
3 170 165 157
3 171 155 166
3 169 132 154
3 166 150 167
3 152 153 172
3 172 153 169
3 173 133 148
3 156 130 133
3 161 174 154
3 133 175 156
3 176 161 168
3 163 160 177
3 157 164 178
3 171 160 155
3 179 136 138
3 180 143 151
3 143 180 167
3 181 164 162
3 163 182 168
3 165 183 158
3 158 179 138
3 151 136 179
3 173 184 133
3 157 178 170
3 152 172 159
3 169 154 174
3 162 156 175
3 176 174 161
3 182 176 168
3 148 159 185
3 184 175 133
3 164 181 186
3 177 160 187
3 173 148 185
3 164 186 178
3 160 171 187
3 170 188 165
3 179 158 183
3 181 162 175
3 189 172 169
3 163 177 190
3 191 178 186
3 178 188 170
3 166 192 171
3 192 166 167
3 180 193 167
3 194 180 151
3 165 188 183
3 192 167 193
3 179 183 195
3 190 182 163
3 196 178 191
3 194 151 197
3 185 159 198
3 199 174 176
3 200 171 192
3 151 179 201
3 194 193 180
3 185 198 202
3 202 173 185
3 203 176 182
3 204 183 188
3 197 151 201
3 198 159 172
3 174 205 169
3 207 184 206
3 207 175 184
3 181 175 207
3 178 196 208
3 188 178 208
3 209 177 187
3 195 183 204
3 205 174 199
3 176 203 199
3 181 211 210
3 186 181 210
3 212 200 192
3 195 201 179
3 192 193 213
3 193 194 214
3 215 202 198
3 184 173 206
3 189 169 205
3 203 182 190
3 216 203 190
3 191 186 210
3 210 217 191
3 196 191 217
3 209 190 177
3 212 192 213
3 218 207 206
3 211 181 207
3 204 188 219
3 200 187 171
3 189 205 220
3 211 207 221
3 188 208 219
3 195 204 222
3 198 172 223
3 223 172 189
3 173 224 206
3 225 207 218
3 220 205 226
3 227 208 196
3 219 208 228
3 229 201 195
3 214 230 193
3 213 193 230
3 231 214 194
3 197 201 229
3 173 202 224
3 211 232 210
3 196 217 227
3 233 190 209
3 209 187 234
3 215 235 202
3 218 206 224
3 226 205 199
3 217 210 232
3 227 228 208
3 219 222 204
3 194 197 231
3 198 223 215
3 224 202 235
3 221 207 225
3 236 228 227
3 237 230 214
3 218 224 238
3 224 235 238
3 232 211 221
3 232 221 239
3 217 232 227
3 233 216 190
3 234 233 209
3 200 234 187
3 212 240 200
3 212 213 241
3 237 214 231
3 242 235 215
3 199 243 226
3 203 216 244
3 236 245 228
3 245 222 219
3 240 234 200
3 246 218 238
3 247 189 220
3 227 232 236
3 233 244 216
3 228 245 219
3 248 229 195
3 241 213 230
3 231 197 229
3 189 247 223
3 203 243 199
3 232 239 249
3 240 250 234
3 248 195 222
3 237 231 251
3 252 215 223
3 218 246 225
3 243 203 244
3 222 253 248
3 212 241 240
3 254 221 225
3 232 249 236
3 237 255 230
3 251 231 229
3 242 215 256
3 239 221 254
3 257 244 233
3 235 242 238
3 238 242 246
3 258 250 240
3 251 229 259
3 242 256 260
3 241 258 240
3 230 255 241
3 237 261 255
3 246 262 225
3 254 225 262
3 220 226 263
3 249 239 254
3 245 264 222
3 222 264 253
3 263 226 243
3 236 249 265
3 236 266 245
3 250 257 233
3 233 234 250
3 259 229 248
3 267 255 261
3 261 237 251
3 215 252 256
3 247 220 268
3 243 244 257
3 246 242 269
3 236 265 266
3 258 241 255
3 262 246 269
3 254 262 270
3 250 258 271
3 256 252 272
3 242 260 273
3 252 223 247
3 263 268 220
3 274 243 257
3 275 250 271
3 276 259 248
3 273 269 242
3 268 277 247
3 249 254 270
3 245 266 278
3 257 250 279
3 260 256 272
3 252 247 277
3 280 262 269
3 243 281 263
3 261 251 259
3 279 250 275
3 270 262 280
3 245 278 264
3 255 282 258
3 283 259 276
3 252 277 284
3 270 265 249
3 243 274 281
3 266 265 285
3 282 255 267
3 286 268 281
3 263 281 268
3 274 257 279
3 282 287 258
3 288 273 260
3 272 252 284
3 269 273 289
3 265 270 285
3 287 271 258
3 253 276 248
3 261 259 283
3 290 280 269
3 276 253 291
3 292 261 283
3 293 272 284
3 270 280 294
3 266 285 278
3 260 272 293
3 289 273 288
3 295 281 274
3 295 274 279
3 296 280 290
3 281 297 286
3 268 298 277
3 286 298 268
3 299 297 281
3 299 281 295
3 264 278 300
3 301 284 277
3 253 264 300
3 293 284 301
3 290 269 289
3 270 294 302
3 285 303 278
3 288 260 293
3 289 288 304
3 277 305 301
3 295 279 306
3 253 300 307
3 308 288 293
3 280 296 294
3 309 299 295
3 311 271 310
3 271 287 310
3 261 292 267
3 312 313 298
3 298 286 312
3 286 297 312
3 285 270 314
3 285 314 303
3 306 279 275
3 275 271 311
3 291 253 307
3 315 287 282
3 283 276 316
3 305 277 298
3 316 276 291
3 304 288 308
3 293 301 308
3 289 304 290
3 317 294 296
3 306 309 295
3 303 300 278
3 306 275 311
3 318 282 267
3 292 283 319
3 318 267 292
3 302 294 317
3 270 302 314
3 311 320 306
3 315 310 287
3 301 305 308
3 321 308 305
3 305 298 313
3 322 296 290
3 320 309 306
3 319 283 316
3 296 322 317
3 314 323 303
3 307 300 324
3 325 291 307
3 324 325 307
3 316 291 326
3 327 315 282
3 305 313 321
3 328 313 312
3 299 329 297
3 309 330 299
3 303 331 300
3 327 282 318
3 308 321 332
3 297 328 312
3 320 333 309
3 310 334 311
3 335 321 313
3 328 297 329
3 302 317 336
3 314 302 323
3 337 303 323
3 320 311 334
3 310 315 338
3 339 292 319
3 318 292 339
3 290 304 322
3 309 333 330
3 324 300 331
3 326 291 325
3 304 308 340
3 323 302 336
3 299 330 329
3 315 341 338
3 327 341 315
3 332 340 308
3 332 321 335
3 304 340 322
3 303 337 331
3 334 310 338
3 318 341 327
3 335 313 328
3 329 342 328
3 337 323 343
3 316 344 319
3 340 332 345
3 346 322 340
3 332 335 347
3 348 336 317
3 349 334 338
3 344 316 326
3 339 319 344
3 328 350 335
3 322 346 351
3 352 336 348
3 323 336 352
3 318 339 353
3 343 323 352
3 354 333 320
3 354 320 334
3 325 324 355
3 325 355 326
3 347 335 350
3 331 357 356
3 324 331 356
3 345 332 347
3 345 346 340
3 351 317 322
3 358 342 329
3 330 359 329
3 337 357 331
3 360 347 350
3 350 328 342
3 324 361 355
3 318 353 341
3 362 339 344
3 357 337 343
3 357 363 356
3 354 334 349
3 344 326 355
3 365 338 364
3 364 338 341
3 346 345 366
3 351 348 317
3 356 361 324
3 349 338 365
3 346 367 351
3 329 359 358
3 354 368 333
3 362 353 339
3 367 346 366
3 351 367 369
3 364 341 353
3 342 358 350
3 352 370 343
3 349 368 354
3 361 371 355
3 345 347 372
3 347 360 372
3 373 352 348
3 355 371 344
3 362 344 374
3 375 360 350
3 348 351 373
3 376 330 333
3 376 333 368
3 363 357 377
3 371 374 344
3 378 365 364
3 353 379 364
3 380 353 362
3 372 366 345
3 367 366 381
3 349 365 382
3 353 380 379
3 351 369 373
3 358 375 350
3 358 359 383
3 343 370 377
3 330 376 359
3 357 343 377
3 374 384 362
3 385 362 384
3 380 362 385
3 366 372 381
3 360 386 372
3 367 387 369
3 356 363 388
3 364 379 378
3 367 381 387
3 383 359 389
3 390 388 363
3 391 371 361
3 392 378 379
3 373 369 393
3 375 358 383
3 389 359 376
3 370 390 377
3 368 394 376
3 377 390 363
3 349 394 368
3 378 382 365
3 372 395 381
3 360 375 386
3 387 396 369
3 356 388 361
3 379 380 385
3 386 397 372
3 396 393 369
3 352 373 393
3 352 393 370
3 394 349 382
3 378 398 382
3 374 399 384
3 361 388 391
3 392 398 378
3 391 374 371
3 379 400 392
3 395 372 397
3 375 401 386
3 391 388 402
3 375 383 401
3 401 383 403
3 383 389 403
3 404 370 393
3 394 382 405
3 406 389 376
3 376 394 406
3 407 399 374
3 408 385 384
3 387 381 409
3 387 409 396
3 410 379 385
3 410 385 408
3 404 393 396
3 370 404 390
3 405 382 398
3 374 391 407
3 404 396 411
3 406 403 389
3 402 388 412
3 391 402 407
3 413 392 400
3 400 379 410
3 399 408 384
3 414 395 397
3 414 409 381
3 381 395 414
3 396 409 415
3 404 416 390
3 417 406 394
3 394 405 417
3 412 390 416
3 412 388 390
3 397 386 401
3 397 401 418
3 401 403 418
3 419 398 392
3 400 420 413
3 411 421 404
3 416 404 421
3 407 402 422
3 410 420 400
3 399 423 408
3 410 408 424
3 397 418 425
3 426 398 419
3 405 398 426
3 413 419 392
3 407 423 399
3 425 414 397
3 396 415 411
3 427 418 403
3 413 428 419
3 420 410 424
3 425 429 414
3 430 409 414
3 409 430 415
3 427 403 406
3 426 417 405
3 426 419 428
3 414 429 431
3 432 415 430
3 432 411 415
3 432 421 411
3 433 417 426
3 402 412 422
3 434 413 420
3 408 423 424
3 425 435 429
3 421 412 416
3 422 423 407
3 423 422 424
3 424 434 420
3 431 430 414
3 418 427 425
3 417 427 406
3 425 436 435
3 436 425 427
3 427 417 433
3 437 412 421
3 437 422 412
3 434 428 413
3 433 426 428
3 437 438 422
3 439 424 422
3 440 428 434
3 441 436 427
3 424 439 434
3 435 436 442
3 432 430 443
3 421 432 444
3 444 437 421
3 445 433 428
3 438 439 422
3 440 434 446
3 435 431 429
3 431 443 430
3 443 444 432
3 441 427 433
3 445 441 433
3 437 444 438
3 445 428 447
3 428 440 447
3 438 448 439
3 446 439 449
3 434 439 446
3 450 431 435
3 436 441 442
3 431 451 443
3 441 445 452
3 449 439 448
3 450 451 431
3 440 446 453
3 449 453 446
3 450 435 454
3 454 435 442
3 443 451 455
3 443 455 444
3 456 441 452
3 442 441 456
3 455 451 457
3 458 438 444
3 438 458 448
3 448 459 449
3 453 449 460
3 450 461 451
3 454 442 462
3 462 442 456
3 455 463 444
3 458 444 463
3 452 445 464
3 464 445 447
3 458 465 448
3 459 448 465
3 459 460 449
3 447 440 466
3 467 466 440
3 460 467 440
3 460 440 453
3 461 450 468
3 468 450 454
3 451 461 457
3 461 469 457
3 470 455 457
3 458 463 471
3 464 447 466
3 462 468 454
3 471 465 458
3 470 472 455
3 455 472 463
3 473 460 459
3 457 469 470
3 459 465 474
3 473 467 460
3 475 461 468
3 468 462 476
3 474 473 459
3 469 461 475
3 468 476 477
3 456 476 462
3 478 476 456
3 478 456 452
3 478 452 464
3 464 466 467
3 464 467 479
3 477 475 468
3 480 470 469
3 469 475 480
3 475 477 481
3 475 481 480
3 477 476 482
3 477 482 481
3 472 470 480
3 476 478 482
3 472 480 481
3 472 481 483
3 483 463 472
3 478 464 482
3 481 482 479
3 479 482 464
3 463 483 471
3 481 479 483
3 471 483 474
3 483 479 474
3 465 471 474
3 479 473 474
3 479 467 473
3 485 486 484
3 484 486 485
3 488 489 487
3 487 489 488
3 491 492 490
3 490 492 491
3 494 495 493
3 494 493 495
3 497 498 496
3 496 498 497
3 500 501 499
3 499 501 500
