ply
format ascii 1.0
comment created by MATLAB nix_write_ply
element vertex 90
property float x
property float y
property float z
element face 176
property list uchar int vertex_index
end_header
0.038632 0.038632 0.012220
0.038632 -0.038632 0.012220
-0.038632 -0.038632 0.012220
-0.038632 0.038632 0.012220
0.078960 0.078960 0.198679
0.078960 -0.078960 0.198679
-0.078960 -0.078960 0.198679
-0.078960 0.078960 0.198679
0.051568 0.051568 0.031256
0.077470 0.077470 0.069647
0.083038 0.083038 0.098673
0.080003 0.080003 0.135876
0.055595 0.055595 0.166118
0.051568 -0.051568 0.031256
0.077470 -0.077470 0.069647
0.083038 -0.083038 0.098673
0.080003 -0.080003 0.135876
0.055595 -0.055595 0.166118
-0.051568 -0.051568 0.031256
-0.077470 -0.077470 0.069647
-0.083038 -0.083038 0.098673
-0.080003 -0.080003 0.135876
-0.055595 -0.055595 0.166118
-0.051568 0.051568 0.031256
-0.077470 0.077470 0.069647
-0.083038 0.083038 0.098673
-0.080003 0.080003 0.135876
-0.055595 0.055595 0.166118
-0.052427 0.052427 0.000000
-0.052427 -0.052427 0.000000
0.052427 -0.052427 0.000000
0.052427 0.052427 0.000000
0.000000 0.050221 0.012220
0.000000 -0.050221 0.012220
0.000000 0.102648 0.198679
-0.000000 -0.102648 0.198679
0.000000 -0.067038 0.031256
-0.000000 -0.100711 0.069647
-0.000000 -0.107950 0.098673
-0.000000 -0.104004 0.135876
-0.000000 -0.072273 0.166118
0.000000 0.072273 0.166118
0.000000 0.104004 0.135876
0.000000 0.107950 0.098673
0.000000 0.100711 0.069647
0.000000 0.067038 0.031256
0.000000 -0.068155 0.000000
0.000000 0.068155 0.000000
0.050221 0.000000 0.012220
-0.050221 0.000000 0.012220
0.102648 -0.000000 0.198679
-0.102648 0.000000 0.198679
0.067038 0.000000 0.031256
0.100711 -0.000000 0.069647
0.107950 -0.000000 0.098673
0.104004 -0.000000 0.135876
0.072273 -0.000000 0.166118
-0.067038 0.000000 0.031256
-0.100711 0.000000 0.069647
-0.107950 0.000000 0.098673
-0.104004 0.000000 0.135876
-0.072273 0.000000 0.166118
-0.068155 0.000000 0.000000
0.068155 0.000000 0.000000
0.000000 0.000000 0.000000
-0.062800 0.062800 0.198679
-0.081639 0.000000 0.198679
-0.062800 -0.062799 0.198679
0.062799 -0.062800 0.198679
0.081639 -0.000000 0.198679
0.062800 0.062799 0.198679
-0.000000 -0.081639 0.198679
0.000000 0.081639 0.198679
0.039629 0.039629 0.157282
0.000000 0.051518 0.157282
-0.039629 0.039629 0.157282
-0.000000 -0.051518 0.157282
0.039629 -0.039629 0.157282
-0.039629 -0.039629 0.157282
0.051518 -0.000000 0.157282
-0.051518 0.000000 0.157282
-0.051518 0.000000 0.039457
-0.039629 0.039629 0.039457
-0.039629 -0.039629 0.039457
0.039629 -0.039629 0.039457
0.051518 -0.000000 0.039457
0.039629 0.039629 0.039457
-0.000000 -0.051518 0.039457
0.000000 0.051518 0.039457
0.000000 -0.000000 0.039457
3 13 36 33
3 13 33 1
3 36 18 2
3 36 2 33
3 14 37 36
3 14 36 13
3 37 19 18
3 37 18 36
3 15 38 37
3 15 37 14
3 38 20 19
3 38 19 37
3 16 39 38
3 16 38 15
3 39 21 20
3 39 20 38
3 17 40 39
3 17 39 16
3 40 22 21
3 40 21 39
3 5 35 40
3 5 40 17
3 35 6 22
3 35 22 40
3 12 41 34
3 12 34 4
3 41 27 7
3 41 7 34
3 11 42 41
3 11 41 12
3 42 26 27
3 42 27 41
3 10 43 42
3 10 42 11
3 43 25 26
3 43 26 42
3 9 44 43
3 9 43 10
3 44 24 25
3 44 25 43
3 8 45 44
3 8 44 9
3 45 23 24
3 45 24 44
3 0 32 45
3 0 45 8
3 32 3 23
3 32 23 45
3 1 33 46
3 1 46 30
3 33 2 29
3 33 29 46
3 3 32 47
3 3 47 28
3 32 0 31
3 32 31 47
3 48 0 8
3 48 8 52
3 52 13 1
3 52 1 48
3 9 53 52
3 9 52 8
3 53 14 13
3 53 13 52
3 10 54 53
3 10 53 9
3 54 15 14
3 54 14 53
3 11 55 54
3 11 54 10
3 55 16 15
3 55 15 54
3 12 56 55
3 12 55 11
3 56 17 16
3 56 16 55
3 4 50 56
3 4 56 12
3 50 5 17
3 50 17 56
3 18 57 49
3 18 49 2
3 57 23 3
3 57 3 49
3 19 58 57
3 19 57 18
3 58 24 23
3 58 23 57
3 20 59 58
3 20 58 19
3 59 25 24
3 59 24 58
3 21 60 59
3 21 59 20
3 60 26 25
3 60 25 59
3 22 61 60
3 22 60 21
3 61 27 26
3 61 26 60
3 6 51 61
3 6 61 22
3 51 7 27
3 51 27 61
3 2 49 62
3 2 62 29
3 49 3 28
3 49 28 62
3 0 48 63
3 0 63 31
3 48 1 30
3 48 30 63
3 46 64 63
3 46 63 30
3 64 47 31
3 64 31 63
3 29 62 64
3 29 64 46
3 62 28 47
3 62 47 64
3 7 51 66
3 7 66 65
3 51 6 67
3 51 67 66
3 5 50 69
3 5 69 68
3 50 4 70
3 50 70 69
3 6 35 71
3 6 71 67
3 35 5 68
3 35 68 71
3 34 7 65
3 34 65 72
3 4 34 72
3 4 72 70
3 70 72 74
3 70 74 73
3 72 65 75
3 72 75 74
3 71 68 77
3 71 77 76
3 67 71 76
3 67 76 78
3 69 70 73
3 69 73 79
3 68 69 79
3 68 79 77
3 66 67 78
3 66 78 80
3 65 66 80
3 65 80 75
3 75 80 81
3 75 81 82
3 80 78 83
3 80 83 81
3 77 79 85
3 77 85 84
3 79 73 86
3 79 86 85
3 78 76 87
3 78 87 83
3 76 77 84
3 76 84 87
3 74 75 82
3 74 82 88
3 73 74 88
3 73 88 86
3 81 83 87
3 81 87 89
3 82 81 89
3 82 89 88
3 89 87 84
3 89 84 85
3 88 89 85
3 88 85 86
