ply
format ascii 1.0
comment created by MATLAB nix_write_ply
element vertex 761
property float x
property float y
property float z
element face 726
property list uchar int vertex_index
end_header
0.017132 -0.079923 0.077672
0.028107 -0.028153 0.074180
0.020527 0.038851 0.055742
0.011808 0.109880 0.075647
0.000002 -0.079923 0.072335
0.000002 -0.031420 0.060025
0.000002 0.038851 0.055564
0.018059 -0.077884 0.169423
0.028372 -0.020700 0.163686
0.027186 0.041328 0.155465
0.018059 0.093774 0.152265
0.000002 -0.077884 0.164334
0.033373 -0.085048 0.110788
0.043686 -0.005022 0.107299
0.042500 0.013827 0.107299
0.028527 0.113093 0.110788
0.058613 0.046652 0.076234
0.047409 0.092579 0.079985
0.047409 0.097504 0.114732
0.041334 0.080381 0.141556
0.043300 0.059557 0.148025
0.058613 0.047600 0.110981
0.053045 -0.068551 0.078496
0.053045 -0.039204 0.075005
0.053045 -0.025618 0.109754
0.046328 -0.037690 0.141745
0.046328 -0.068551 0.145234
0.053045 -0.073676 0.113243
0.016277 0.051413 0.034625
0.023922 0.115584 0.048894
0.050041 0.100494 0.048189
0.059339 0.060287 0.037788
0.023590 -0.069244 0.043166
0.021614 -0.024959 0.040266
0.053494 -0.034143 0.047640
0.055036 -0.062832 0.050540
0.025782 -0.074331 0.023779
0.013594 -0.047053 0.012552
0.057452 -0.049186 0.011038
0.048012 -0.073864 0.022753
0.012916 -0.047693 0.000000
0.056775 -0.053475 0.000000
0.012564 -0.092467 0.012002
0.011853 -0.093064 0.000000
0.051429 -0.097985 0.000000
0.052085 -0.097362 0.012813
0.000002 0.100851 0.148844
0.007618 0.100913 0.147828
0.014113 0.108705 0.130761
0.000002 0.115738 0.140620
0.003516 0.116053 0.137162
0.008308 0.120792 0.126885
0.000002 -0.095077 0.082591
0.025597 -0.095010 0.085503
0.035392 -0.097327 0.117534
0.025351 -0.095855 0.150292
0.000002 -0.095798 0.155827
0.020361 -0.115686 0.091046
0.028902 -0.125644 0.114842
0.020550 -0.121987 0.145592
0.009753 -0.136237 0.088204
0.016454 -0.135115 0.104661
0.010038 -0.140586 0.126256
0.012603 -0.153876 0.110042
0.006950 -0.157498 0.120135
0.010950 -0.151228 0.094920
0.006358 -0.145022 0.084695
0.022338 -0.053214 0.176434
0.000002 -0.050615 0.171495
0.024688 -0.104102 0.139872
0.029021 -0.108591 0.151351
0.009885 -0.104102 0.147494
0.020968 -0.109461 0.160738
0.024801 -0.110516 0.140074
0.028037 -0.111270 0.156232
0.009998 -0.110516 0.147696
0.016719 -0.112557 0.159779
0.027924 -0.108460 0.156030
0.016606 -0.109747 0.159577
0.029134 -0.111401 0.151553
0.021082 -0.112271 0.160941
0.028313 0.008422 0.061505
0.000002 0.009335 0.051669
0.030382 0.008859 0.159872
0.000002 0.009741 0.168880
0.012564 0.035786 0.012002
0.022726 0.095489 0.010403
0.012916 0.089478 0.000000
0.011853 0.035189 0.000000
0.049456 0.089365 0.009517
0.051566 0.091232 0.000000
0.050383 0.030577 0.012813
0.049727 0.029955 0.000000
0.020563 0.062278 0.023305
0.054371 0.069677 0.026544
0.028233 -0.010786 0.065228
0.000002 -0.012230 0.055666
0.064357 0.062346 0.000000
0.060066 0.063373 0.010792
0.052518 0.077099 0.020125
0.059311 0.079198 0.042680
0.057570 0.071031 0.078225
0.057646 0.072172 0.112828
0.042300 0.070150 0.144734
0.022441 0.068597 0.155496
0.059160 -0.051851 0.111658
0.059160 -0.051394 0.076455
0.059609 -0.049510 0.049378
0.058392 -0.062718 0.017462
0.061018 -0.072071 0.011882
0.060199 -0.074072 0.000000
0.035187 -0.045895 0.167657
0.036096 -0.075087 0.153989
0.041653 -0.083419 0.111822
0.035186 -0.078323 0.078086
0.034046 -0.069425 0.046237
0.036461 -0.074107 0.023286
0.034535 -0.103607 0.012453
0.028549 -0.103559 0.000000
0.039196 -0.023745 0.044610
0.035396 -0.041392 0.011870
0.035592 -0.044240 0.000000
0.052291 0.031220 0.109308
0.040482 0.039493 0.066478
0.038678 0.052583 0.036270
0.037358 0.060697 0.024914
0.034318 0.022782 0.012469
0.029061 0.022802 0.000000
0.030124 -0.085470 0.149775
0.008333 0.069659 0.000000
0.012697 0.067587 0.011235
0.018191 0.077569 0.018357
0.015681 0.087002 0.042538
0.012695 0.069115 0.061488
0.000002 0.074787 0.063916
0.028440 0.106919 0.077674
0.037823 0.109936 0.048519
0.036299 0.102124 0.010024
0.031474 0.099135 0.000000
0.014782 -0.129433 0.133442
0.026529 -0.123845 0.129357
0.033758 -0.096643 0.131533
0.034047 -0.085245 0.134464
0.038043 -0.078006 0.139217
0.008151 -0.150320 0.095694
0.005173 -0.148731 0.096435
0.005173 -0.151909 0.094953
0.006166 -0.152840 0.103290
0.011105 -0.152111 0.110243
0.008127 -0.153805 0.109019
0.009119 -0.149605 0.102264
0.008127 -0.150417 0.109674
0.025413 -0.094249 0.011980
0.017748 -0.092572 0.012810
0.013915 -0.109652 0.001832
0.021484 -0.091338 0.007737
0.013270 -0.103606 0.007475
0.018647 -0.104952 0.006793
0.015797 -0.103070 0.003770
0.035404 -0.098333 0.012215
0.027418 -0.097619 0.012787
0.025879 -0.109023 0.007353
0.031525 -0.109690 0.006853
0.031126 -0.095927 0.007837
0.028472 -0.108172 0.003732
0.028255 -0.114883 0.001760
0.042900 -0.097198 0.012305
0.034844 -0.096977 0.012746
0.034798 -0.108430 0.007298
0.040515 -0.108748 0.006892
0.038496 -0.095059 0.007856
0.037395 -0.107419 0.003720
0.038015 -0.114118 0.001751
0.047263 -0.092980 0.012429
0.039251 -0.093748 0.012604
0.042179 -0.105023 0.007204
0.047909 -0.104637 0.006987
0.042707 -0.091393 0.007832
0.044725 -0.103696 0.003711
0.047001 -0.110217 0.001790
0.025413 0.033507 0.011980
0.017748 0.035184 0.012810
0.013270 0.024151 0.007475
0.018647 0.022805 0.006793
0.021484 0.036418 0.007737
0.015797 0.024687 0.003770
0.013915 0.018105 0.001832
0.035404 0.029424 0.012215
0.027418 0.030138 0.012787
0.025879 0.018734 0.007353
0.031525 0.018067 0.006853
0.031126 0.031830 0.007837
0.028472 0.019585 0.003732
0.028255 0.012874 0.001760
0.042900 0.030559 0.012305
0.034844 0.030780 0.012746
0.034798 0.019327 0.007298
0.040515 0.019009 0.006892
0.038496 0.032698 0.007856
0.037395 0.020338 0.003720
0.038015 0.013639 0.001751
0.047263 0.034776 0.012429
0.039251 0.034009 0.012604
0.042179 0.022733 0.007204
0.047909 0.023119 0.006987
0.042707 0.036364 0.007832
0.044725 0.024061 0.003711
0.047001 0.017540 0.001790
0.000002 -0.115922 0.089165
0.000002 -0.140766 0.128553
0.000002 -0.149244 0.084663
-0.017128 -0.079923 0.077672
-0.028103 -0.028153 0.074180
-0.020523 0.038851 0.055742
-0.028309 0.008422 0.061505
0.000002 0.104098 0.079990
-0.011804 0.109880 0.075647
-0.012691 0.069115 0.061488
-0.018055 -0.077884 0.169423
-0.022334 -0.053214 0.176434
-0.028368 -0.020700 0.163686
-0.030378 0.008859 0.159872
0.000002 -0.027526 0.166786
-0.027182 0.041328 0.155465
-0.022437 0.068597 0.155496
0.000002 0.069921 0.155501
0.000002 0.048587 0.163692
-0.059156 -0.051394 0.076455
-0.053041 -0.039204 0.075005
-0.053041 -0.025618 0.109754
-0.059156 -0.051851 0.111658
-0.042496 0.013827 0.107299
-0.058609 0.046652 0.076234
-0.057566 0.071031 0.078225
-0.057642 0.072172 0.112828
-0.058609 0.047600 0.110981
-0.046324 -0.037690 0.141745
-0.043682 -0.005022 0.107299
-0.042296 0.070150 0.144734
-0.043296 0.059557 0.148025
0.000002 0.115141 0.110788
-0.028523 0.113093 0.110788
-0.008304 0.120792 0.126885
0.000002 0.122561 0.120647
-0.003512 0.116053 0.137162
-0.028436 0.106919 0.077674
-0.018055 0.093774 0.152265
-0.041330 0.080381 0.141556
-0.047405 0.097504 0.114732
-0.052287 0.031220 0.109308
-0.040478 0.039493 0.066478
-0.036092 -0.075087 0.153989
-0.046324 -0.068551 0.145234
-0.035183 -0.045895 0.167657
-0.038039 -0.078006 0.139217
-0.035182 -0.078323 0.078086
-0.053041 -0.068551 0.078496
-0.053041 -0.073676 0.113243
-0.041649 -0.083419 0.111822
-0.023918 0.115584 0.048894
-0.015677 0.087002 0.042538
-0.037819 0.109936 0.048519
-0.059335 0.060287 0.037788
-0.059307 0.079198 0.042680
-0.038674 0.052583 0.036270
-0.021610 -0.024959 0.040266
-0.023586 -0.069244 0.043166
-0.039192 -0.023745 0.044610
-0.059605 -0.049510 0.049378
-0.053490 -0.034143 0.047640
-0.034042 -0.069425 0.046237
-0.055032 -0.062832 0.050540
-0.013590 -0.047053 0.012552
-0.025778 -0.074331 0.023779
-0.035392 -0.041392 0.011870
-0.058388 -0.062718 0.017462
-0.057448 -0.049186 0.011038
-0.036457 -0.074107 0.023286
-0.048008 -0.073864 0.022753
-0.012560 -0.092467 0.012002
-0.012912 -0.047693 0.000000
-0.011849 -0.093064 0.000000
-0.035588 -0.044240 0.000000
-0.061014 -0.072071 0.011882
-0.060195 -0.074072 0.000000
-0.056771 -0.053475 0.000000
-0.052081 -0.097362 0.012813
-0.034531 -0.103607 0.012453
-0.028545 -0.103559 0.000000
-0.051425 -0.097985 0.000000
-0.022722 0.095489 0.010403
-0.018187 0.077569 0.018357
-0.036295 0.102124 0.010024
-0.054367 0.069677 0.026544
-0.052514 0.077099 0.020125
-0.037354 0.060697 0.024914
0.000002 0.093774 0.147639
-0.007614 0.100913 0.147828
-0.014109 0.108705 0.130761
0.000002 0.108669 0.130835
-0.025593 -0.095010 0.085503
-0.033369 -0.085048 0.110788
-0.035388 -0.097327 0.117534
-0.034043 -0.085245 0.134464
-0.030120 -0.085470 0.149775
-0.025347 -0.095855 0.150292
-0.033754 -0.096643 0.131533
-0.020357 -0.115686 0.091046
-0.028898 -0.125644 0.114842
-0.020546 -0.121987 0.145592
-0.026525 -0.123845 0.129357
0.000002 -0.122108 0.150024
-0.016450 -0.135115 0.104661
-0.009749 -0.136237 0.088204
-0.014778 -0.129433 0.133442
0.000002 -0.130916 0.136013
-0.010034 -0.140586 0.126256
-0.006946 -0.157498 0.120135
-0.012599 -0.153876 0.110042
0.000002 -0.161765 0.121541
0.000002 -0.144301 0.107798
0.000002 -0.155207 0.095306
-0.010946 -0.151228 0.094920
-0.006354 -0.145022 0.084695
-0.024684 -0.104102 0.139872
-0.009881 -0.104102 0.147494
-0.016602 -0.109747 0.159577
-0.020964 -0.109461 0.160738
-0.027920 -0.108460 0.156030
-0.029017 -0.108591 0.151351
-0.024797 -0.110516 0.140074
-0.029130 -0.111401 0.151553
-0.028033 -0.111270 0.156232
-0.021078 -0.112271 0.160941
-0.016715 -0.112557 0.159779
-0.009994 -0.110516 0.147696
-0.028229 -0.010786 0.065228
-0.012693 0.067587 0.011235
-0.012912 0.089478 0.000000
-0.008329 0.069659 0.000000
-0.031470 0.099135 0.000000
-0.060062 0.063373 0.010792
-0.050379 0.030577 0.012813
-0.049723 0.029955 0.000000
-0.064353 0.062346 0.000000
-0.034314 0.022782 0.012469
-0.029057 0.022802 0.000000
-0.011849 0.035189 0.000000
-0.051562 0.091232 0.000000
-0.049452 0.089365 0.009517
-0.050037 0.100494 0.048189
-0.047405 0.092579 0.079985
-0.016273 0.051413 0.034625
-0.020559 0.062278 0.023305
-0.012560 0.035786 0.012002
-0.008147 -0.150320 0.095694
-0.005169 -0.148731 0.096435
-0.006162 -0.152840 0.103290
-0.005169 -0.151909 0.094953
-0.011101 -0.152111 0.110243
-0.008123 -0.153805 0.109019
-0.009115 -0.149605 0.102264
-0.008123 -0.150417 0.109674
-0.025409 -0.094249 0.011980
-0.017744 -0.092572 0.012810
-0.013266 -0.103606 0.007475
-0.018643 -0.104952 0.006793
-0.021480 -0.091338 0.007737
-0.015793 -0.103070 0.003770
-0.013911 -0.109652 0.001832
-0.035400 -0.098333 0.012215
-0.027414 -0.097619 0.012787
-0.025875 -0.109023 0.007353
-0.031521 -0.109690 0.006853
-0.031122 -0.095927 0.007837
-0.028468 -0.108172 0.003732
-0.028251 -0.114883 0.001760
-0.042896 -0.097198 0.012305
-0.034840 -0.096977 0.012746
-0.034794 -0.108430 0.007298
-0.040511 -0.108748 0.006892
-0.038492 -0.095059 0.007856
-0.037391 -0.107419 0.003720
-0.038011 -0.114118 0.001751
-0.047259 -0.092980 0.012429
-0.039247 -0.093748 0.012604
-0.042175 -0.105023 0.007204
-0.047905 -0.104637 0.006987
-0.042703 -0.091393 0.007832
-0.044721 -0.103696 0.003711
-0.046997 -0.110217 0.001790
-0.025409 0.033507 0.011980
-0.017744 0.035184 0.012810
-0.013266 0.024151 0.007475
-0.018643 0.022805 0.006793
-0.021480 0.036418 0.007737
-0.015793 0.024687 0.003770
-0.013911 0.018105 0.001832
-0.035400 0.029424 0.012215
-0.027414 0.030138 0.012787
-0.025875 0.018734 0.007353
-0.031521 0.018067 0.006853
-0.031122 0.031830 0.007837
-0.028468 0.019585 0.003732
-0.028251 0.012874 0.001760
-0.042896 0.030559 0.012305
-0.034840 0.030780 0.012746
-0.034794 0.019327 0.007298
-0.040511 0.019009 0.006892
-0.038492 0.032698 0.007856
-0.037391 0.020338 0.003720
-0.038011 0.013639 0.001751
-0.047259 0.034776 0.012429
-0.039247 0.034009 0.012604
-0.042175 0.022733 0.007204
-0.047905 0.023119 0.006987
-0.042703 0.036364 0.007832
-0.044721 0.024061 0.003711
-0.046997 0.017540 0.001790
0.000002 -0.157890 0.106062
0.000002 -0.136533 0.087369
0.020527 0.038851 0.055742
0.028313 0.008422 0.061505
0.011808 0.109880 0.075647
0.000002 0.104098 0.079990
0.011808 0.109880 0.075647
0.011808 0.109880 0.075647
0.028107 -0.028153 0.074180
0.028107 -0.028153 0.074180
0.011808 0.109880 0.075647
0.012695 0.069115 0.061488
0.011808 0.109880 0.075647
0.023922 0.115584 0.048894
0.023922 0.115584 0.048894
0.011808 0.109880 0.075647
0.017132 -0.079923 0.077672
0.028107 -0.028153 0.074180
0.017132 -0.079923 0.077672
0.028107 -0.028153 0.074180
0.021614 -0.024959 0.040266
0.021614 -0.024959 0.040266
0.013594 -0.047053 0.012552
0.021614 -0.024959 0.040266
0.013594 -0.047053 0.012552
0.035396 -0.041392 0.011870
0.012916 -0.047693 0.000000
0.012916 -0.047693 0.000000
0.013594 -0.047053 0.012552
0.035396 -0.041392 0.011870
0.057452 -0.049186 0.011038
0.025782 -0.074331 0.023779
0.013594 -0.047053 0.012552
0.011853 -0.093064 0.000000
0.012916 -0.047693 0.000000
0.035592 -0.044240 0.000000
0.011853 -0.093064 0.000000
0.035592 -0.044240 0.000000
0.056775 -0.053475 0.000000
0.011853 -0.093064 0.000000
0.056775 -0.053475 0.000000
0.060199 -0.074072 0.000000
0.060199 -0.074072 0.000000
0.051429 -0.097985 0.000000
0.028549 -0.103559 0.000000
0.011853 -0.093064 0.000000
0.060199 -0.074072 0.000000
0.028549 -0.103559 0.000000
0.057452 -0.049186 0.011038
0.058392 -0.062718 0.017462
0.048012 -0.073864 0.022753
0.036461 -0.074107 0.023286
0.048012 -0.073864 0.022753
0.022726 0.095489 0.010403
0.022726 0.095489 0.010403
0.023922 0.115584 0.048894
0.000002 0.100851 0.148844
0.007618 0.100913 0.147828
0.000002 0.100851 0.148844
0.007618 0.100913 0.147828
0.014113 0.108705 0.130761
0.007618 0.100913 0.147828
0.014113 0.108705 0.130761
0.000002 0.108669 0.130835
0.014113 0.108705 0.130761
0.017132 -0.079923 0.077672
0.025597 -0.095010 0.085503
0.017132 -0.079923 0.077672
0.025597 -0.095010 0.085503
0.016454 -0.135115 0.104661
0.010950 -0.151228 0.094920
0.010950 -0.151228 0.094920
0.028313 0.008422 0.061505
0.028233 -0.010786 0.065228
0.022726 0.095489 0.010403
0.022726 0.095489 0.010403
0.036299 0.102124 0.010024
0.012916 0.089478 0.000000
0.022726 0.095489 0.010403
0.018191 0.077569 0.018357
0.022726 0.095489 0.010403
0.008333 0.069659 0.000000
0.012916 0.089478 0.000000
0.031474 0.099135 0.000000
0.008333 0.069659 0.000000
0.031474 0.099135 0.000000
0.008333 0.069659 0.000000
0.064357 0.062346 0.000000
0.064357 0.062346 0.000000
0.049727 0.029955 0.000000
0.029061 0.022802 0.000000
0.064357 0.062346 0.000000
0.029061 0.022802 0.000000
0.052518 0.077099 0.020125
0.054371 0.069677 0.026544
0.054371 0.069677 0.026544
0.037358 0.060697 0.024914
0.054371 0.069677 0.026544
0.037358 0.060697 0.024914
0.028107 -0.028153 0.074180
0.028233 -0.010786 0.065228
0.028233 -0.010786 0.065228
0.051566 0.091232 0.000000
0.051566 0.091232 0.000000
0.052518 0.077099 0.020125
0.049456 0.089365 0.009517
0.049456 0.089365 0.009517
0.058392 -0.062718 0.017462
0.058392 -0.062718 0.017462
0.048012 -0.073864 0.022753
0.017132 -0.079923 0.077672
0.017132 -0.079923 0.077672
0.023590 -0.069244 0.043166
0.023590 -0.069244 0.043166
0.023590 -0.069244 0.043166
0.025782 -0.074331 0.023779
0.023590 -0.069244 0.043166
0.025782 -0.074331 0.023779
0.036461 -0.074107 0.023286
0.025782 -0.074331 0.023779
0.028107 -0.028153 0.074180
0.028107 -0.028153 0.074180
0.057452 -0.049186 0.011038
0.056775 -0.053475 0.000000
0.035396 -0.041392 0.011870
0.057452 -0.049186 0.011038
0.020527 0.038851 0.055742
0.020527 0.038851 0.055742
0.020527 0.038851 0.055742
0.020563 0.062278 0.023305
0.037358 0.060697 0.024914
0.020563 0.062278 0.023305
0.011853 0.035189 0.000000
0.011853 0.035189 0.000000
0.011853 0.035189 0.000000
0.020563 0.062278 0.023305
0.020563 0.062278 0.023305
0.018191 0.077569 0.018357
0.020563 0.062278 0.023305
0.016277 0.051413 0.034625
0.016277 0.051413 0.034625
0.016277 0.051413 0.034625
0.020527 0.038851 0.055742
0.012695 0.069115 0.061488
0.012695 0.069115 0.061488
0.016277 0.051413 0.034625
0.049456 0.089365 0.009517
0.049456 0.089365 0.009517
0.051566 0.091232 0.000000
0.036299 0.102124 0.010024
0.049456 0.089365 0.009517
0.005173 -0.148731 0.096435
0.006166 -0.152840 0.103290
0.008127 -0.153805 0.109019
0.009119 -0.149605 0.102264
0.010950 -0.151228 0.094920
0.010950 -0.151228 0.094920
0.000002 -0.155207 0.095306
0.000002 -0.161765 0.121541
0.020361 -0.115686 0.091046
0.020361 -0.115686 0.091046
0.020361 -0.115686 0.091046
0.009753 -0.136237 0.088204
0.009753 -0.136237 0.088204
0.016454 -0.135115 0.104661
0.012603 -0.153876 0.110042
0.012603 -0.153876 0.110042
0.000002 -0.157890 0.106062
0.009753 -0.136237 0.088204
0.006358 -0.145022 0.084695
0.006358 -0.145022 0.084695
0.000002 -0.149244 0.084663
-0.020523 0.038851 0.055742
-0.028309 0.008422 0.061505
-0.011804 0.109880 0.075647
0.000002 0.104098 0.079990
-0.011804 0.109880 0.075647
-0.011804 0.109880 0.075647
-0.028103 -0.028153 0.074180
-0.028103 -0.028153 0.074180
-0.011804 0.109880 0.075647
-0.012691 0.069115 0.061488
-0.011804 0.109880 0.075647
-0.011804 0.109880 0.075647
-0.023918 0.115584 0.048894
-0.023918 0.115584 0.048894
-0.017128 -0.079923 0.077672
-0.028103 -0.028153 0.074180
-0.017128 -0.079923 0.077672
-0.028103 -0.028153 0.074180
-0.021610 -0.024959 0.040266
-0.021610 -0.024959 0.040266
-0.013590 -0.047053 0.012552
-0.021610 -0.024959 0.040266
-0.013590 -0.047053 0.012552
-0.035392 -0.041392 0.011870
-0.013590 -0.047053 0.012552
-0.012912 -0.047693 0.000000
-0.012912 -0.047693 0.000000
-0.035392 -0.041392 0.011870
-0.057448 -0.049186 0.011038
-0.025778 -0.074331 0.023779
-0.013590 -0.047053 0.012552
-0.028545 -0.103559 0.000000
-0.051425 -0.097985 0.000000
-0.060195 -0.074072 0.000000
-0.011849 -0.093064 0.000000
-0.028545 -0.103559 0.000000
-0.060195 -0.074072 0.000000
-0.011849 -0.093064 0.000000
-0.060195 -0.074072 0.000000
-0.056771 -0.053475 0.000000
-0.011849 -0.093064 0.000000
-0.056771 -0.053475 0.000000
-0.035588 -0.044240 0.000000
-0.011849 -0.093064 0.000000
-0.035588 -0.044240 0.000000
-0.012912 -0.047693 0.000000
-0.057448 -0.049186 0.011038
-0.058388 -0.062718 0.017462
-0.048008 -0.073864 0.022753
-0.036457 -0.074107 0.023286
-0.048008 -0.073864 0.022753
-0.023918 0.115584 0.048894
-0.022722 0.095489 0.010403
-0.022722 0.095489 0.010403
0.000002 0.100851 0.148844
-0.007614 0.100913 0.147828
0.000002 0.100851 0.148844
-0.007614 0.100913 0.147828
-0.014109 0.108705 0.130761
-0.007614 0.100913 0.147828
-0.014109 0.108705 0.130761
0.000002 0.108669 0.130835
-0.014109 0.108705 0.130761
-0.017128 -0.079923 0.077672
-0.025593 -0.095010 0.085503
-0.017128 -0.079923 0.077672
-0.025593 -0.095010 0.085503
-0.016450 -0.135115 0.104661
-0.010946 -0.151228 0.094920
-0.010946 -0.151228 0.094920
-0.028309 0.008422 0.061505
-0.028229 -0.010786 0.065228
-0.022722 0.095489 0.010403
-0.022722 0.095489 0.010403
-0.012912 0.089478 0.000000
-0.036295 0.102124 0.010024
-0.022722 0.095489 0.010403
-0.018187 0.077569 0.018357
-0.022722 0.095489 0.010403
-0.029057 0.022802 0.000000
-0.049723 0.029955 0.000000
-0.064353 0.062346 0.000000
-0.029057 0.022802 0.000000
-0.064353 0.062346 0.000000
-0.064353 0.062346 0.000000
-0.031470 0.099135 0.000000
-0.012912 0.089478 0.000000
-0.008329 0.069659 0.000000
-0.031470 0.099135 0.000000
-0.008329 0.069659 0.000000
-0.008329 0.069659 0.000000
-0.054367 0.069677 0.026544
-0.054367 0.069677 0.026544
-0.052514 0.077099 0.020125
-0.037354 0.060697 0.024914
-0.054367 0.069677 0.026544
-0.037354 0.060697 0.024914
-0.028103 -0.028153 0.074180
-0.028229 -0.010786 0.065228
-0.028229 -0.010786 0.065228
-0.051562 0.091232 0.000000
-0.051562 0.091232 0.000000
-0.052514 0.077099 0.020125
-0.049452 0.089365 0.009517
-0.049452 0.089365 0.009517
-0.048008 -0.073864 0.022753
-0.058388 -0.062718 0.017462
-0.058388 -0.062718 0.017462
-0.017128 -0.079923 0.077672
-0.023586 -0.069244 0.043166
-0.023586 -0.069244 0.043166
-0.017128 -0.079923 0.077672
-0.023586 -0.069244 0.043166
-0.025778 -0.074331 0.023779
-0.023586 -0.069244 0.043166
-0.025778 -0.074331 0.023779
-0.036457 -0.074107 0.023286
-0.025778 -0.074331 0.023779
-0.028103 -0.028153 0.074180
-0.028103 -0.028153 0.074180
-0.057448 -0.049186 0.011038
-0.035392 -0.041392 0.011870
-0.056771 -0.053475 0.000000
-0.057448 -0.049186 0.011038
-0.020523 0.038851 0.055742
-0.020523 0.038851 0.055742
-0.020523 0.038851 0.055742
-0.020559 0.062278 0.023305
-0.037354 0.060697 0.024914
-0.020559 0.062278 0.023305
-0.011849 0.035189 0.000000
-0.011849 0.035189 0.000000
-0.011849 0.035189 0.000000
-0.018187 0.077569 0.018357
-0.020559 0.062278 0.023305
-0.020559 0.062278 0.023305
-0.016273 0.051413 0.034625
-0.016273 0.051413 0.034625
-0.020559 0.062278 0.023305
-0.016273 0.051413 0.034625
-0.012691 0.069115 0.061488
-0.012691 0.069115 0.061488
-0.020523 0.038851 0.055742
-0.016273 0.051413 0.034625
-0.049452 0.089365 0.009517
-0.049452 0.089365 0.009517
-0.036295 0.102124 0.010024
-0.051562 0.091232 0.000000
-0.049452 0.089365 0.009517
-0.005169 -0.148731 0.096435
-0.006162 -0.152840 0.103290
-0.008123 -0.153805 0.109019
-0.009115 -0.149605 0.102264
0.000002 -0.155207 0.095306
-0.010946 -0.151228 0.094920
-0.010946 -0.151228 0.094920
0.000002 -0.161765 0.121541
-0.020357 -0.115686 0.091046
-0.020357 -0.115686 0.091046
-0.009749 -0.136237 0.088204
-0.009749 -0.136237 0.088204
-0.020357 -0.115686 0.091046
0.000002 -0.157890 0.106062
-0.012599 -0.153876 0.110042
-0.012599 -0.153876 0.110042
-0.016450 -0.135115 0.104661
0.000002 -0.149244 0.084663
-0.006354 -0.145022 0.084695
-0.006354 -0.145022 0.084695
-0.009749 -0.136237 0.088204
3 0 4 5
3 5 1 0
3 2 81 82
3 82 6 2
3 134 215 3
3 3 133 134
3 7 67 68
3 68 11 7
3 8 83 84
3 84 222 8
3 104 225 226
3 226 9 104
3 23 24 105
3 105 106 23
3 421 14 422
3 101 102 21
3 21 16 101
3 105 24 25
3 13 14 83
3 83 8 13
3 102 103 20
3 20 21 102
3 423 424 240
3 240 15 425
3 51 243 49
3 49 50 51
3 426 15 135
3 15 10 19
3 19 18 15
3 104 9 20
3 20 103 104
3 9 122 21
3 21 20 9
3 123 16 21
3 21 122 123
3 427 13 24
3 24 23 428
3 13 8 25
3 25 24 13
3 26 25 111
3 111 112 26
3 26 112 143
3 22 27 113
3 113 114 22
3 429 29 132
3 132 430 431
3 135 136 432
3 433 434 135
3 101 16 31
3 31 100 101
3 123 124 31
3 31 16 123
3 435 436 33
3 33 32 437
3 438 119 439
3 23 106 107
3 107 34 23
3 114 115 35
3 35 22 114
3 32 33 37
3 37 36 32
3 440 119 120
3 120 441 442
3 107 108 38
3 38 34 107
3 115 116 39
3 39 35 115
3 42 443 40
3 40 43 42
3 444 121 445
3 446 447 448
3 109 110 41
3 41 449 109
3 117 118 44
3 44 45 117
3 450 451 42
3 452 453 454
3 455 456 457
3 458 459 460
3 461 462 463
3 464 465 466
3 467 468 109
3 469 470 117
3 117 45 471
3 132 29 86
3 86 131 132
3 136 137 472
3 473 474 136
3 100 31 94
3 94 99 100
3 124 125 94
3 94 31 124
3 296 10 47
3 47 46 296
3 10 15 48
3 48 47 10
3 15 240 299
3 299 48 15
3 475 476 50
3 50 49 477
3 478 479 51
3 51 50 480
3 481 482 243
3 243 51 483
3 4 0 53
3 53 52 4
3 484 12 54
3 54 485 486
3 142 128 55
3 55 141 142
3 7 11 56
3 56 55 7
3 487 54 57
3 57 54 58
3 141 55 59
3 59 140 141
3 56 311 59
3 59 55 56
3 57 58 61
3 61 60 57
3 140 59 139
3 311 315 139
3 139 59 311
3 61 62 64
3 64 63 61
3 209 319 64
3 64 62 209
3 320 321 65
3 65 488 320
3 60 61 489
3 490 66 60
3 25 8 111
3 67 8 222
3 222 68 67
3 71 78 72
3 69 71 72
3 72 77 70
3 69 72 70
3 73 79 74
3 74 80 76
3 73 74 76
3 73 76 75
3 69 70 79
3 79 73 69
3 77 72 80
3 80 74 77
3 78 71 75
3 75 76 78
3 70 77 74
3 74 79 70
3 72 78 76
3 76 80 72
3 14 13 95
3 95 491 14
3 81 492 96
3 96 82 81
3 14 9 83
3 9 226 84
3 84 83 9
3 130 493 87
3 87 129 130
3 494 495 138
3 138 496 497
3 91 92 97
3 97 98 91
3 126 127 92
3 92 91 126
3 498 499 130
3 500 501 502
3 503 504 90
3 88 505 90
3 88 90 506
3 507 508 509
3 88 510 511
3 98 512 513
3 514 91 98
3 515 126 91
3 91 516 517
3 13 518 95
3 519 1 5
3 5 96 520
3 521 89 98
3 98 97 522
3 98 89 523
3 524 30 100
3 100 99 525
3 100 30 17
3 17 101 100
3 17 18 102
3 102 101 17
3 102 18 19
3 19 103 102
3 19 10 104
3 104 103 19
3 10 296 225
3 225 104 10
3 27 105 25
3 25 26 27
3 105 27 22
3 22 106 105
3 106 22 35
3 35 107 106
3 35 39 108
3 108 107 35
3 45 109 526
3 527 528 45
3 45 44 110
3 110 109 45
3 8 67 111
3 67 7 112
3 112 111 67
3 128 142 143
3 143 112 128
3 12 529 114
3 114 113 12
3 114 530 531
3 532 115 114
3 533 534 116
3 116 115 535
3 536 42 117
3 117 537 538
3 42 43 118
3 118 117 42
3 539 23 34
3 34 119 540
3 34 38 120
3 120 119 34
3 541 542 121
3 121 543 544
3 9 14 122
3 14 545 123
3 123 122 14
3 546 28 124
3 124 123 547
3 124 28 93
3 93 125 124
3 548 85 126
3 126 549 550
3 85 551 127
3 127 126 85
3 112 7 128
3 128 7 55
3 552 85 130
3 130 129 553
3 130 85 554
3 555 556 130
3 131 557 558
3 559 132 131
3 560 561 562
3 563 132 564
3 133 2 6
3 6 134 133
3 15 18 17
3 17 135 15
3 17 30 136
3 136 135 17
3 30 565 137
3 137 136 30
3 566 567 138
3 138 568 569
3 62 61 58
3 139 62 58
3 139 58 140
3 140 58 54
3 54 141 140
3 54 12 142
3 142 141 54
3 142 12 113
3 113 143 142
3 113 27 26
3 26 143 113
3 144 145 147
3 570 146 571
3 146 144 147
3 148 149 150
3 572 151 573
3 151 148 150
3 152 153 156
3 156 157 152
3 156 153 155
3 155 158 156
3 157 158 155
3 155 152 157
3 156 154 157
3 158 154 156
3 157 154 158
3 159 160 161
3 161 162 159
3 161 160 163
3 163 164 161
3 162 164 163
3 163 159 162
3 161 165 162
3 164 165 161
3 162 165 164
3 166 167 168
3 168 169 166
3 168 167 170
3 170 171 168
3 169 171 170
3 170 166 169
3 168 172 169
3 171 172 168
3 169 172 171
3 173 174 175
3 175 176 173
3 175 174 177
3 177 178 175
3 176 178 177
3 177 173 176
3 175 179 176
3 178 179 175
3 176 179 178
3 180 181 182
3 182 183 180
3 182 181 184
3 184 185 182
3 183 185 184
3 184 180 183
3 182 186 183
3 185 186 182
3 183 186 185
3 187 188 189
3 189 190 187
3 189 188 191
3 191 192 189
3 190 192 191
3 191 187 190
3 189 193 190
3 192 193 189
3 190 193 192
3 194 195 196
3 196 197 194
3 196 195 198
3 198 199 196
3 197 199 198
3 198 194 197
3 196 200 197
3 199 200 196
3 197 200 199
3 201 202 203
3 203 204 201
3 203 202 205
3 205 206 203
3 204 206 205
3 205 201 204
3 203 207 204
3 206 207 203
3 204 207 206
3 210 66 574
3 575 576 210
3 419 63 64
3 64 577 419
3 52 53 578
3 579 208 52
3 208 580 581
3 582 420 208
3 320 583 584
3 585 586 320
3 420 587 588
3 589 590 420
3 62 139 315
3 315 209 62
3 211 212 5
3 5 4 211
3 213 6 82
3 82 214 213
3 134 217 216
3 216 215 134
3 218 11 68
3 68 219 218
3 220 222 84
3 84 221 220
3 224 223 226
3 226 225 224
3 228 227 230
3 230 229 228
3 591 592 231
3 233 232 235
3 235 234 233
3 230 236 229
3 237 220 221
3 221 231 237
3 234 235 239
3 239 238 234
3 593 241 240
3 240 594 595
3 242 244 49
3 49 243 242
3 596 245 241
3 241 248 247
3 247 246 241
3 224 238 239
3 239 223 224
3 223 239 235
3 235 249 223
3 250 249 235
3 235 232 250
3 597 228 229
3 229 237 598
3 237 229 236
3 236 220 237
3 252 251 253
3 253 236 252
3 252 254 251
3 256 255 258
3 258 257 256
3 599 600 260
3 260 259 601
3 245 602 603
3 604 261 245
3 233 263 262
3 262 232 233
3 250 232 262
3 262 264 250
3 605 266 265
3 265 606 607
3 608 609 267
3 228 269 268
3 268 227 228
3 255 256 271
3 271 270 255
3 266 273 272
3 272 265 266
3 610 611 274
3 274 267 612
3 268 269 276
3 276 275 268
3 270 271 278
3 278 277 270
3 279 281 280
3 280 613 279
3 614 615 616
3 617 282 618
3 283 619 285
3 285 284 283
3 287 286 289
3 289 288 287
3 620 279 621
3 622 623 624
3 625 626 627
3 628 629 630
3 631 632 633
3 634 635 636
3 637 283 638
3 639 286 287
3 287 640 641
3 260 291 290
3 290 259 260
3 261 642 643
3 644 292 261
3 263 294 293
3 293 262 263
3 264 262 293
3 293 295 264
3 296 46 297
3 297 246 296
3 246 297 298
3 298 241 246
3 241 298 299
3 299 240 241
3 645 49 244
3 244 646 647
3 648 244 242
3 242 649 650
3 651 242 243
3 243 652 653
3 4 52 300
3 300 211 4
3 654 655 302
3 302 301 656
3 303 306 305
3 305 304 303
3 218 305 56
3 56 11 218
3 657 307 302
3 307 308 302
3 306 310 309
3 309 305 306
3 56 305 309
3 309 311 56
3 307 313 312
3 312 308 307
3 310 314 309
3 311 309 314
3 314 315 311
3 312 318 317
3 317 316 312
3 209 316 317
3 317 319 209
3 320 658 322
3 322 321 320
3 313 323 659
3 660 312 313
3 236 253 220
3 219 68 222
3 222 220 219
3 329 328 327
3 324 329 327
3 327 326 325
3 324 327 325
3 330 335 334
3 334 333 332
3 330 334 332
3 330 332 331
3 324 330 331
3 331 329 324
3 328 332 333
3 333 327 328
3 326 334 335
3 335 325 326
3 329 331 332
3 332 328 329
3 327 333 334
3 334 326 327
3 231 661 336
3 336 237 231
3 214 82 96
3 96 662 214
3 231 221 223
3 223 221 84
3 84 226 223
3 337 339 338
3 338 663 337
3 664 665 340
3 340 666 667
3 342 341 344
3 344 343 342
3 345 342 343
3 343 346 345
3 668 337 669
3 670 671 672
3 347 673 674
3 347 675 348
3 676 677 678
3 348 679 680
3 347 348 681
3 341 342 682
3 683 684 341
3 685 686 342
3 342 345 687
3 237 336 688
3 689 96 5
3 5 212 690
3 691 344 341
3 341 349 692
3 341 693 349
3 694 294 263
3 263 350 695
3 263 233 351
3 351 350 263
3 351 233 234
3 234 248 351
3 234 238 247
3 247 248 234
3 247 238 224
3 224 246 247
3 246 224 225
3 225 296 246
3 257 252 236
3 236 230 257
3 230 227 256
3 256 257 230
3 227 268 271
3 271 256 227
3 271 268 275
3 275 278 271
3 286 696 697
3 698 283 286
3 286 283 284
3 284 289 286
3 220 253 219
3 219 253 251
3 251 218 219
3 304 251 254
3 254 303 304
3 301 258 255
3 255 699 301
3 255 270 700
3 701 702 255
3 703 270 277
3 277 704 705
3 706 707 287
3 287 279 708
3 279 287 288
3 288 281 279
3 709 267 269
3 269 228 710
3 269 267 274
3 274 276 269
3 711 712 282
3 282 713 714
3 223 249 231
3 231 249 250
3 250 715 231
3 716 250 264
3 264 352 717
3 264 295 353
3 353 352 264
3 718 719 345
3 345 354 720
3 354 345 346
3 346 721 354
3 251 304 218
3 304 305 218
3 722 339 337
3 337 354 723
3 337 724 725
3 726 354 337
3 291 260 727
3 728 729 291
3 730 260 731
3 732 733 734
3 217 134 6
3 6 213 217
3 241 245 351
3 351 248 241
3 351 245 261
3 261 350 351
3 350 261 292
3 292 735 350
3 736 737 340
3 340 738 739
3 314 310 308
3 308 312 316
3 314 308 316
3 310 306 302
3 302 308 310
3 302 306 303
3 303 301 302
3 303 254 258
3 258 301 303
3 258 254 252
3 252 257 258
3 355 357 356
3 740 741 358
3 358 357 355
3 359 361 360
3 742 743 362
3 362 361 359
3 363 366 365
3 365 364 363
3 365 368 367
3 367 364 365
3 366 363 367
3 367 368 366
3 365 366 369
3 368 365 369
3 366 368 369
3 370 373 372
3 372 371 370
3 372 375 374
3 374 371 372
3 373 370 374
3 374 375 373
3 372 373 376
3 375 372 376
3 373 375 376
3 377 380 379
3 379 378 377
3 379 382 381
3 381 378 379
3 380 377 381
3 381 382 380
3 379 380 383
3 382 379 383
3 380 382 383
3 384 387 386
3 386 385 384
3 386 389 388
3 388 385 386
3 387 384 388
3 388 389 387
3 386 387 390
3 389 386 390
3 387 389 390
3 391 394 393
3 393 392 391
3 393 396 395
3 395 392 393
3 394 391 395
3 395 396 394
3 393 394 397
3 396 393 397
3 394 396 397
3 398 401 400
3 400 399 398
3 400 403 402
3 402 399 400
3 401 398 402
3 402 403 401
3 400 401 404
3 403 400 404
3 401 403 404
3 405 408 407
3 407 406 405
3 407 410 409
3 409 406 407
3 408 405 409
3 409 410 408
3 407 408 411
3 410 407 411
3 408 410 411
3 412 415 414
3 414 413 412
3 414 417 416
3 416 413 414
3 415 412 416
3 416 417 415
3 414 415 418
3 417 414 418
3 415 417 418
3 210 744 745
3 746 323 210
3 419 747 317
3 317 318 419
3 52 208 748
3 749 300 52
3 208 420 750
3 751 752 208
3 320 753 754
3 755 756 320
3 420 757 758
3 759 760 420
3 316 209 315
3 315 314 316
