ply
format ascii 1.0
comment created by MATLAB nix_write_ply
element vertex 586
property float x
property float y
property float z
element face 232
property list uchar int vertex_index
end_header
24.057000 -29.976500 -2.096000
30.057000 -29.976500 -2.096000
24.057000 -23.976500 -2.096000
30.057000 -23.976500 -2.096000
24.057000 -29.976500 -32.096000
30.057000 -29.976500 -32.096000
24.057000 -23.976500 -32.096000
30.057000 -23.976500 -32.096000
24.057000 23.964900 -2.096000
30.057000 23.964900 -2.096000
24.057000 29.964900 -2.096000
30.057000 29.964900 -2.096000
24.057000 23.964900 -32.096000
30.057000 23.964900 -32.096000
24.057000 29.964900 -32.096000
30.057000 29.964900 -32.096000
-30.006900 23.964900 -2.096000
-24.006900 23.964900 -2.096000
-30.006900 29.964900 -2.096000
-24.006900 29.964900 -2.096000
-30.006900 23.964900 -32.096000
-24.006900 23.964900 -32.096000
-30.006900 29.964900 -32.096000
-24.006900 29.964900 -32.096000
-30.006900 -29.976500 -2.096000
-24.006900 -29.976500 -2.096000
-30.006900 -23.976500 -2.096000
-24.006900 -23.976500 -2.096000
-30.006900 -29.976500 -32.096000
-24.006900 -29.976500 -32.096000
-30.006900 -23.976500 -32.096000
-24.006900 -23.976500 -32.096000
30.057000 -29.976500 -2.096000
24.057000 -29.976500 -2.096000
30.057000 -29.976500 -32.096000
24.057000 -29.976500 -32.096000
30.057000 -29.976500 -32.096000
24.057000 -29.976500 -2.096000
30.057000 -23.976500 -2.096000
30.057000 -29.976500 -2.096000
30.057000 -23.976500 -32.096000
30.057000 -29.976500 -32.096000
30.057000 -23.976500 -32.096000
30.057000 -29.976500 -2.096000
24.057000 -23.976500 -2.096000
30.057000 -23.976500 -2.096000
24.057000 -23.976500 -32.096000
30.057000 -23.976500 -32.096000
24.057000 -23.976500 -32.096000
30.057000 -23.976500 -2.096000
24.057000 -29.976500 -2.096000
24.057000 -23.976500 -2.096000
24.057000 -29.976500 -32.096000
24.057000 -23.976500 -32.096000
24.057000 -29.976500 -32.096000
24.057000 -23.976500 -2.096000
30.057000 23.964900 -2.096000
24.057000 23.964900 -2.096000
30.057000 23.964900 -32.096000
24.057000 23.964900 -32.096000
30.057000 23.964900 -32.096000
24.057000 23.964900 -2.096000
30.057000 29.964900 -2.096000
30.057000 23.964900 -2.096000
30.057000 29.964900 -32.096000
30.057000 23.964900 -32.096000
30.057000 29.964900 -32.096000
30.057000 23.964900 -2.096000
24.057000 29.964900 -2.096000
30.057000 29.964900 -2.096000
24.057000 29.964900 -32.096000
30.057000 29.964900 -32.096000
24.057000 29.964900 -32.096000
30.057000 29.964900 -2.096000
24.057000 23.964900 -2.096000
24.057000 29.964900 -2.096000
24.057000 23.964900 -32.096000
24.057000 29.964900 -32.096000
24.057000 23.964900 -32.096000
24.057000 29.964900 -2.096000
-24.006900 23.964900 -2.096000
-30.006900 23.964900 -2.096000
-24.006900 23.964900 -32.096000
-30.006900 23.964900 -32.096000
-24.006900 23.964900 -32.096000
-30.006900 23.964900 -2.096000
-24.006900 29.964900 -2.096000
-24.006900 23.964900 -2.096000
-24.006900 29.964900 -32.096000
-24.006900 23.964900 -32.096000
-24.006900 29.964900 -32.096000
-24.006900 23.964900 -2.096000
-30.006900 29.964900 -2.096000
-24.006900 29.964900 -2.096000
-30.006900 29.964900 -32.096000
-24.006900 29.964900 -32.096000
-30.006900 29.964900 -32.096000
-24.006900 29.964900 -2.096000
-30.006900 23.964900 -2.096000
-30.006900 29.964900 -2.096000
-30.006900 23.964900 -32.096000
-30.006900 29.964900 -32.096000
-30.006900 23.964900 -32.096000
-30.006900 29.964900 -2.096000
-24.006900 -29.976500 -2.096000
-30.006900 -29.976500 -2.096000
-24.006900 -29.976500 -32.096000
-30.006900 -29.976500 -32.096000
-24.006900 -29.976500 -32.096000
-30.006900 -29.976500 -2.096000
-24.006900 -23.976500 -2.096000
-24.006900 -29.976500 -2.096000
-24.006900 -23.976500 -32.096000
-24.006900 -29.976500 -32.096000
-24.006900 -23.976500 -32.096000
-24.006900 -29.976500 -2.096000
-30.006900 -23.976500 -2.096000
-24.006900 -23.976500 -2.096000
-30.006900 -23.976500 -32.096000
-24.006900 -23.976500 -32.096000
-30.006900 -23.976500 -32.096000
-24.006900 -23.976500 -2.096000
-30.006900 -29.976500 -2.096000
-30.006900 -23.976500 -2.096000
-30.006900 -29.976500 -32.096000
-30.006900 -23.976500 -32.096000
-30.006900 -29.976500 -32.096000
-30.006900 -23.976500 -2.096000
26.236100 26.298700 -2.350869
27.255500 27.318200 -2.350869
27.255500 27.318200 -5.239340
26.236100 26.298700 -5.239340
-26.427800 26.298700 -2.350869
-27.447300 27.318200 -2.350869
-27.447300 27.318200 -5.239340
-26.427800 26.298700 -5.239340
-26.427800 -26.365100 -2.350868
-27.447300 -27.384600 -2.350868
-27.447300 -27.384600 -5.239340
-26.427800 -26.365100 -5.239340
26.236100 -26.365100 -2.350868
27.255500 -27.384600 -2.350868
27.255500 -27.384600 -5.239340
26.236100 -26.365100 -5.239340
26.236100 26.298700 -26.478200
27.255500 27.318200 -26.478200
27.255500 27.318200 -29.366600
26.236100 26.298700 -29.366600
-26.427800 26.298700 -26.478200
-27.447300 27.318200 -26.478200
-27.447300 27.318200 -29.366600
-26.427800 26.298700 -29.366600
-26.427800 -26.365100 -26.478100
-27.447300 -27.384600 -26.478100
-27.447300 -27.384600 -29.366600
-26.427800 -26.365100 -29.366600
26.236100 -26.365100 -26.478100
27.255500 -27.384600 -26.478100
27.255500 -27.384600 -29.366600
26.236100 -26.365100 -29.366600
27.255500 27.318200 -2.350869
-27.447300 27.318200 -2.350869
27.255500 27.318200 -2.350869
27.255500 27.318200 -5.239340
-27.447300 27.318200 -5.239340
27.255500 27.318200 -5.239340
26.236100 26.298700 -5.239340
26.236100 26.298700 -2.350869
-26.427800 26.298700 -2.350869
-26.427800 26.298700 -2.350869
-26.427800 26.298700 -5.239340
26.236100 26.298700 -5.239340
-27.447300 27.318200 -2.350869
-27.447300 27.318200 -5.239340
-27.447300 -27.384600 -2.350868
-27.447300 27.318200 -2.350869
-27.447300 27.318200 -5.239340
-27.447300 -27.384600 -5.239340
-27.447300 27.318200 -5.239340
-26.427800 26.298700 -5.239340
-26.427800 26.298700 -2.350869
-26.427800 -26.365100 -2.350868
-26.427800 -26.365100 -2.350868
-26.427800 -26.365100 -5.239340
-26.427800 26.298700 -5.239340
-27.447300 -27.384600 -2.350868
-27.447300 -27.384600 -5.239340
27.255500 -27.384600 -2.350868
-27.447300 -27.384600 -2.350868
-27.447300 -27.384600 -5.239340
27.255500 -27.384600 -5.239340
-27.447300 -27.384600 -5.239340
-26.427800 -26.365100 -5.239340
-26.427800 -26.365100 -2.350868
26.236100 -26.365100 -2.350868
26.236100 -26.365100 -2.350868
26.236100 -26.365100 -5.239340
-26.427800 -26.365100 -5.239340
27.255500 -27.384600 -2.350868
27.255500 -27.384600 -5.239340
27.255500 27.318200 -5.239340
27.255500 27.318200 -5.239340
27.255500 27.318200 -2.350869
27.255500 -27.384600 -2.350868
27.255500 -27.384600 -5.239340
27.255500 27.318200 -5.239340
27.255500 -27.384600 -5.239340
26.236100 -26.365100 -5.239340
26.236100 -26.365100 -2.350868
26.236100 26.298700 -2.350869
26.236100 26.298700 -2.350869
26.236100 26.298700 -5.239340
26.236100 -26.365100 -5.239340
27.255500 27.318200 -26.478200
-27.447300 27.318200 -26.478200
27.255500 27.318200 -26.478200
27.255500 27.318200 -29.366600
-27.447300 27.318200 -29.366600
27.255500 27.318200 -29.366600
26.236100 26.298700 -29.366600
26.236100 26.298700 -26.478200
-26.427800 26.298700 -26.478200
-26.427800 26.298700 -26.478200
-26.427800 26.298700 -29.366600
26.236100 26.298700 -29.366600
-27.447300 27.318200 -26.478200
-27.447300 27.318200 -29.366600
-27.447300 -27.384600 -26.478100
-27.447300 27.318200 -26.478200
-27.447300 27.318200 -29.366600
-27.447300 -27.384600 -29.366600
-27.447300 27.318200 -29.366600
-26.427800 26.298700 -29.366600
-26.427800 26.298700 -26.478200
-26.427800 -26.365100 -26.478100
-26.427800 -26.365100 -26.478100
-26.427800 -26.365100 -29.366600
-26.427800 26.298700 -29.366600
-27.447300 -27.384600 -26.478100
-27.447300 -27.384600 -29.366600
27.255500 -27.384600 -26.478100
-27.447300 -27.384600 -26.478100
-27.447300 -27.384600 -29.366600
27.255500 -27.384600 -29.366600
-27.447300 -27.384600 -29.366600
-26.427800 -26.365100 -29.366600
-26.427800 -26.365100 -26.478100
26.236100 -26.365100 -26.478100
26.236100 -26.365100 -26.478100
26.236100 -26.365100 -29.366600
-26.427800 -26.365100 -29.366600
27.255500 -27.384600 -26.478100
27.255500 -27.384600 -29.366600
27.255500 27.318200 -29.366600
27.255500 27.318200 -29.366600
27.255500 27.318200 -26.478200
27.255500 -27.384600 -26.478100
27.255500 -27.384600 -29.366600
27.255500 27.318200 -29.366600
27.255500 -27.384600 -29.366600
26.236100 -26.365100 -29.366600
26.236100 -26.365100 -26.478100
26.236100 26.298700 -26.478200
26.236100 26.298700 -26.478200
26.236100 26.298700 -29.366600
26.236100 -26.365100 -29.366600
30.454700 -31.482500 0.000310
30.454700 -25.482500 0.000310
30.454700 -25.482500 -1.913711
30.454700 -31.482500 -1.913711
-31.545300 -31.482500 0.000310
-31.545300 -25.482500 0.000310
-31.545300 -25.482500 -1.913713
-31.545300 -31.482500 -1.913714
30.454700 -25.182500 0.000310
30.454700 -19.182500 0.000310
30.454700 -19.182500 -1.913711
30.454700 -25.182500 -1.913711
-31.545300 -25.182500 0.000310
-31.545300 -19.182500 0.000310
-31.545300 -19.182500 -1.913713
-31.545300 -25.182500 -1.913713
30.454700 -18.882500 0.000310
30.454700 -12.882500 0.000310
30.454700 -12.882500 -1.913710
30.454700 -18.882500 -1.913711
-31.545300 -18.882500 0.000310
-31.545300 -12.882500 0.000310
-31.545300 -12.882500 -1.913713
-31.545300 -18.882500 -1.913713
30.454700 -12.582500 0.000310
30.454700 -6.582540 0.000310
30.454700 -6.582540 -1.913710
30.454700 -12.582500 -1.913710
-31.545300 -12.582500 0.000310
-31.545300 -6.582530 0.000310
-31.545300 -6.582530 -1.913713
-31.545300 -12.582500 -1.913713
30.454700 -6.282540 0.000310
30.454700 -0.282536 0.000310
30.454700 -0.282536 -1.913710
30.454700 -6.282540 -1.913710
-31.545300 -6.282530 0.000310
-31.545300 -0.282530 0.000310
-31.545300 -0.282530 -1.913712
-31.545300 -6.282530 -1.913713
30.454700 6.317460 0.000310
30.454700 12.317500 0.000310
30.454700 12.317500 -1.913709
30.454700 6.317460 -1.913710
-31.545300 6.317470 0.000310
-31.545300 12.317500 0.000310
-31.545300 12.317500 -1.913712
-31.545300 6.317470 -1.913712
30.454700 12.617500 0.000310
30.454700 18.617500 0.000320
30.454700 18.617500 -1.913709
30.454700 12.617500 -1.913709
-31.545300 12.617500 0.000310
-31.545300 18.617500 0.000310
-31.545300 18.617500 -1.913712
-31.545300 12.617500 -1.913712
30.454700 0.017463 0.000310
30.454700 6.017460 0.000310
30.454700 6.017460 -1.913710
30.454700 0.017464 -1.913710
-31.545300 0.017469 0.000310
-31.545300 6.017470 0.000310
-31.545300 6.017470 -1.913712
-31.545300 0.017469 -1.913713
30.454700 18.917500 0.000320
30.454700 24.917500 0.000320
30.454700 24.917500 -1.913709
30.454700 18.917500 -1.913709
-31.545300 18.917500 0.000310
-31.545300 24.917500 0.000310
-31.545300 24.917500 -1.913712
-31.545300 18.917500 -1.913712
30.454700 25.217500 0.000320
30.454700 31.217500 0.000320
30.454700 31.217500 -1.913709
30.454700 25.217500 -1.913709
-31.545300 25.217500 0.000310
-31.545300 31.217500 0.000310
-31.545300 31.217500 -1.913711
-31.545300 25.217500 -1.913712
30.454700 -25.482500 0.000310
30.454700 -25.482500 0.000310
-31.545300 -25.482500 0.000310
30.454700 -25.482500 -1.913711
30.454700 -25.482500 -1.913711
-31.545300 -25.482500 -1.913713
30.454700 -31.482500 -1.913711
30.454700 -31.482500 0.000310
-31.545300 -31.482500 0.000310
30.454700 -31.482500 -1.913711
-31.545300 -31.482500 0.000310
-31.545300 -31.482500 -1.913714
30.454700 -25.482500 -1.913711
30.454700 -31.482500 0.000310
30.454700 -31.482500 -1.913711
30.454700 -25.482500 -1.913711
30.454700 -25.482500 0.000310
30.454700 -31.482500 0.000310
-31.545300 -25.482500 -1.913713
-31.545300 -31.482500 -1.913714
-31.545300 -31.482500 0.000310
-31.545300 -25.482500 -1.913713
-31.545300 -31.482500 0.000310
-31.545300 -25.482500 0.000310
30.454700 -19.182500 0.000310
30.454700 -19.182500 0.000310
-31.545300 -19.182500 0.000310
30.454700 -19.182500 -1.913711
30.454700 -19.182500 -1.913711
-31.545300 -19.182500 -1.913713
30.454700 -25.182500 -1.913711
30.454700 -25.182500 0.000310
-31.545300 -25.182500 0.000310
30.454700 -25.182500 -1.913711
-31.545300 -25.182500 0.000310
-31.545300 -25.182500 -1.913713
30.454700 -19.182500 -1.913711
30.454700 -25.182500 0.000310
30.454700 -25.182500 -1.913711
30.454700 -19.182500 -1.913711
30.454700 -19.182500 0.000310
30.454700 -25.182500 0.000310
-31.545300 -19.182500 -1.913713
-31.545300 -25.182500 -1.913713
-31.545300 -25.182500 0.000310
-31.545300 -19.182500 -1.913713
-31.545300 -25.182500 0.000310
-31.545300 -19.182500 0.000310
30.454700 -12.882500 0.000310
30.454700 -12.882500 0.000310
-31.545300 -12.882500 0.000310
30.454700 -12.882500 -1.913710
30.454700 -12.882500 -1.913710
-31.545300 -12.882500 -1.913713
30.454700 -18.882500 -1.913711
30.454700 -18.882500 0.000310
-31.545300 -18.882500 0.000310
30.454700 -18.882500 -1.913711
-31.545300 -18.882500 0.000310
-31.545300 -18.882500 -1.913713
30.454700 -12.882500 -1.913710
30.454700 -18.882500 0.000310
30.454700 -18.882500 -1.913711
30.454700 -12.882500 -1.913710
30.454700 -12.882500 0.000310
30.454700 -18.882500 0.000310
-31.545300 -12.882500 -1.913713
-31.545300 -18.882500 -1.913713
-31.545300 -18.882500 0.000310
-31.545300 -12.882500 -1.913713
-31.545300 -18.882500 0.000310
-31.545300 -12.882500 0.000310
30.454700 -6.582540 0.000310
30.454700 -6.582540 0.000310
-31.545300 -6.582530 0.000310
30.454700 -6.582540 -1.913710
30.454700 -6.582540 -1.913710
-31.545300 -6.582530 -1.913713
30.454700 -12.582500 -1.913710
30.454700 -12.582500 0.000310
-31.545300 -12.582500 0.000310
30.454700 -12.582500 -1.913710
-31.545300 -12.582500 0.000310
-31.545300 -12.582500 -1.913713
30.454700 -6.582540 -1.913710
30.454700 -12.582500 0.000310
30.454700 -12.582500 -1.913710
30.454700 -6.582540 -1.913710
30.454700 -6.582540 0.000310
30.454700 -12.582500 0.000310
-31.545300 -6.582530 -1.913713
-31.545300 -12.582500 -1.913713
-31.545300 -12.582500 0.000310
-31.545300 -6.582530 -1.913713
-31.545300 -12.582500 0.000310
-31.545300 -6.582530 0.000310
30.454700 -0.282536 0.000310
30.454700 -0.282536 0.000310
-31.545300 -0.282530 0.000310
30.454700 -0.282536 -1.913710
30.454700 -0.282536 -1.913710
-31.545300 -0.282530 -1.913712
30.454700 -6.282540 -1.913710
30.454700 -6.282540 0.000310
-31.545300 -6.282530 0.000310
30.454700 -6.282540 -1.913710
-31.545300 -6.282530 0.000310
-31.545300 -6.282530 -1.913713
30.454700 -0.282536 -1.913710
30.454700 -6.282540 0.000310
30.454700 -6.282540 -1.913710
30.454700 -0.282536 -1.913710
30.454700 -0.282536 0.000310
30.454700 -6.282540 0.000310
-31.545300 -0.282530 -1.913712
-31.545300 -6.282530 -1.913713
-31.545300 -6.282530 0.000310
-31.545300 -0.282530 -1.913712
-31.545300 -6.282530 0.000310
-31.545300 -0.282530 0.000310
30.454700 12.317500 0.000310
30.454700 12.317500 0.000310
-31.545300 12.317500 0.000310
30.454700 12.317500 -1.913709
30.454700 12.317500 -1.913709
-31.545300 12.317500 -1.913712
30.454700 6.317460 -1.913710
30.454700 6.317460 0.000310
-31.545300 6.317470 0.000310
30.454700 6.317460 -1.913710
-31.545300 6.317470 0.000310
-31.545300 6.317470 -1.913712
30.454700 12.317500 -1.913709
30.454700 6.317460 0.000310
30.454700 6.317460 -1.913710
30.454700 12.317500 -1.913709
30.454700 12.317500 0.000310
30.454700 6.317460 0.000310
-31.545300 12.317500 -1.913712
-31.545300 6.317470 -1.913712
-31.545300 6.317470 0.000310
-31.545300 12.317500 -1.913712
-31.545300 6.317470 0.000310
-31.545300 12.317500 0.000310
30.454700 18.617500 0.000320
30.454700 18.617500 0.000320
-31.545300 18.617500 0.000310
30.454700 18.617500 -1.913709
30.454700 18.617500 -1.913709
-31.545300 18.617500 -1.913712
30.454700 12.617500 -1.913709
30.454700 12.617500 0.000310
-31.545300 12.617500 0.000310
30.454700 12.617500 -1.913709
-31.545300 12.617500 0.000310
-31.545300 12.617500 -1.913712
30.454700 18.617500 -1.913709
30.454700 12.617500 0.000310
30.454700 12.617500 -1.913709
30.454700 18.617500 -1.913709
30.454700 18.617500 0.000320
30.454700 12.617500 0.000310
-31.545300 18.617500 -1.913712
-31.545300 12.617500 -1.913712
-31.545300 12.617500 0.000310
-31.545300 18.617500 -1.913712
-31.545300 12.617500 0.000310
-31.545300 18.617500 0.000310
30.454700 6.017460 0.000310
30.454700 6.017460 0.000310
-31.545300 6.017470 0.000310
30.454700 6.017460 -1.913710
30.454700 6.017460 -1.913710
-31.545300 6.017470 -1.913712
30.454700 0.017464 -1.913710
30.454700 0.017463 0.000310
-31.545300 0.017469 0.000310
30.454700 0.017464 -1.913710
-31.545300 0.017469 0.000310
-31.545300 0.017469 -1.913713
30.454700 6.017460 -1.913710
30.454700 0.017463 0.000310
30.454700 0.017464 -1.913710
30.454700 6.017460 -1.913710
30.454700 6.017460 0.000310
30.454700 0.017463 0.000310
-31.545300 6.017470 -1.913712
-31.545300 0.017469 -1.913713
-31.545300 0.017469 0.000310
-31.545300 6.017470 -1.913712
-31.545300 0.017469 0.000310
-31.545300 6.017470 0.000310
30.454700 24.917500 0.000320
30.454700 24.917500 0.000320
-31.545300 24.917500 0.000310
30.454700 24.917500 -1.913709
30.454700 24.917500 -1.913709
-31.545300 24.917500 -1.913712
30.454700 18.917500 -1.913709
30.454700 18.917500 0.000320
-31.545300 18.917500 0.000310
30.454700 18.917500 -1.913709
-31.545300 18.917500 0.000310
-31.545300 18.917500 -1.913712
30.454700 24.917500 -1.913709
30.454700 18.917500 0.000320
30.454700 18.917500 -1.913709
30.454700 24.917500 -1.913709
30.454700 24.917500 0.000320
30.454700 18.917500 0.000320
-31.545300 24.917500 -1.913712
-31.545300 18.917500 -1.913712
-31.545300 18.917500 0.000310
-31.545300 24.917500 -1.913712
-31.545300 18.917500 0.000310
-31.545300 24.917500 0.000310
30.454700 31.217500 0.000320
30.454700 31.217500 0.000320
-31.545300 31.217500 0.000310
30.454700 31.217500 -1.913709
30.454700 31.217500 -1.913709
-31.545300 31.217500 -1.913711
30.454700 25.217500 -1.913709
30.454700 25.217500 0.000320
-31.545300 25.217500 0.000310
30.454700 25.217500 -1.913709
-31.545300 25.217500 0.000310
-31.545300 25.217500 -1.913712
30.454700 31.217500 -1.913709
30.454700 25.217500 0.000320
30.454700 25.217500 -1.913709
30.454700 31.217500 -1.913709
30.454700 31.217500 0.000320
30.454700 25.217500 0.000320
-31.545300 31.217500 -1.913711
-31.545300 25.217500 -1.913712
-31.545300 25.217500 0.000310
-31.545300 31.217500 -1.913711
-31.545300 25.217500 0.000310
-31.545300 31.217500 0.000310
3 2 0 3
3 1 3 0
3 5 4 7
3 6 7 4
3 32 33 34
3 35 36 37
3 38 39 40
3 41 42 43
3 44 45 46
3 47 48 49
3 50 51 52
3 53 54 55
3 10 8 11
3 9 11 8
3 13 12 15
3 14 15 12
3 56 57 58
3 59 60 61
3 62 63 64
3 65 66 67
3 68 69 70
3 71 72 73
3 74 75 76
3 77 78 79
3 18 16 19
3 17 19 16
3 21 20 23
3 22 23 20
3 80 81 82
3 83 84 85
3 86 87 88
3 89 90 91
3 92 93 94
3 95 96 97
3 98 99 100
3 101 102 103
3 26 24 27
3 25 27 24
3 29 28 31
3 30 31 28
3 104 105 106
3 107 108 109
3 110 111 112
3 113 114 115
3 116 117 118
3 119 120 121
3 122 123 124
3 125 126 127
3 128 129 133
3 133 132 128
3 160 130 134
3 134 161 162
3 163 131 135
3 135 164 165
3 166 167 168
3 169 170 171
3 132 133 137
3 137 136 132
3 172 173 138
3 138 174 175
3 176 135 139
3 139 177 178
3 179 180 181
3 182 183 184
3 136 137 141
3 141 140 136
3 185 186 142
3 142 187 188
3 189 139 143
3 143 190 191
3 192 193 194
3 195 196 197
3 140 141 129
3 129 128 140
3 198 199 200
3 201 202 203
3 204 143 131
3 131 205 206
3 207 208 209
3 210 211 212
3 144 145 149
3 149 148 144
3 213 146 150
3 150 214 215
3 216 147 151
3 151 217 218
3 219 220 221
3 222 223 224
3 148 149 153
3 153 152 148
3 225 226 154
3 154 227 228
3 229 151 155
3 155 230 231
3 232 233 234
3 235 236 237
3 152 153 157
3 157 156 152
3 238 239 158
3 158 240 241
3 242 155 159
3 159 243 244
3 245 246 247
3 248 249 250
3 156 157 145
3 145 144 156
3 251 252 253
3 254 255 256
3 257 159 147
3 147 258 259
3 260 261 262
3 263 264 265
3 266 267 271
3 266 271 270
3 346 268 272
3 347 272 348
3 349 269 273
3 350 273 351
3 352 353 354
3 355 356 357
3 358 359 360
3 361 362 363
3 364 365 366
3 367 368 369
3 274 275 279
3 274 279 278
3 370 276 280
3 371 280 372
3 373 277 281
3 374 281 375
3 376 377 378
3 379 380 381
3 382 383 384
3 385 386 387
3 388 389 390
3 391 392 393
3 282 283 287
3 282 287 286
3 394 284 288
3 395 288 396
3 397 285 289
3 398 289 399
3 400 401 402
3 403 404 405
3 406 407 408
3 409 410 411
3 412 413 414
3 415 416 417
3 290 291 295
3 290 295 294
3 418 292 296
3 419 296 420
3 421 293 297
3 422 297 423
3 424 425 426
3 427 428 429
3 430 431 432
3 433 434 435
3 436 437 438
3 439 440 441
3 298 299 303
3 298 303 302
3 442 300 304
3 443 304 444
3 445 301 305
3 446 305 447
3 448 449 450
3 451 452 453
3 454 455 456
3 457 458 459
3 460 461 462
3 463 464 465
3 306 307 311
3 306 311 310
3 466 308 312
3 467 312 468
3 469 309 313
3 470 313 471
3 472 473 474
3 475 476 477
3 478 479 480
3 481 482 483
3 484 485 486
3 487 488 489
3 314 315 319
3 314 319 318
3 490 316 320
3 491 320 492
3 493 317 321
3 494 321 495
3 496 497 498
3 499 500 501
3 502 503 504
3 505 506 507
3 508 509 510
3 511 512 513
3 322 323 327
3 322 327 326
3 514 324 328
3 515 328 516
3 517 325 329
3 518 329 519
3 520 521 522
3 523 524 525
3 526 527 528
3 529 530 531
3 532 533 534
3 535 536 537
3 330 331 335
3 330 335 334
3 538 332 336
3 539 336 540
3 541 333 337
3 542 337 543
3 544 545 546
3 547 548 549
3 550 551 552
3 553 554 555
3 556 557 558
3 559 560 561
3 338 339 343
3 338 343 342
3 562 340 344
3 563 344 564
3 565 341 345
3 566 345 567
3 568 569 570
3 571 572 573
3 574 575 576
3 577 578 579
3 580 581 582
3 583 584 585
